<?xml version="1.0" encoding="iso-8859-1"?>
<!-- Generator: Adobe Illustrator 29.6.1, SVG Export Plug-In . SVG Version: 9.03 Build 0)  -->
<svg version="1.1" id="&#xB808;&#xC774;&#xC5B4;_1" xmlns="http://www.w3.org/2000/svg" xmlns:xlink="http://www.w3.org/1999/xlink"
	 x="0px" y="0px" viewBox="0 0 14 14" style="enable-background:new 0 0 14 14;" xml:space="preserve">
<g>
	<path style="fill:#FFFFFF;" d="M7,4.29l0.567,1.315l0.352,0.817l0.886,0.082l1.425,0.133L9.155,7.582L8.487,8.169l0.195,0.868
		l0.314,1.397l-1.231-0.73L7,9.25L6.235,9.704l-1.231,0.73l0.314-1.397l0.195-0.868L4.845,7.582L3.77,6.637l1.425-0.133l0.886-0.082
		l0.352-0.817L7,4.29 M7,0.5L5.056,5.01l-4.89,0.455l3.689,3.243L2.776,13.5L7,10.994l4.224,2.506l-1.078-4.792l3.689-3.243
		L8.944,5.01L7,0.5L7,0.5z"/>
</g>
</svg>
