<?xml version="1.0" encoding="iso-8859-1"?>
<!-- Generator: Adobe Illustrator 29.6.1, SVG Export Plug-In . SVG Version: 9.03 Build 0)  -->
<svg version="1.1" id="&#xB808;&#xC774;&#xC5B4;_1" xmlns="http://www.w3.org/2000/svg" xmlns:xlink="http://www.w3.org/1999/xlink"
	 x="0px" y="0px" viewBox="0 0 156.533 148.191" style="enable-background:new 0 0 156.533 148.191;" xml:space="preserve">
<g>
	<g>
		<g>
			<g>
				<g>
					<g>
						<path style="fill:#5CB5BC;" d="M92.49,138.756c0.68,0.874-0.081,2.66-5.262,3.839c-5.182,1.179-12.024,1.215-18.507,0.243
							c-6.482-0.972-7.044-3.056-6.292-4.214C63.715,136.644,90.689,136.441,92.49,138.756z"/>
					</g>
				</g>
			</g>
			<g>
				<g>
					<g>
						<g>
							<g>
								<g>
									<g>
										<path style="fill:#EEA844;" d="M63.869,136.323l0.055,3.122c0.035,0.454,0.405,0.887,1.049,1.281
											c0.343,0.211,0.766,0.411,1.257,0.598c0.54,0.206,1.165,0.396,1.86,0.568c0.387,0.096,0.797,0.185,1.226,0.269
											c2.369,0.46,5.341,0.724,8.549,0.704c7.552-0.047,13.553-1.656,13.405-3.591l-0.055-3.122c0,0-8.959,0.839-13.797,0.87
											c-3.296,0.021-8.388-0.311-11.301-0.525c-0.326-0.024-0.624-0.046-0.89-0.066
											C64.382,136.366,63.869,136.323,63.869,136.323z"/>
									</g>
								</g>
							</g>
						</g>
						<g>
							<g>
								<g>
									<g>
										<path style="fill:#F7D168;" d="M63.868,136.288c0.148,1.936,6.391,3.467,13.943,3.42c0.479-0.003,0.953-0.012,1.419-0.028
											c1.506-0.049,2.933-0.16,4.244-0.325c4.67-0.582,7.85-1.823,7.742-3.239c-0.148-1.936-6.39-3.467-13.943-3.42
											c-2.275,0.014-4.412,0.17-6.279,0.435c-0.099,0.014-0.198,0.028-0.296,0.043c-0.606,0.09-1.182,0.192-1.724,0.305
											c-0.511,0.106-0.992,0.221-1.438,0.346C65.199,134.47,63.796,135.339,63.868,136.288z"/>
									</g>
								</g>
							</g>
						</g>
						<g>
							<g>
								<g>
									<g>
										<g>
											<path style="fill:#F6B64E;" d="M77.31,133.164c6.641-0.042,12.147,1.287,12.276,2.963
												c0.128,1.676-5.17,3.073-11.811,3.114c-6.641,0.042-12.148-1.287-12.276-2.963
												C65.371,134.602,70.669,133.205,77.31,133.164z M77.326,133.379c-6.226,0.039-11.194,1.337-11.075,2.894
												c0.119,1.557,5.281,2.791,11.507,2.752c6.226-0.039,11.194-1.337,11.074-2.894
												C88.714,134.575,83.552,133.34,77.326,133.379z"/>
										</g>
									</g>
								</g>
							</g>
						</g>
					</g>
					<g>
						<g>
							<g>
								<g>
									<path style="fill:#FFFFFF;" d="M78.892,139.911c4.672,0,7.918-0.712,7.953-0.719c0.152-0.034,0.243-0.165,0.202-0.293
										c-0.041-0.128-0.197-0.204-0.349-0.17c-0.037,0.008-3.8,0.831-9.048,0.686c-0.156-0.006-0.289,0.099-0.294,0.231
										c-0.005,0.132,0.118,0.243,0.276,0.247C78.061,139.905,78.482,139.911,78.892,139.911z"/>
								</g>
							</g>
						</g>
					</g>
				</g>
				<g>
					<g>
						<g>
							<g>
								<g>
									<g>
										<path style="fill:#EEA844;" d="M64.84,131.913l0.055,3.122c0.035,0.454,0.405,0.887,1.049,1.281
											c0.343,0.211,0.766,0.411,1.257,0.598c0.54,0.206,1.165,0.396,1.86,0.568c0.387,0.096,0.797,0.185,1.226,0.269
											c2.369,0.46,5.341,0.724,8.549,0.704c7.552-0.047,13.553-1.656,13.405-3.591l-0.055-3.122c0,0-8.959,0.839-13.797,0.87
											c-3.296,0.021-8.388-0.311-11.301-0.525c-0.326-0.024-0.624-0.046-0.89-0.066C65.353,131.955,64.84,131.913,64.84,131.913
											z"/>
									</g>
								</g>
							</g>
						</g>
						<g>
							<g>
								<g>
									<g>
										<path style="fill:#F7D168;" d="M64.839,131.878c0.148,1.936,6.39,3.467,13.943,3.42c0.479-0.003,0.953-0.012,1.419-0.028
											c1.506-0.049,2.933-0.16,4.244-0.325c4.67-0.582,7.85-1.823,7.742-3.239c-0.148-1.936-6.39-3.467-13.943-3.42
											c-2.275,0.014-4.412,0.17-6.279,0.435c-0.099,0.014-0.198,0.028-0.296,0.043c-0.606,0.09-1.182,0.192-1.724,0.305
											c-0.511,0.106-0.992,0.221-1.438,0.346C66.17,130.06,64.767,130.929,64.839,131.878z"/>
									</g>
								</g>
							</g>
						</g>
						<g>
							<g>
								<g>
									<g>
										<g>
											<path style="fill:#F6B64E;" d="M78.281,128.753c6.64-0.042,12.147,1.287,12.276,2.963
												c0.128,1.676-5.17,3.073-11.811,3.114c-6.641,0.042-12.148-1.287-12.276-2.963
												C66.342,130.192,71.64,128.795,78.281,128.753z M78.297,128.969c-6.226,0.039-11.194,1.337-11.075,2.894
												c0.119,1.557,5.281,2.791,11.507,2.752c6.226-0.039,11.194-1.337,11.074-2.894
												C89.685,130.164,84.523,128.93,78.297,128.969z"/>
										</g>
									</g>
								</g>
							</g>
						</g>
					</g>
					<g>
						<g>
							<g>
								<g>
									<path style="fill:#FFFFFF;" d="M79.375,135.434c4.717,0,8.001-0.726,8.036-0.734c0.152-0.034,0.242-0.165,0.201-0.293
										c-0.041-0.128-0.197-0.204-0.349-0.169c-0.037,0.008-3.796,0.839-9.046,0.703c-0.158-0.004-0.289,0.1-0.294,0.232
										c-0.005,0.132,0.119,0.242,0.276,0.247C78.6,135.429,78.993,135.434,79.375,135.434z"/>
								</g>
							</g>
						</g>
					</g>
				</g>
				<g>
					<g>
						<g>
							<g>
								<g>
									<g>
										<path style="fill:#EEA844;" d="M63.401,127.459l0.055,3.122c0.035,0.454,0.405,0.887,1.049,1.281
											c0.343,0.211,0.766,0.411,1.257,0.598c0.54,0.206,1.165,0.396,1.86,0.568c0.387,0.096,0.797,0.185,1.226,0.269
											c2.369,0.46,5.341,0.724,8.549,0.704c7.552-0.047,13.553-1.656,13.405-3.591l-0.055-3.122c0,0-8.959,0.839-13.797,0.87
											c-3.296,0.021-8.388-0.311-11.301-0.525c-0.326-0.024-0.624-0.046-0.89-0.066
											C63.914,127.502,63.401,127.459,63.401,127.459z"/>
									</g>
								</g>
							</g>
						</g>
						<g>
							<g>
								<g>
									<g>
										<path style="fill:#F7D168;" d="M63.4,127.425c0.148,1.936,6.391,3.467,13.943,3.42c0.479-0.003,0.953-0.012,1.419-0.028
											c1.506-0.049,2.933-0.16,4.244-0.325c4.67-0.582,7.85-1.823,7.742-3.239c-0.148-1.936-6.39-3.467-13.943-3.42
											c-2.275,0.014-4.412,0.17-6.279,0.435c-0.099,0.014-0.198,0.028-0.296,0.043c-0.606,0.09-1.182,0.192-1.724,0.305
											c-0.511,0.106-0.992,0.221-1.438,0.346C64.73,125.607,63.327,126.476,63.4,127.425z"/>
									</g>
								</g>
							</g>
						</g>
						<g>
							<g>
								<g>
									<g>
										<g>
											<path style="fill:#F6B64E;" d="M76.841,124.3c6.64-0.042,12.147,1.287,12.276,2.963c0.128,1.676-5.17,3.073-11.811,3.114
												c-6.641,0.042-12.148-1.287-12.276-2.963C64.902,125.739,70.201,124.342,76.841,124.3z M76.858,124.516
												c-6.226,0.039-11.194,1.337-11.075,2.894c0.119,1.557,5.281,2.791,11.507,2.752c6.226-0.039,11.194-1.337,11.074-2.894
												C88.245,125.711,83.083,124.477,76.858,124.516z"/>
										</g>
									</g>
								</g>
							</g>
						</g>
					</g>
					<g>
						<g>
							<g>
								<g>
									<path style="fill:#FFFFFF;" d="M77.346,131.094c4.718,0,8.001-0.726,8.036-0.734c0.152-0.034,0.242-0.165,0.202-0.293
										c-0.041-0.128-0.197-0.204-0.349-0.169c-0.037,0.008-3.797,0.838-9.047,0.703c-0.159-0.003-0.289,0.1-0.294,0.232
										c-0.005,0.132,0.119,0.242,0.276,0.247C76.571,131.089,76.964,131.094,77.346,131.094z"/>
								</g>
							</g>
						</g>
					</g>
				</g>
				<g>
					<g>
						<g>
							<g>
								<g>
									<path style="fill:#EEA844;" d="M60.234,123.109l0.055,3.122c0.035,0.454,0.405,0.886,1.049,1.281
										c0.343,0.211,0.766,0.411,1.257,0.598c0.54,0.206,1.165,0.396,1.86,0.568c0.387,0.096,0.797,0.185,1.226,0.269
										c2.369,0.459,5.341,0.724,8.549,0.704c7.552-0.047,13.553-1.656,13.405-3.591l-0.055-3.122c0,0-8.959,0.839-13.797,0.87
										c-3.296,0.021-8.388-0.311-11.301-0.525c-0.326-0.024-0.624-0.046-0.89-0.066
										C60.747,123.152,60.234,123.109,60.234,123.109z"/>
								</g>
							</g>
						</g>
					</g>
					<g>
						<g>
							<g>
								<g>
									<path style="fill:#F7D168;" d="M60.233,123.075c0.148,1.936,6.391,3.467,13.943,3.42c0.479-0.003,0.953-0.012,1.419-0.028
										c1.506-0.049,2.933-0.16,4.244-0.325c4.67-0.582,7.85-1.823,7.742-3.239c-0.148-1.936-6.39-3.467-13.943-3.42
										c-2.275,0.014-4.412,0.17-6.279,0.435c-0.099,0.014-0.198,0.028-0.296,0.043c-0.606,0.09-1.182,0.192-1.724,0.305
										c-0.511,0.106-0.992,0.221-1.439,0.346C61.563,121.256,60.16,122.126,60.233,123.075z"/>
								</g>
							</g>
						</g>
					</g>
					<g>
						<g>
							<g>
								<g>
									<path style="fill:#FFFFFF;" d="M63.901,120.611c3.88,1.977,7.789,3.916,11.694,5.856c1.506-0.049,2.933-0.16,4.244-0.325
										c-4.159-2.069-8.332-4.129-12.48-6.224c-0.099,0.014-0.198,0.028-0.296,0.043c-0.606,0.09-1.182,0.192-1.724,0.305
										C64.828,120.372,64.347,120.487,63.901,120.611z"/>
								</g>
							</g>
						</g>
					</g>
					<g>
						<g>
							<g>
								<g>
									<g>
										<path style="fill:#F6B64E;" d="M73.674,119.95c6.64-0.042,12.147,1.287,12.276,2.963c0.128,1.676-5.17,3.073-11.811,3.114
											c-6.641,0.042-12.148-1.287-12.276-2.963C61.735,121.389,67.034,119.992,73.674,119.95z M73.691,120.166
											c-6.226,0.039-11.194,1.337-11.075,2.894c0.119,1.557,5.281,2.791,11.507,2.752c6.226-0.039,11.194-1.337,11.074-2.894
											C85.078,121.361,79.917,120.127,73.691,120.166z"/>
									</g>
								</g>
							</g>
						</g>
					</g>
				</g>
			</g>
		</g>
		<g>
			<g>
				<g>
					<g>
						<path style="fill:#5CB5BC;" d="M61.988,144.497c0.717,0.803-0.025,1.753-5.494,2.838c-5.469,1.084-12.691,1.117-19.533,0.223
							c-2.906-0.38-5.727-1.799-5.992-2.876C30.623,143.27,60.088,142.369,61.988,144.497z"/>
					</g>
				</g>
			</g>
			<g>
				<g>
					<g>
						<g>
							<g>
								<path style="fill:#EEA844;" d="M32.347,140.326l0.058,3.295c0.037,0.48,0.427,0.936,1.107,1.352
									c0.362,0.223,0.809,0.433,1.326,0.632c0.57,0.217,1.229,0.418,1.964,0.599c0.409,0.101,0.841,0.195,1.294,0.284
									c2.501,0.485,5.638,0.765,9.024,0.743c7.971-0.05,14.305-1.747,14.149-3.791l-0.058-3.295c0,0-9.456,0.886-14.562,0.919
									c-3.479,0.022-8.853-0.328-11.928-0.554c-0.344-0.025-0.659-0.049-0.939-0.07C32.888,140.371,32.347,140.326,32.347,140.326
									z"/>
							</g>
						</g>
					</g>
				</g>
				<g>
					<g>
						<g>
							<g>
								<path style="fill:#F7D168;" d="M32.346,140.289c0.156,2.043,6.745,3.659,14.716,3.61c0.506-0.003,1.006-0.013,1.498-0.03
									c1.589-0.052,3.096-0.169,4.479-0.343c4.929-0.614,8.286-1.924,8.172-3.419c-0.156-2.043-6.745-3.66-14.716-3.61
									c-2.401,0.014-4.656,0.179-6.628,0.459c-0.105,0.014-0.209,0.03-0.313,0.045c-0.639,0.095-1.248,0.203-1.819,0.322
									c-0.539,0.112-1.047,0.233-1.518,0.365C33.75,138.37,32.269,139.288,32.346,140.289z"/>
							</g>
						</g>
					</g>
				</g>
				<g>
					<g>
						<g>
							<g>
								<path style="fill:#FFFFFF;" d="M36.217,137.689c4.096,2.087,8.221,4.134,12.343,6.181c1.589-0.052,3.096-0.169,4.479-0.343
									c-4.39-2.184-8.794-4.358-13.172-6.57c-0.105,0.014-0.209,0.03-0.313,0.045c-0.639,0.095-1.248,0.203-1.819,0.322
									C37.196,137.436,36.688,137.557,36.217,137.689z"/>
							</g>
						</g>
					</g>
				</g>
				<g>
					<g>
						<g>
							<g>
								<g>
									<path style="fill:#F6B64E;" d="M46.533,136.991c7.009-0.044,12.821,1.359,12.957,3.127s-5.457,3.243-12.466,3.287
										c-7.009,0.044-12.822-1.359-12.957-3.127S39.524,137.035,46.533,136.991z M46.551,137.219
										c-6.571,0.041-11.815,1.412-11.689,3.054c0.126,1.643,5.574,2.946,12.145,2.905c6.571-0.041,11.815-1.412,11.689-3.054
										C58.57,138.48,53.122,137.178,46.551,137.219z"/>
								</g>
							</g>
						</g>
					</g>
				</g>
			</g>
		</g>
	</g>
	<g>
		<g>
			<polygon style="fill:#F6ED6B;" points="32.887,110.915 36.559,132.117 54.19,122.441 48.15,119.217 			"/>
		</g>
		<g>
			<g>
				<path style="fill:#F6ED6B;" d="M37.754,115.19l0.029-0.062l0.019-0.039l0.035-0.07l0.063-0.121l0.12-0.222
					c0.078-0.141,0.155-0.279,0.231-0.41c0.152-0.267,0.303-0.52,0.456-0.771c0.304-0.501,0.612-0.984,0.925-1.46
					c0.313-0.474,0.63-0.941,0.953-1.399c0.322-0.459,0.651-0.91,0.982-1.358l9.705,6.125c-0.205,0.408-0.407,0.817-0.6,1.226
					c-0.194,0.409-0.379,0.819-0.558,1.227c-0.176,0.408-0.346,0.814-0.502,1.213c-0.077,0.198-0.153,0.396-0.219,0.585
					c-0.035,0.096-0.065,0.186-0.095,0.274l-0.02,0.063l-0.01,0.032l-0.008,0.027c-0.005,0.017-0.012,0.039-0.014,0.051
					l-0.003,0.016c0,0.001-0.003,0.009,0,0.005l0.01-0.019L37.754,115.19z"/>
			</g>
			<g>
				<path style="fill:#F6C959;" d="M43.493,106.816c2.797-3.398,5.889-6.489,9.226-9.253l6.224,6.42
					c-1.224,1.428-2.377,2.908-3.453,4.433c-1.076,1.525-2.074,3.097-2.988,4.7L43.493,106.816z"/>
			</g>
			<g>
				<path style="fill:#E99E5B;" d="M55.12,95.669c0.863-0.649,1.741-1.276,2.632-1.881c0.889-0.604,1.801-1.187,2.709-1.741
					c1.817-1.11,3.681-2.14,5.588-3.079l3.284,5.531c-1.559,1.121-3.063,2.315-4.512,3.57c-0.725,0.628-1.419,1.264-2.103,1.922
					c-0.682,0.656-1.347,1.328-1.994,2.014L55.12,95.669z"/>
			</g>
			<g>
				<path style="fill:#EB5F4B;" d="M68.775,87.704c3.893-1.694,7.958-2.989,12.105-3.747l1.016,3.822
					c-3.648,1.317-7.098,3.092-10.321,5.185L68.775,87.704z"/>
			</g>
			<g>
				<path style="fill:#EB5F4B;" d="M83.821,83.514c2.086-0.248,4.182-0.354,6.264-0.307c2.082,0.047,4.151,0.247,6.181,0.6
					l-0.134,1.471c-1.986-0.014-3.96,0.125-5.903,0.405c-1.943,0.28-3.855,0.701-5.722,1.246L83.821,83.514z"/>
			</g>
			<g>
				<path style="fill:#EB5F4B;" d="M99.107,84.407c1.991,0.496,3.931,1.142,5.801,1.923c-1.973-0.462-3.969-0.774-5.964-0.932
					L99.107,84.407z"/>
			</g>
		</g>
	</g>
	<g>
		<path style="fill:#EE8277;" d="M27.177,67.166L12.135,82.96c-1.023,1.074-0.982,2.774,0.093,3.797l13.27,12.638
			c1.074,1.023,2.774,0.982,3.797-0.093l5.11-5.365l5.177,2.808l1.377-1.446l-1.722-6.436l5.1-5.355
			c1.023-1.074,0.982-2.774-0.093-3.797l-13.27-12.638C29.9,66.05,28.2,66.092,27.177,67.166z"/>
		<path style="fill:#E55B5A;" d="M25.799,68.612L10.757,84.407c-1.023,1.074-0.982,2.774,0.093,3.797l13.27,12.638
			c1.074,1.023,2.774,0.982,3.797-0.093l5.11-5.365l6.554,1.362L37.86,90.31l5.1-5.355c1.023-1.074,0.982-2.774-0.093-3.797
			L29.597,68.52C28.522,67.497,26.822,67.538,25.799,68.612z"/>
		<path style="fill:#F3A9A6;" d="M26.341,78.799c-2.558,1.916-0.922,4.183-0.922,4.183s-2.344-1.524-4.133,1.125
			c-1.789,2.649,2.489,4.496,5.797,4.509c3.308,0.013,4.374,0.116,4.374,0.116s-0.156-1.059-0.33-4.363
			C30.953,81.065,28.9,76.882,26.341,78.799z"/>
	</g>
	<g>
		<g>
			<g>
				<g>
					<path style="fill:#EEA844;" d="M21.833,115.55c-1.835-0.781-3.7-0.873-5.004-0.369l-0.818-0.348l-0.673,1.405
						c-0.76,1.786,0.946,4.223,3.811,5.442c2.865,1.22,5.804,0.761,6.564-1.026l0.673-1.404l-0.818-0.348
						C25.027,117.612,23.669,116.331,21.833,115.55z"/>
				</g>
			</g>
			<g>
				<g>
					<path style="fill:#F6DB66;" d="M22.579,113.799c2.865,1.22,4.571,3.656,3.811,5.442c-0.76,1.786-3.699,2.245-6.564,1.026
						c-2.865-1.22-4.571-3.656-3.811-5.442C16.775,113.038,19.714,112.579,22.579,113.799z"/>
				</g>
			</g>
			<g>
				<g>
					<g>
						<path style="fill:#EEA844;" d="M25.925,118.2c-0.017,0.189-0.061,0.371-0.135,0.545c-0.306,0.72-1.069,1.188-2.148,1.319
							c-1.053,0.128-2.289-0.081-3.479-0.588c-1.191-0.507-2.198-1.253-2.836-2.1c-0.653-0.868-0.845-1.743-0.538-2.462
							c0.306-0.72,1.069-1.188,2.148-1.319c1.053-0.128,2.289,0.081,3.48,0.588l0,0c1.191,0.507,2.198,1.253,2.836,2.101
							C25.747,116.941,25.977,117.604,25.925,118.2z M16.912,115.479c-0.047,0.532,0.166,1.133,0.622,1.739
							c0.611,0.812,1.58,1.528,2.73,2.018c2.35,1,4.721,0.734,5.287-0.593c0.565-1.327-0.887-3.221-3.237-4.222
							c-2.35-1-4.721-0.734-5.287,0.593C16.965,115.162,16.926,115.317,16.912,115.479z"/>
					</g>
				</g>
			</g>
		</g>
		<g>
			<g>
				<path style="fill:#FFFFFF;" d="M21.417,121.085c-0.022,0-0.045-0.002-0.068-0.007c-2.667-0.592-4.155-2.124-4.217-2.189
					c-0.118-0.124-0.114-0.32,0.01-0.439c0.124-0.118,0.32-0.114,0.439,0.01c0.015,0.015,1.429,1.463,3.903,2.012
					c0.167,0.037,0.273,0.203,0.236,0.37C21.687,120.987,21.559,121.085,21.417,121.085z"/>
			</g>
		</g>
	</g>
	<g>
		<g>
			<g>
				<path style="fill:#5CB5BC;" d="M83.65,142.906c3.289,0.002,8.539,0.052,11.826,0c6.632-0.105,10.989-0.261,17.619,0
					c19.308,0.76,16.776,1.299,15.983,1.35c-14.078,0.907-53.507,0.838-54.268-0.298C74.54,143.553,77.576,142.902,83.65,142.906z"
					/>
			</g>
			<g>
				<path style="fill:#404858;" d="M87.755,140.984c0.732-0.718,0.194-1.602,0.412-2.658c0.015-0.071-0.028-1.49-0.041-1.601
					c-0.056-0.478,0.355-0.949,0.927-0.078c1.128,1.716,1.857-1.593,1.909-0.762c0.153,2.476,1.11,5.866,0.68,6.609
					c-0.824,1.42-7.747,2.304-7.985,1.39C83.513,143.334,86.489,142.225,87.755,140.984z"/>
			</g>
			<g>
				<path style="fill:#404858;" d="M113.901,140.984c0.732-0.718,0.194-1.602,0.412-2.658c0.015-0.071-0.028-1.49-0.041-1.601
					c-0.056-0.478,0.355-0.949,0.927-0.078c1.128,1.716,1.857-1.593,1.909-0.762c0.153,2.476,1.111,5.866,0.68,6.609
					c-0.824,1.42-7.747,2.304-7.985,1.39C109.659,143.334,112.635,142.225,113.901,140.984z"/>
			</g>
			<g>
				<path style="fill:#EA576E;" d="M107.722,79.085c-0.223-5.9-5.291-12.147-5.671-13.254c-0.472-1.378-14.942-4.372-15.498-1.968
					c-0.571,2.468-2.756,12.66-2.745,19.43c0.035,21.487,0.666,40.964,0.889,52.858c0.014,0.735,8.09,1.637,8.102,1.189
					c0.187-6.885,1.243-19.317,1.414-26.985c0.149-6.691,0.349-24.2,0.454-23.535c0.519,3.289,16.05,50.967,16.05,50.967
					s1.041,0.743,4.064,0.743c2.667,0,3.742-0.743,3.742-0.743S107.791,80.894,107.722,79.085z"/>
			</g>
			<g>
				<path style="fill:#BE3A56;" d="M103.976,71.004c0.321-0.205,0.59-0.413,0.818-0.613c-0.591-1.053-1.176-1.985-1.655-2.737
					c-2.846,0.256-10.69,0.947-12.346,0.947c-2.032,0-4.263,0.051-4.263,0.051s1.351,1.783,6.722,2.576
					C98.624,72.021,102.539,71.92,103.976,71.004z"/>
			</g>
			<g>
				<path style="fill:#424A58;" d="M99.122,41.621c0,0-0.287,5.633,5.897,10.543c3.701,2.938-5.026,9.341-8.509,3.93
					C93.026,50.682,96.667,43.008,99.122,41.621z"/>
			</g>
			<g>
				<path style="fill:#424A58;" d="M97.577,38.979c0,0-1.278-1.197-2.948-0.488c-1.384,0.588-1.27,2.522-1.777,4.022
					c-0.309,0.915-0.323,3.71-0.491,4.644c-0.442,2.467,1.548,1.892,2.587,1.327C95.986,47.919,98.442,40.074,97.577,38.979z"/>
			</g>
			<g>
				<path style="fill:#E6F1F0;" d="M86.499,55.603c-0.054-2.475,0.305-3.583,2.175-5.667c1.239-1.381,3.334-4.349,5.006-4.37
					l0.735,0.247h0c0.277-0.004,0.513,0.035,0.694,0.122c0.943,0.177,2.436,0.489,3.245,0.751c1.324,0.428,2.973,1.261,3.718,2.849
					c1.344,2.866,0.977,5.637,2.136,11.378c1.004,4.97,1.302,5.748-0.296,7.867c-0.486,0.645-2.579,2.185-4.946,2.221
					c-5.413,0.083-13.492-1.366-13.925-4.077C84.419,63.027,86.553,58.077,86.499,55.603z"/>
			</g>
			<g>
				<g>
					<g>
						<g>
							<g>
								<g>
									<path style="fill:#C44948;" d="M53.756,82.686l35.793-0.008c1.217,0,1.997-0.987,1.743-2.203l-7.527-53.14
										c-0.254-1.217-1.446-2.203-2.662-2.202L45.31,25.141c-1.217,0-1.997,0.987-1.743,2.203l7.527,53.14
										C51.347,81.701,52.539,82.687,53.756,82.686z"/>
								</g>
							</g>
						</g>
						<g>
							<g>
								<g>
									<path style="fill:#E55B5A;" d="M56.243,82.686l35.793-0.008c1.217,0,1.997-0.987,1.743-2.203l-7.527-53.14
										c-0.254-1.217-1.446-2.203-2.662-2.202L47.797,25.14c-1.217,0-1.997,0.987-1.743,2.203l7.527,53.14
										C53.835,81.7,55.027,82.686,56.243,82.686z"/>
								</g>
							</g>
						</g>
						<g>
							<g>
								<path style="fill:#C44948;" d="M78.899,50.683l4.934-0.001c0.168,0,0.275-0.136,0.24-0.304L83.25,44.63
									c-0.035-0.168-0.199-0.304-0.367-0.304l-4.934,0.001c-0.168,0-0.275,0.136-0.24,0.304l0.823,5.748
									C78.567,50.547,78.731,50.683,78.899,50.683z"/>
							</g>
						</g>
						<g>
							<g>
								<path style="fill:#C44948;" d="M70.309,50.719l4.934-0.001c0.168,0,0.275-0.136,0.24-0.304l-0.823-5.748
									c-0.035-0.168-0.199-0.304-0.367-0.304l-4.934,0.001c-0.168,0-0.275,0.136-0.24,0.304l0.823,5.748
									C69.977,50.583,70.142,50.719,70.309,50.719z"/>
							</g>
						</g>
						<g>
							<g>
								<path style="fill:#C44948;" d="M61.72,50.754l4.934-0.001c0.168,0,0.275-0.136,0.24-0.304l-0.823-5.748
									c-0.035-0.168-0.199-0.304-0.367-0.304l-4.934,0.001c-0.168,0-0.275,0.136-0.24,0.304l0.823,5.748
									C61.388,50.619,61.552,50.754,61.72,50.754z"/>
							</g>
						</g>
						<g>
							<g>
								<g>
									<g>
										<path style="fill:#C44948;" d="M54.373,60.019l4.934-0.001c0.168,0,0.275-0.136,0.24-0.304l-2.066-14.976
											c-0.035-0.168-0.199-0.304-0.367-0.304l-4.934,0.001c-0.168,0-0.275,0.136-0.24,0.304l2.066,14.976
											C54.041,59.883,54.206,60.019,54.373,60.019z"/>
									</g>
								</g>
							</g>
						</g>
						<g>
							<g>
								<path style="fill:#C44948;" d="M80.209,59.675l4.934-0.001c0.168,0,0.275-0.136,0.24-0.304l-0.823-5.748
									c-0.035-0.168-0.199-0.304-0.367-0.304L79.26,53.32c-0.168,0-0.275,0.136-0.24,0.304l0.823,5.748
									C79.877,59.54,80.041,59.675,80.209,59.675z"/>
							</g>
						</g>
						<g>
							<g>
								<path style="fill:#C44948;" d="M71.62,59.711l4.934-0.001c0.168,0,0.275-0.136,0.24-0.304l-0.823-5.748
									c-0.035-0.168-0.199-0.304-0.367-0.304l-4.934,0.001c-0.168,0-0.275,0.136-0.24,0.304l0.823,5.748
									C71.288,59.575,71.452,59.711,71.62,59.711z"/>
							</g>
						</g>
						<g>
							<g>
								<g>
									<g>
										<path style="fill:#C44948;" d="M63.03,59.747l4.934-0.001c0.168,0,0.275-0.136,0.24-0.304l-0.823-5.748
											c-0.035-0.168-0.199-0.304-0.367-0.304l-4.934,0.001c-0.168,0-0.275,0.136-0.24,0.304l0.823,5.748
											C62.698,59.611,62.862,59.747,63.03,59.747z"/>
									</g>
								</g>
							</g>
						</g>
						<g>
							<g>
								<path style="fill:#C44948;" d="M81.52,68.668l4.934-0.001c0.168,0,0.275-0.136,0.24-0.304l-0.823-5.748
									c-0.035-0.168-0.199-0.304-0.367-0.304l-4.934,0.001c-0.168,0-0.275,0.136-0.24,0.304l0.823,5.748
									C81.188,68.532,81.352,68.668,81.52,68.668z"/>
							</g>
						</g>
						<g>
							<g>
								<path style="fill:#C44948;" d="M72.93,68.704l4.934-0.001c0.168,0,0.275-0.136,0.24-0.304l-0.823-5.748
									c-0.035-0.168-0.199-0.304-0.367-0.304l-4.934,0.001c-0.168,0-0.275,0.136-0.24,0.304l0.823,5.748
									C72.598,68.568,72.762,68.704,72.93,68.704z"/>
							</g>
						</g>
						<g>
							<g>
								<path style="fill:#C44948;" d="M64.34,68.739l4.934-0.001c0.168,0,0.275-0.136,0.24-0.304l-0.823-5.748
									c-0.035-0.168-0.199-0.304-0.367-0.304l-4.934,0.001c-0.168,0-0.275,0.136-0.24,0.304l0.823,5.748
									C64.008,68.603,64.173,68.739,64.34,68.739z"/>
							</g>
						</g>
						<g>
							<g>
								<g>
									<path style="fill:#C44948;" d="M55.539,65.3c0.177,1.763,1.246,3.291,2.388,3.411c1.142,0.121,1.924-1.211,1.747-2.974
										c-0.177-1.763-1.246-3.291-2.388-3.411C56.144,62.205,55.362,63.536,55.539,65.3z"/>
								</g>
							</g>
						</g>
						<g>
							<g>
								<g>
									<g>
										<path style="fill:#424A58;" d="M79.671,49.625l4.934-0.001c0.168,0,0.275-0.136,0.24-0.304l-0.823-5.748
											c-0.035-0.168-0.199-0.304-0.367-0.304l-4.934,0.001c-0.168,0-0.275,0.136-0.24,0.304l0.823,5.748
											C79.339,49.489,79.503,49.625,79.671,49.625z"/>
									</g>
								</g>
							</g>
						</g>
						<g>
							<g>
								<g>
									<g>
										<path style="fill:#424A58;" d="M71.082,49.661l4.934-0.001c0.168,0,0.275-0.136,0.24-0.304l-0.823-5.748
											c-0.035-0.168-0.199-0.304-0.367-0.304l-4.934,0.001c-0.168,0-0.275,0.136-0.24,0.304l0.823,5.748
											C70.749,49.525,70.914,49.661,71.082,49.661z"/>
									</g>
								</g>
							</g>
						</g>
						<g>
							<g>
								<g>
									<g>
										<path style="fill:#424A58;" d="M62.492,49.696l4.934-0.001c0.168,0,0.275-0.136,0.24-0.304l-0.823-5.748
											c-0.035-0.168-0.199-0.304-0.367-0.304l-4.934,0.001c-0.168,0-0.275,0.136-0.24,0.304l0.823,5.748
											C62.16,49.561,62.324,49.696,62.492,49.696z"/>
									</g>
								</g>
							</g>
						</g>
						<g>
							<g>
								<g>
									<g>
										<path style="fill:#424A58;" d="M55.146,58.961l4.934-0.001c0.168,0,0.275-0.136,0.24-0.304l-2.066-14.976
											c-0.035-0.168-0.199-0.304-0.367-0.304l-4.934,0.001c-0.168,0-0.275,0.136-0.24,0.304l2.066,14.976
											C54.814,58.825,54.978,58.961,55.146,58.961z"/>
									</g>
								</g>
							</g>
						</g>
						<g>
							<g>
								<g>
									<g>
										<path style="fill:#424A58;" d="M80.982,58.617l4.934-0.001c0.168,0,0.275-0.136,0.24-0.304l-0.823-5.748
											c-0.035-0.168-0.199-0.304-0.367-0.304l-4.934,0.001c-0.168,0-0.275,0.136-0.24,0.304l0.823,5.748
											C80.649,58.482,80.814,58.617,80.982,58.617z"/>
									</g>
								</g>
							</g>
						</g>
						<g>
							<g>
								<g>
									<g>
										<path style="fill:#424A58;" d="M72.392,58.653l4.934-0.001c0.168,0,0.275-0.136,0.24-0.304L76.743,52.6
											c-0.035-0.168-0.199-0.304-0.367-0.304l-4.934,0.001c-0.168,0-0.275,0.136-0.24,0.304l0.823,5.748
											C72.06,58.517,72.224,58.653,72.392,58.653z"/>
									</g>
								</g>
							</g>
						</g>
						<g>
							<g>
								<g>
									<g>
										<path style="fill:#424A58;" d="M63.802,58.689l4.934-0.001c0.168,0,0.275-0.136,0.24-0.304l-0.823-5.748
											c-0.035-0.168-0.199-0.304-0.367-0.304l-4.934,0.001c-0.168,0-0.275,0.136-0.24,0.304l0.823,5.748
											C63.47,58.553,63.635,58.689,63.802,58.689z"/>
									</g>
								</g>
							</g>
						</g>
						<g>
							<g>
								<g>
									<g>
										<path style="fill:#424A58;" d="M82.292,67.61l4.934-0.001c0.168,0,0.275-0.136,0.24-0.304l-0.823-5.748
											c-0.035-0.168-0.199-0.304-0.367-0.304l-4.934,0.001c-0.168,0-0.275,0.136-0.24,0.304l0.823,5.748
											C81.96,67.474,82.124,67.61,82.292,67.61z"/>
									</g>
								</g>
							</g>
						</g>
						<g>
							<g>
								<g>
									<g>
										<path style="fill:#424A58;" d="M77.144,76.55l11.184-0.002c0.168,0,0.275-0.136,0.24-0.304l-0.823-5.748
											c-0.035-0.168-0.199-0.304-0.367-0.304l-11.184,0.002c-0.168,0-0.275,0.136-0.24,0.304l0.823,5.748
											C76.812,76.414,76.976,76.55,77.144,76.55z"/>
									</g>
								</g>
							</g>
						</g>
						<g>
							<g>
								<g>
									<g>
										<path style="fill:#424A58;" d="M73.702,67.646l4.934-0.001c0.168,0,0.275-0.136,0.24-0.304l-0.823-5.748
											c-0.035-0.168-0.199-0.304-0.367-0.304l-4.934,0.001c-0.168,0-0.275,0.136-0.24,0.304l0.823,5.748
											C73.37,67.51,73.535,67.646,73.702,67.646z"/>
									</g>
								</g>
							</g>
						</g>
						<g>
							<g>
								<g>
									<g>
										<path style="fill:#424A58;" d="M65.113,67.681l4.934-0.001c0.168,0,0.275-0.136,0.24-0.304l-0.823-5.748
											c-0.035-0.168-0.199-0.304-0.367-0.304l-4.934,0.001c-0.168,0-0.275,0.136-0.24,0.304l0.823,5.748
											C64.781,67.545,64.945,67.681,65.113,67.681z"/>
									</g>
								</g>
							</g>
						</g>
						<g>
							<g>
								<g>
									<g>
										<path style="fill:#E9B947;" d="M66.489,76.4l8.492-0.002c0.168,0,0.275-0.136,0.24-0.304l-0.823-5.748
											c-0.035-0.168-0.199-0.304-0.367-0.304l-8.492,0.002c-0.168,0-0.275,0.136-0.24,0.304l0.823,5.748
											C66.157,76.264,66.322,76.4,66.489,76.4z"/>
									</g>
								</g>
							</g>
						</g>
						<g>
							<g>
								<g>
									<path style="fill:#424A58;" d="M52.463,37.213l30.175-0.007c0.437,0,0.718-0.355,0.627-0.792l-0.718-5.025
										c-0.091-0.437-0.52-0.792-0.957-0.792l-30.175,0.007c-0.437,0-0.718,0.355-0.627,0.792l0.719,5.025
										C51.597,36.859,52.026,37.213,52.463,37.213z"/>
								</g>
							</g>
						</g>
						<g>
							<g>
								<g>
									<path style="fill:#424A58;" d="M52.664,40.56l11.22-0.002c0.163,0,0.267-0.132,0.233-0.294l-0.267-1.868
										c-0.034-0.163-0.193-0.294-0.356-0.294l-11.22,0.002c-0.163,0-0.267,0.132-0.233,0.294l0.267,1.868
										C52.342,40.428,52.501,40.56,52.664,40.56z"/>
								</g>
							</g>
						</g>
						<g>
							<g>
								<g>
									<path style="fill:#424A58;" d="M56.311,64.242c0.177,1.763,1.246,3.291,2.388,3.411c1.142,0.121,1.924-1.211,1.747-2.974
										c-0.177-1.763-1.246-3.291-2.388-3.411C56.916,61.147,56.134,62.478,56.311,64.242z"/>
								</g>
							</g>
						</g>
					</g>
					<g>
						<g>
							<g>
								<path style="fill:#FFFFFF;" d="M71.599,45.44c-0.022-0.183,0.007-0.356,0.087-0.518c0.08-0.162,0.211-0.292,0.393-0.389
									c0.182-0.097,0.401-0.146,0.66-0.146c0.218,0,0.413,0.028,0.585,0.085c0.172,0.057,0.319,0.135,0.441,0.235
									c0.122,0.1,0.217,0.213,0.286,0.338c0.069,0.126,0.111,0.259,0.128,0.4c0.022,0.18-0.005,0.34-0.08,0.481
									c-0.076,0.141-0.199,0.257-0.372,0.346c0.163,0.06,0.302,0.14,0.416,0.238c0.115,0.098,0.206,0.212,0.274,0.341
									c0.068,0.129,0.111,0.273,0.131,0.43c0.028,0.231-0.003,0.44-0.092,0.628c-0.089,0.188-0.235,0.335-0.438,0.441
									c-0.203,0.106-0.452,0.159-0.745,0.16c-0.304,0-0.571-0.053-0.8-0.159c-0.229-0.106-0.41-0.252-0.542-0.438
									c-0.132-0.186-0.213-0.394-0.241-0.625c-0.06-0.493,0.132-0.831,0.575-1.014C71.867,46.097,71.645,45.82,71.599,45.44z
									 M73.791,47.259c-0.017-0.143-0.062-0.268-0.133-0.374c-0.072-0.106-0.164-0.188-0.277-0.245
									c-0.113-0.057-0.236-0.085-0.368-0.085c-0.187,0-0.336,0.062-0.447,0.187c-0.111,0.125-0.154,0.299-0.126,0.522
									c0.017,0.143,0.062,0.269,0.135,0.378s0.164,0.193,0.274,0.253c0.11,0.06,0.228,0.089,0.354,0.089
									c0.128,0,0.24-0.03,0.335-0.091c0.095-0.061,0.166-0.146,0.211-0.256C73.794,47.529,73.808,47.402,73.791,47.259z
									 M72.819,44.912c-0.172,0-0.305,0.054-0.397,0.161c-0.092,0.107-0.128,0.245-0.108,0.414
									c0.019,0.156,0.089,0.286,0.209,0.389c0.121,0.104,0.266,0.155,0.437,0.155c0.086,0,0.163-0.014,0.23-0.041
									c0.067-0.027,0.123-0.065,0.168-0.114c0.045-0.048,0.077-0.106,0.096-0.173c0.019-0.067,0.024-0.141,0.014-0.221
									c-0.013-0.108-0.049-0.205-0.108-0.291c-0.059-0.086-0.135-0.154-0.229-0.203C73.036,44.937,72.932,44.912,72.819,44.912z"
									/>
							</g>
						</g>
					</g>
					<g>
						<g>
							<g>
								<path style="fill:#FFFFFF;" d="M66.684,66.052l-0.303-2.501c-0.422,0.357-0.714,0.536-0.875,0.536
									c-0.077,0-0.149-0.031-0.216-0.092c-0.067-0.061-0.105-0.132-0.115-0.213c-0.011-0.094,0.01-0.162,0.063-0.206
									c0.053-0.044,0.15-0.101,0.29-0.171c0.209-0.104,0.373-0.215,0.492-0.33c0.119-0.115,0.221-0.245,0.306-0.388
									c0.085-0.143,0.141-0.231,0.169-0.264c0.027-0.033,0.084-0.049,0.17-0.05c0.097,0,0.18,0.038,0.248,0.113
									c0.068,0.075,0.11,0.179,0.126,0.311l0.382,3.147c0.045,0.368-0.059,0.552-0.31,0.553c-0.112,0-0.206-0.037-0.283-0.113
									C66.75,66.309,66.702,66.198,66.684,66.052z"/>
							</g>
						</g>
					</g>
					<g>
						<g>
							<g>
								<path style="fill:#FFFFFF;" d="M75.107,65.812l1.435,0c0.143,0,0.256,0.029,0.338,0.088
									c0.082,0.059,0.129,0.138,0.142,0.239c0.011,0.09-0.01,0.166-0.061,0.228c-0.052,0.062-0.138,0.093-0.259,0.093l-2.023,0
									c-0.138,0-0.249-0.038-0.336-0.114c-0.086-0.076-0.135-0.165-0.148-0.268c-0.008-0.066,0.006-0.153,0.042-0.262
									c0.036-0.109,0.08-0.195,0.131-0.257c0.213-0.253,0.407-0.47,0.581-0.65c0.174-0.181,0.3-0.299,0.377-0.356
									c0.138-0.106,0.249-0.213,0.337-0.32c0.087-0.107,0.149-0.217,0.188-0.33c0.038-0.113,0.051-0.223,0.038-0.331
									c-0.014-0.117-0.055-0.222-0.122-0.315c-0.067-0.092-0.152-0.164-0.254-0.216c-0.102-0.051-0.21-0.077-0.324-0.077
									c-0.24,0-0.416,0.105-0.528,0.316c-0.015,0.027-0.037,0.103-0.065,0.225c-0.028,0.123-0.065,0.217-0.111,0.283
									c-0.046,0.066-0.121,0.099-0.226,0.099c-0.092,0-0.171-0.03-0.239-0.091c-0.068-0.06-0.108-0.143-0.121-0.247
									c-0.015-0.126-0.003-0.258,0.037-0.396c0.04-0.138,0.11-0.262,0.209-0.374c0.099-0.112,0.231-0.202,0.396-0.271
									c0.165-0.069,0.364-0.103,0.596-0.103c0.28,0,0.525,0.044,0.733,0.132c0.136,0.059,0.258,0.139,0.367,0.242
									c0.11,0.103,0.2,0.221,0.27,0.356c0.07,0.135,0.114,0.275,0.132,0.419c0.028,0.227-0.004,0.434-0.094,0.62
									c-0.09,0.186-0.187,0.332-0.292,0.437c-0.104,0.105-0.281,0.271-0.529,0.496c-0.249,0.225-0.416,0.4-0.504,0.525
									C75.182,65.683,75.144,65.742,75.107,65.812z"/>
							</g>
						</g>
					</g>
					<g>
						<g>
							<g>
								<path style="fill:#FFFFFF;" d="M65.951,57.286l-0.062-0.511l-1.38,0c-0.174,0-0.309-0.039-0.406-0.118
									c-0.097-0.079-0.153-0.186-0.169-0.322c-0.004-0.035-0.002-0.07,0.006-0.106c0.008-0.036,0.023-0.073,0.044-0.113
									c0.021-0.039,0.043-0.077,0.066-0.114c0.023-0.037,0.051-0.082,0.085-0.135l1.22-1.949c0.08-0.128,0.147-0.221,0.201-0.279
									c0.054-0.058,0.125-0.087,0.211-0.087c0.279,0,0.437,0.159,0.476,0.478l0.258,2.127h0.118c0.141,0,0.257,0.019,0.347,0.058
									c0.09,0.038,0.143,0.123,0.159,0.253c0.013,0.106-0.013,0.184-0.076,0.232c-0.064,0.049-0.165,0.073-0.305,0.073l-0.168,0
									l0.062,0.511c0.017,0.141-0.001,0.246-0.055,0.315c-0.054,0.069-0.133,0.103-0.238,0.103c-0.102,0-0.19-0.035-0.262-0.106
									C66.011,57.528,65.967,57.424,65.951,57.286z M64.632,56.16l1.182,0l-0.194-1.597L64.632,56.16z"/>
							</g>
						</g>
					</g>
					<g>
						<g>
							<g>
								<path style="fill:#FFFFFF;" d="M74.929,54.122l-1.306,0l-0.049,0.891c0.243-0.139,0.475-0.209,0.695-0.209
									c0.176,0,0.344,0.033,0.505,0.099c0.161,0.066,0.306,0.157,0.436,0.273c0.129,0.116,0.237,0.254,0.322,0.414
									c0.085,0.159,0.139,0.331,0.161,0.514c0.032,0.266,0.002,0.508-0.09,0.726c-0.093,0.218-0.244,0.391-0.452,0.52
									c-0.209,0.128-0.46,0.192-0.753,0.192c-0.328,0-0.602-0.06-0.82-0.181c-0.219-0.121-0.381-0.26-0.485-0.416
									c-0.104-0.157-0.163-0.294-0.178-0.411c-0.009-0.072,0.013-0.139,0.065-0.204c0.052-0.064,0.122-0.096,0.212-0.096
									c0.154,0,0.279,0.089,0.376,0.267c0.093,0.163,0.207,0.29,0.343,0.381c0.136,0.091,0.28,0.136,0.434,0.136
									c0.141,0,0.26-0.037,0.358-0.11c0.097-0.073,0.167-0.174,0.209-0.302c0.042-0.128,0.053-0.274,0.034-0.437
									c-0.021-0.176-0.071-0.326-0.148-0.451c-0.077-0.125-0.172-0.218-0.284-0.279c-0.112-0.061-0.232-0.092-0.36-0.092
									c-0.158,0-0.268,0.019-0.331,0.058c-0.063,0.039-0.152,0.106-0.268,0.202c-0.116,0.096-0.215,0.144-0.297,0.144
									c-0.09,0-0.173-0.032-0.251-0.098c-0.078-0.065-0.121-0.139-0.131-0.221c-0.001-0.009,0.001-0.071,0.008-0.187l0.071-1.317
									c0.006-0.158,0.04-0.272,0.101-0.344c0.061-0.072,0.17-0.107,0.328-0.107l1.451,0c0.286,0,0.442,0.109,0.468,0.327
									c0.012,0.095-0.014,0.172-0.076,0.231C75.163,54.093,75.064,54.122,74.929,54.122z"/>
							</g>
						</g>
					</g>
					<g>
						<g>
							<g>
								<path style="fill:#FFFFFF;" d="M63.197,44.607l1.831,0c0.176,0,0.307,0.028,0.392,0.082
									c0.085,0.055,0.136,0.146,0.151,0.272c0.009,0.077-0.025,0.179-0.102,0.305c-0.077,0.127-0.166,0.266-0.265,0.419
									c-0.1,0.153-0.198,0.343-0.296,0.57c-0.098,0.227-0.179,0.505-0.244,0.833c-0.027,0.145-0.043,0.265-0.05,0.36
									c-0.007,0.095-0.012,0.219-0.015,0.371c-0.004,0.152-0.009,0.268-0.015,0.349c-0.016,0.187-0.054,0.317-0.116,0.389
									c-0.062,0.072-0.151,0.109-0.269,0.109c-0.112,0-0.206-0.039-0.283-0.117c-0.077-0.078-0.125-0.193-0.143-0.345
									c-0.014-0.117-0.009-0.277,0.016-0.478c0.025-0.202,0.076-0.443,0.154-0.724c0.078-0.281,0.182-0.57,0.314-0.866
									c0.132-0.296,0.295-0.591,0.491-0.884l-1.471,0c-0.154,0-0.272-0.028-0.355-0.084c-0.083-0.056-0.132-0.143-0.146-0.263
									c-0.015-0.126,0.015-0.208,0.091-0.245C62.942,44.625,63.052,44.607,63.197,44.607z"/>
							</g>
						</g>
					</g>
					<g>
						<g>
							<g>
								<path style="fill:#FFFFFF;" d="M84.758,64.368c0.083-0.071,0.157-0.16,0.222-0.267c0.113-0.186,0.151-0.415,0.114-0.682
									c-0.05-0.359-0.213-0.66-0.485-0.893c-0.271-0.232-0.641-0.35-1.1-0.35c-0.38,0-0.691,0.115-0.923,0.341
									c-0.207,0.202-0.297,0.521-0.267,0.949c0.005,0.077,0.044,0.154,0.105,0.212c0.061,0.057,0.141,0.09,0.219,0.09l0.259,0
									c0.143,0,0.248-0.108,0.245-0.251c-0.005-0.192,0.024-0.342,0.088-0.443c0.074-0.118,0.212-0.175,0.421-0.175
									c0.188,0,0.331,0.055,0.438,0.167c0.114,0.119,0.18,0.259,0.203,0.426c0.019,0.134,0.003,0.246-0.048,0.33
									c-0.05,0.084-0.127,0.139-0.236,0.168c-0.098,0.026-0.252,0.042-0.458,0.047c-0.152,0.004-0.258,0.13-0.237,0.282
									l0.026,0.189c0.021,0.154,0.165,0.28,0.322,0.28c0.351,0,0.616,0.066,0.786,0.195c0.167,0.127,0.261,0.284,0.288,0.482
									c0.026,0.19-0.014,0.342-0.124,0.465c-0.11,0.124-0.276,0.184-0.507,0.184c-0.254,0-0.461-0.075-0.633-0.228
									c-0.143-0.128-0.245-0.31-0.305-0.541c-0.036-0.142-0.171-0.249-0.314-0.249l-0.232,0c-0.078,0-0.149,0.033-0.194,0.09
									c-0.045,0.057-0.062,0.134-0.046,0.211c0.087,0.413,0.263,0.75,0.524,1.002c0.304,0.293,0.729,0.442,1.265,0.442
									c0.419,0,0.773-0.117,1.053-0.348c0.289-0.239,0.402-0.599,0.337-1.071C85.498,64.919,85.226,64.566,84.758,64.368z"/>
							</g>
						</g>
					</g>
					<g>
						<g>
							<g>
								<path style="fill:#FFFFFF;" d="M82.867,54.864c-0.327,0-0.611,0.109-0.847,0.323c-0.023-0.354,0.009-0.643,0.095-0.86
									c0.099-0.25,0.26-0.371,0.493-0.371c0.172,0,0.323,0.064,0.462,0.196c0.103,0.097,0.184,0.218,0.244,0.357
									c0.071,0.167,0.23,0.279,0.397,0.279h0.02c0.111,0,0.209-0.049,0.268-0.136c0.058-0.084,0.071-0.194,0.036-0.301
									c-0.09-0.271-0.232-0.508-0.424-0.705c-0.271-0.278-0.619-0.419-1.035-0.418c-0.527,0-0.905,0.221-1.125,0.656
									c-0.212,0.42-0.27,0.992-0.171,1.702c0.104,0.747,0.326,1.321,0.662,1.707c0.345,0.397,0.765,0.597,1.247,0.597
									c0.433,0,0.759-0.159,0.967-0.473c0.204-0.307,0.277-0.679,0.217-1.107c-0.06-0.434-0.238-0.787-0.528-1.05
									C83.554,54.997,83.225,54.864,82.867,54.864z M82.908,55.646c0.187,0,0.339,0.061,0.465,0.188
									c0.129,0.13,0.21,0.306,0.24,0.523c0.032,0.227-0.002,0.416-0.102,0.578c-0.094,0.152-0.242,0.226-0.451,0.226
									c-0.246,0-0.448-0.122-0.611-0.372c-0.28-0.427-0.173-0.971,0.267-1.113C82.778,55.657,82.842,55.646,82.908,55.646z"/>
							</g>
						</g>
					</g>
					<g>
						<g>
							<g>
								<path style="fill:#FFFFFF;" d="M82.582,44.681c-0.344-0.397-0.763-0.598-1.246-0.597c-0.436,0-0.762,0.159-0.97,0.473
									c-0.204,0.307-0.277,0.679-0.217,1.108c0.059,0.427,0.234,0.778,0.518,1.044c0.287,0.267,0.62,0.403,0.991,0.403
									c0.327,0,0.61-0.109,0.845-0.323c0.024,0.353-0.007,0.641-0.093,0.859c-0.099,0.251-0.261,0.372-0.496,0.372
									c-0.17,0-0.32-0.064-0.461-0.197c-0.104-0.099-0.188-0.221-0.247-0.363c-0.067-0.161-0.233-0.273-0.402-0.273
									c-0.115,0-0.216,0.051-0.277,0.141c-0.059,0.087-0.072,0.2-0.035,0.309c0.09,0.266,0.232,0.499,0.422,0.692
									c0.272,0.278,0.62,0.418,1.034,0.418c0.529,0,0.908-0.221,1.127-0.656c0.211-0.42,0.268-0.992,0.17-1.702
									C83.139,45.641,82.917,45.067,82.582,44.681z M81.617,46.328c-0.2,0-0.355-0.063-0.475-0.193
									c-0.127-0.138-0.204-0.308-0.233-0.518c-0.032-0.233,0.002-0.423,0.105-0.581c0.098-0.15,0.244-0.223,0.448-0.223
									c0.247,0,0.451,0.122,0.613,0.37c0.28,0.427,0.173,0.972-0.267,1.115C81.746,46.318,81.682,46.328,81.617,46.328z"/>
							</g>
						</g>
					</g>
				</g>
			</g>
			<g>
				<path style="fill:#EE8277;" d="M96.502,42.41l0.031,4.029c0.043,0.533-1.162,1.909-2.048,1.24
					c-0.259-0.196,0.009-0.93,0.199-1.485l0.671-3.591L96.502,42.41z"/>
			</g>
			<g>
				<path style="fill:#EE8277;" d="M96.677,40.556l0.066,1.272c0.052,1.008-0.664,1.878-1.645,1.889
					c-0.905,0.01-1.774-0.482-1.79-1.646c-0.014-1.035,0.845-1.966,1.148-2.381C95.147,38.741,96.497,39.093,96.677,40.556z"/>
			</g>
			<g>
				<path style="fill:#424A58;" d="M96.339,39.532c0,0,0.268,1.517,0.104,3.964c-0.146,1.127,0.284,3.012,0.284,3.012
					s2.393-1.179,2.438-4.01c-0.074-5.002-1.899-4.34-3.013-4.193C95.959,38.959,96.339,39.532,96.339,39.532z"/>
			</g>
			<g>
				<path style="fill:#E5F1F4;" d="M93.933,41.748c0,0,0.792,0.356,1.237,0.389c0,0-0.378,0.247-0.807,0.174
					C93.935,42.238,93.933,41.748,93.933,41.748z"/>
			</g>
			<g>
				<g>
					<path style="fill:#BE3A56;" d="M116.862,136.629c-0.062,0-0.117-0.044-0.129-0.107c-0.029-0.155-2.881-15.549-3.42-18.636
						c-0.233-1.334-1.352-6.238-2.536-11.43c-1.599-7.011-3.412-14.957-3.611-16.578c-0.335-2.723-1.747-9.775-2.211-12.092
						l-0.048-0.239c-0.421-2.103-1.516-6.233-1.527-6.274c-0.019-0.07,0.023-0.142,0.093-0.16c0.07-0.018,0.142,0.023,0.16,0.093
						c0.011,0.042,1.108,4.18,1.531,6.29l0.048,0.239c0.465,2.32,1.878,9.379,2.214,12.111c0.198,1.608,2.008,9.547,3.606,16.552
						c1.185,5.195,2.304,10.102,2.538,11.443c0.539,3.086,3.391,18.478,3.419,18.633c0.013,0.071-0.034,0.14-0.105,0.153
						C116.878,136.629,116.869,136.629,116.862,136.629z"/>
				</g>
			</g>
			<g>
				<path style="fill:#EE8277;" d="M102.333,51.277c0.742-2.126-1.546-3.65-3.644-2.301c-2.943,1.891-6.453,12.794-8.321,13.778
					c-1.915,1.009-16.352-3.083-17.711-1.723c-1.387,1.387,8.7,10.119,16.45,9.165C98.048,69.095,100.986,55.132,102.333,51.277z"/>
			</g>
			<g>
				<path style="fill:#EE8277;" d="M94.269,45.996c0,0,0.149-0.149,0.966,0c0.818,0.149,1.503,0.224,2.393,0.484
					c0.89,0.26,0.572,1.313,0,1.716c-0.572,0.403-4.14,3.873-5.181,3.279C91.407,50.879,92.949,46.684,94.269,45.996z"/>
			</g>
			<g>
				<g>
					<path style="fill:#BF6A65;" d="M88.359,63.679c-0.003-0.01-0.006-0.021-0.008-0.032c-0.027-0.142,0.066-0.279,0.208-0.307
						c0.503-0.097,1.861-0.492,2.095-1.147c0.049-0.136,0.199-0.207,0.335-0.159c0.137,0.049,0.207,0.199,0.159,0.335
						c-0.376,1.053-2.275,1.445-2.49,1.486C88.527,63.88,88.399,63.803,88.359,63.679z"/>
				</g>
			</g>
			<g>
				<g>
					<path style="fill:#BE3A56;" d="M90.961,136.015c-0.003,0-0.006,0-0.008,0c-0.072-0.005-0.127-0.067-0.122-0.139
						c0.013-0.198,1.27-19.875,1.27-22.026c0-0.583,0.038-1.634,0.087-2.965c0.135-3.701,0.339-9.293,0.013-12.484
						c-0.442-4.321-0.005-14.046,0-14.144c0.003-0.072,0.066-0.128,0.137-0.125c0.072,0.003,0.128,0.065,0.125,0.137
						c-0.004,0.098-0.441,9.804,0,14.105c0.328,3.21,0.124,8.813-0.012,12.521c-0.049,1.328-0.087,2.377-0.087,2.955
						c0,2.16-1.257,21.844-1.27,22.043C91.087,135.962,91.029,136.015,90.961,136.015z"/>
				</g>
			</g>
			<g>
				<g>
					<path style="fill:#BF6A65;" d="M94.525,41.668c-0.006,0-0.011-0.001-0.017-0.002c-0.263-0.071-0.291-0.316-0.292-0.327
						c-0.004-0.036,0.023-0.068,0.059-0.072c0.035-0.004,0.068,0.022,0.072,0.058c0.001,0.008,0.022,0.167,0.196,0.214
						c0.035,0.01,0.056,0.045,0.046,0.08C94.581,41.649,94.554,41.668,94.525,41.668z"/>
				</g>
			</g>
			<g>
				<path style="fill:#BF6A65;" d="M96.296,43.266c-0.317,0.082-1.644,0.208-2.315-0.18c-0.375-0.216-0.559-0.518-0.649-0.743
					c0.139,0.968,0.936,1.383,1.767,1.373c0.017,0,0.032-0.003,0.049-0.003l-0.213,1.143C95.681,44.863,96.607,43.186,96.296,43.266
					z"/>
			</g>
			<g>
				<path style="fill:#424A58;" d="M94.17,39.863c0,0,0.519-0.026,0.596,0.04c0.076,0.066-0.005,0.104-0.142,0.098
					c-0.137-0.005-0.462,0.039-0.496,0.001C94.093,39.962,94.17,39.863,94.17,39.863z"/>
			</g>
			<g>
				<path style="fill:#424A58;" d="M96.099,40.476c0,0-0.474-0.326-0.585-0.308c-0.11,0.017-0.055,0.101,0.077,0.175
					c0.132,0.074,0.412,0.305,0.468,0.289C96.114,40.615,96.099,40.476,96.099,40.476z"/>
			</g>
			<path style="fill:#EE8277;" d="M75.172,60.869c0,0-3.466-1.601-4.307-1.699c-0.842-0.098-2.217-0.335-2.276-0.126
				c-0.059,0.209,1.782,0.734,1.782,0.734s-0.403,1.287-0.052,1.821c0.351,0.535,0.897,0.397,0.897,0.397s2.028,1.24,3.177,0.655
				C75.542,62.066,75.172,60.869,75.172,60.869z"/>
		</g>
		<g>
			
				<ellipse transform="matrix(0.9285 -0.3712 0.3712 0.9285 0.5505 47.1865)" style="fill:#5CB5BC;" cx="122.841" cy="22.163" rx="23.947" ry="21.858"/>
			<g>
				<g>
					<g>
						<path style="fill:#F7D168;" d="M131.959,17.903l-0.419,0.147c0.656-0.23,1.005-0.955,0.775-1.612l-0.3-0.855
							c-0.23-0.656-0.955-1.005-1.612-0.775l-4.896,1.716c-0.048,0.017-0.094,0.037-0.139,0.059
							c-0.865,0.308-2.057,0.721-2.339,0.754c-0.332,0.039-0.82-0.62-0.829-0.967c0,0,0.103-2.678-0.088-3.69
							c-0.413-2.182-1.443-3.476-2.314-3.479c-1.305-0.005-1.539,0.321-1.341,1.31c0.162,0.813,0.628,1.94,0.492,3.277
							c-0.093,0.913-1.035,1.895-1.465,5.647c-0.05,0.433-0.2,2.053-0.634,2.636c-1.014,1.361-5.908,3.025-5.908,3.025l3.455,7.898
							c0,0,3.8-1.367,5.016-1.691c0.673-0.18,3.122-0.036,4.173-0.404c1.379-0.483,3.9-1.367,5.645-1.978
							c1.101-0.386,1.893-0.663,1.893-0.663l2.269-0.795c0.502-0.176,0.768-0.73,0.592-1.232l-0.229-0.653
							c-0.176-0.502-0.73-0.768-1.232-0.593l1.162-0.407c0.656-0.23,1.005-0.955,0.775-1.612l-0.3-0.855
							c-0.23-0.656-0.955-1.005-1.612-0.775l0.543-0.19c0.656-0.23,1.005-0.955,0.775-1.612l-0.3-0.855
							C133.34,18.022,132.615,17.673,131.959,17.903z"/>
					</g>
				</g>
				<g>
					<g>
						
							<rect x="112.371" y="23.489" transform="matrix(0.9406 -0.3395 0.3395 0.9406 -2.8642 40.7671)" style="fill:#404858;" width="5.444" height="10.163"/>
					</g>
				</g>
				<g>
					<g>
						<g>
							<path style="fill:#FFFFFF;" d="M116.114,31.959c0.311,0.414,0.899,0.496,1.312,0.185c0.413-0.311,0.496-0.899,0.185-1.312
								c-0.311-0.413-0.899-0.496-1.312-0.185C115.886,30.958,115.803,31.546,116.114,31.959z"/>
						</g>
					</g>
				</g>
			</g>
			<polygon style="fill:#5CB5BC;" points="104.992,22.575 95.747,35.89 109.204,31.968 			"/>
		</g>
	</g>
</g>
</svg>
