<?xml version="1.0" encoding="iso-8859-1"?>
<!-- Generator: Adobe Illustrator 29.6.1, SVG Export Plug-In . SVG Version: 9.03 Build 0)  -->
<svg version="1.1" id="&#xB808;&#xC774;&#xC5B4;_3" xmlns="http://www.w3.org/2000/svg" xmlns:xlink="http://www.w3.org/1999/xlink"
	 x="0px" y="0px" viewBox="0 0 156.533 148.191" style="enable-background:new 0 0 156.533 148.191;" xml:space="preserve">
<g>
	<g>
		<path style="fill:#AED1DA;" d="M4.609,134.51c0,0-3.093,0.437-3.35,2.582c-0.257,2.145,43.296,7.065,47.337,7.913
			c4.041,0.848,15.063,0.578,21.431,0.578c6.368,0,81.502-0.211,83.405-0.578c1.904-0.367,4.792-2.803-5.918-3.181
			C144.701,141.725,4.609,134.51,4.609,134.51z"/>
	</g>
	<g>
		<path style="fill:#424A58;" d="M101.164,132.939H3.328L2.703,68.652c0-2.102,1.704-3.806,3.806-3.806h90.225
			c2.102,0,3.806,1.704,3.806,3.806L101.164,132.939z"/>
	</g>
	<g>
		<polygon style="fill:#5492CE;" points="97.896,129.671 6.595,129.671 5.971,68.114 97.271,68.114 		"/>
	</g>
	<g>
		<path style="fill:#424A58;" d="M52.839,140.686L52.839,140.686l-49.511-7.747v1.519c0,1.134,0.903,2.123,2.036,2.154l46.92,6.674
			c0.369,0.076,0.745,0.115,1.121,0.115h94.623c1.462,0,2.647-1.248,2.647-2.71v-0.005H52.839z"/>
	</g>
	<g>
		<polygon style="fill:#526488;" points="3.328,132.939 52.839,140.686 150.675,140.686 101.164,132.939 		"/>
	</g>
	<g>
		<g>
			<polygon style="fill:#35333D;" points="123.281,137.305 100.482,135.228 23.61,135.228 46.409,137.305 			"/>
		</g>
	</g>
	<g>
		<g>
			<defs>
				<polygon id="SVGID_1_" points="91.656,129.95 10.088,129.95 9.53,69.715 91.017,60.38 				"/>
			</defs>
			<clipPath id="SVGID_00000087404462820586957500000017331870927055537560_">
				<use xlink:href="#SVGID_1_"  style="overflow:visible;"/>
			</clipPath>
			<path style="clip-path:url(#SVGID_00000087404462820586957500000017331870927055537560_);fill:#C33E5A;" d="M73.546,99.704
				c0.09,0.817,0.141,1.644,0.141,2.481c0,12.132-9.87,22.002-22.002,22.002c-12.132,0-22.002-9.87-22.002-22.002
				c0-12.132,9.87-22.002,22.002-22.002c3.623,0,7.092,0.857,10.215,2.503l-3.859,4.299l9.316-0.261l9.317-0.261l-0.743-9.291
				l-0.202-2.53H29.842c-1.049,0.834-2.055,1.729-3.012,2.687c-3.226,3.226-5.76,6.985-7.531,11.171
				c-1.835,4.338-2.765,8.942-2.765,13.685s0.93,9.347,2.765,13.685c1.771,4.187,4.304,7.945,7.531,11.171
				c0.926,0.926,1.898,1.794,2.91,2.604h43.892c1.012-0.811,1.983-1.678,2.91-2.604c3.226-3.226,5.76-6.985,7.531-11.171
				c1.835-4.338,2.765-8.942,2.765-13.685c0-2.117-0.194-4.228-0.572-6.303L73.546,99.704z"/>
			<path style="clip-path:url(#SVGID_00000087404462820586957500000017331870927055537560_);fill:#F6E568;" d="M74.257,97.888
				c0.06,0.667,0.1,1.339,0.1,2.019c0,12.132-9.87,22.002-22.002,22.002c-12.132,0-22.002-9.87-22.002-22.002
				c0-12.132,9.87-22.002,22.002-22.002c3.623,0,7.092,0.857,10.215,2.503l-3.859,4.299l9.317-0.261l9.317-0.261l-0.743-9.291
				l-0.743-9.29l-4.338,4.833c-2.305-1.502-4.773-2.727-7.372-3.653c-3.781-1.346-7.749-2.029-11.793-2.029
				c-4.743,0-9.347,0.93-13.684,2.765c-4.187,1.771-7.945,4.304-11.171,7.53c-3.226,3.226-5.76,6.985-7.531,11.171
				c-1.835,4.338-2.765,8.942-2.765,13.684c0,4.743,0.93,9.347,2.765,13.685c1.771,4.187,4.304,7.945,7.531,11.171
				c3.226,3.226,6.985,5.76,11.171,7.531c4.338,1.835,8.942,2.765,13.684,2.765c4.742,0,9.347-0.93,13.685-2.765
				c4.187-1.771,7.945-4.304,11.171-7.531c3.226-3.226,5.76-6.985,7.531-11.171c1.835-4.338,2.765-8.942,2.765-13.685
				c0-1.963-0.177-3.92-0.503-5.85L74.257,97.888z"/>
		</g>
		<g>
			<g>
				<path style="fill:#FFFFFF;" d="M22.212,90.823c-0.096,0-0.193-0.019-0.287-0.058c-0.379-0.159-0.558-0.595-0.399-0.975
					c0.473-1.13,0.984-2.235,1.519-3.286c0.186-0.366,0.635-0.513,1.001-0.326c0.367,0.187,0.512,0.635,0.326,1.001
					c-0.518,1.018-1.013,2.09-1.473,3.186C22.779,90.651,22.503,90.823,22.212,90.823z"/>
			</g>
		</g>
		<g>
			<g>
				<path style="fill:#FFFFFF;" d="M25.389,84.58c-0.133,0-0.267-0.035-0.389-0.11c-0.351-0.215-0.46-0.674-0.245-1.024
					c3.615-5.886,7.71-9.198,10.508-10.941c3.066-1.909,5.27-2.408,5.362-2.428c0.402-0.088,0.799,0.166,0.887,0.568
					c0.088,0.401-0.165,0.798-0.566,0.887c-0.035,0.008-2.109,0.49-4.963,2.28c-2.643,1.658-6.517,4.81-9.958,10.414
					C25.884,84.453,25.64,84.58,25.389,84.58z"/>
			</g>
		</g>
		<g>
			<g>
				<path style="fill:#FFFFFF;" d="M80.835,114.964c-0.098-0.01-0.196-0.039-0.288-0.09c-0.36-0.199-0.49-0.652-0.291-1.012
					c3.762-6.8,3.132-15.73,3.126-15.819c-0.031-0.41,0.276-0.768,0.686-0.799c0.411-0.031,0.768,0.276,0.799,0.686
					c0.029,0.383,0.668,9.468-3.308,16.653C81.411,114.851,81.121,114.992,80.835,114.964z"/>
			</g>
		</g>
	</g>
	<g>
		<g>
			<g style="opacity:0.5;">
				<polygon style="fill:#040000;" points="126.897,67.282 120.664,41.438 99.705,54.786 107.411,58.275 				"/>
				<path style="fill:#040000;" d="M120.553,62.403l-0.031,0.079l-0.021,0.049l-0.038,0.089l-0.068,0.154l-0.13,0.283
					c-0.085,0.18-0.168,0.356-0.251,0.524c-0.166,0.341-0.332,0.665-0.5,0.988c-0.335,0.642-0.676,1.262-1.023,1.874
					c-0.348,0.609-0.701,1.211-1.062,1.802c-0.36,0.592-0.729,1.175-1.101,1.753l-12.458-6.771c0.22-0.52,0.436-1.04,0.641-1.56
					c0.206-0.52,0.401-1.04,0.589-1.557c0.185-0.517,0.361-1.032,0.521-1.535c0.079-0.251,0.156-0.501,0.224-0.738
					c0.035-0.121,0.066-0.235,0.095-0.345l0.02-0.08l0.01-0.04l0.007-0.034c0.004-0.021,0.011-0.049,0.014-0.065l0.002-0.02
					c0-0.001,0.002-0.011,0-0.006l-0.011,0.024L120.553,62.403z"/>
				<path style="fill:#040000;" d="M114.151,73.189c-3.175,4.415-6.738,8.475-10.63,12.151l-8.19-7.415
					c1.395-1.859,2.697-3.776,3.901-5.744c1.203-1.967,2.308-3.985,3.306-6.035L114.151,73.189z"/>
				<path style="fill:#040000;" d="M100.713,87.868c-1.012,0.87-2.043,1.714-3.093,2.531c-1.048,0.816-2.124,1.608-3.2,2.364
					c-2.151,1.515-4.366,2.935-6.642,4.246l-4.494-6.554c1.832-1.508,3.59-3.1,5.275-4.765c0.843-0.832,1.648-1.673,2.438-2.538
					c0.788-0.864,1.554-1.746,2.297-2.644L100.713,87.868z"/>
				<path style="fill:#040000;" d="M84.519,98.786c-4.664,2.402-9.571,4.326-14.623,5.593l-1.561-4.63
					c4.392-1.917,8.502-4.383,12.307-7.224L84.519,98.786z"/>
				<path style="fill:#040000;" d="M66.305,105.163c-2.552,0.474-5.127,0.773-7.698,0.883c-2.571,0.11-5.138,0.03-7.668-0.242
					l0.047-1.824c2.449-0.143,4.872-0.472,7.245-0.974c2.373-0.501,4.696-1.174,6.955-1.997L66.305,105.163z"/>
				<path style="fill:#040000;" d="M47.388,105.292c-2.495-0.452-4.939-1.092-7.307-1.904c2.47,0.411,4.956,0.635,7.428,0.669
					L47.388,105.292z"/>
			</g>
			<g>
				<g>
					<g>
						<polygon style="fill:#EB5F4B;" points="125.093,66.38 118.86,40.536 97.901,53.884 105.607,57.373 						"/>
					</g>
					<g>
						<g>
							<path style="fill:#EB5F4B;" d="M118.749,61.501l-0.031,0.079l-0.021,0.049l-0.038,0.089l-0.068,0.154l-0.13,0.283
								c-0.085,0.18-0.168,0.356-0.251,0.524c-0.166,0.341-0.332,0.665-0.5,0.988c-0.335,0.642-0.676,1.262-1.023,1.874
								c-0.348,0.609-0.701,1.211-1.062,1.802c-0.36,0.592-0.729,1.175-1.101,1.753l-12.458-6.771c0.22-0.52,0.436-1.04,0.641-1.56
								c0.206-0.52,0.401-1.04,0.589-1.557c0.185-0.517,0.361-1.032,0.521-1.535c0.079-0.251,0.156-0.501,0.224-0.738
								c0.035-0.121,0.066-0.235,0.095-0.345l0.02-0.08l0.01-0.04l0.007-0.034c0.004-0.021,0.011-0.049,0.014-0.065l0.002-0.02
								c0-0.001,0.002-0.011,0-0.006l-0.011,0.024L118.749,61.501z"/>
						</g>
						<g>
							<path style="fill:#EB5F4B;" d="M112.346,72.286c-3.175,4.415-6.738,8.475-10.63,12.151l-8.19-7.415
								c1.395-1.859,2.697-3.776,3.901-5.744c1.203-1.967,2.308-3.985,3.306-6.035L112.346,72.286z"/>
						</g>
						<g>
							<path style="fill:#EB5F4B;" d="M98.908,86.966c-1.012,0.87-2.043,1.714-3.093,2.531c-1.048,0.816-2.124,1.608-3.2,2.364
								c-2.151,1.515-4.366,2.935-6.642,4.246l-4.494-6.554c1.832-1.508,3.59-3.1,5.275-4.765c0.843-0.832,1.648-1.673,2.438-2.538
								c0.788-0.864,1.554-1.746,2.297-2.644L98.908,86.966z"/>
						</g>
						<g>
							<path style="fill:#E99E5B;" d="M82.714,97.884c-4.664,2.402-9.571,4.326-14.623,5.593l-1.561-4.63
								c4.392-1.917,8.502-4.383,12.307-7.224L82.714,97.884z"/>
						</g>
						<g>
							<path style="fill:#F6C959;" d="M64.501,104.261c-2.552,0.474-5.127,0.773-7.698,0.883c-2.571,0.11-5.138,0.03-7.668-0.242
								l0.047-1.824c2.449-0.143,4.872-0.472,7.245-0.974c2.373-0.501,4.696-1.174,6.955-1.997L64.501,104.261z"/>
						</g>
						<g>
							<path style="fill:#F6ED6B;" d="M45.583,104.39c-2.495-0.452-4.939-1.092-7.307-1.904c2.47,0.411,4.956,0.635,7.428,0.669
								L45.583,104.39z"/>
						</g>
					</g>
				</g>
			</g>
		</g>
		<g>
			<g>
				<path style="fill:#EE8277;" d="M110.377,22.992c0,0,0.068-0.939,0.797-1.578c0.729-0.639,1.299-2.145,2.057-1.785
					c0.758,0.359,0.725,0.553,0.725,0.553s1.684-0.712,1.908-0.232c0.225,0.479-0.01,0.666,0.011,0.964
					c0.021,0.298,0.077,0.578,0.027,0.824c-0.05,0.246-0.221,0.599-0.254,0.792c-0.033,0.193-2.318,1.149-3.849,1.473
					C110.27,24.326,110.377,22.992,110.377,22.992z"/>
			</g>
			<g>
				<path style="fill:#424A58;" d="M73.375,18.023c0,0,11.203,13.408,20.401,14.193c9.198,0.785,19.202-7.327,19.202-7.327
					s-0.42-2.384-2.479-3.977c0,0-12.394,5.204-16.216,4.54c-2.467-0.429-14.393-11.248-14.393-11.248L73.375,18.023z"/>
			</g>
			<g>
				<path style="fill:#EE8277;" d="M38.957,35.829c0,0,0.311,1.142,0.203,1.601c-0.108,0.459-0.687,1.073-1.179,1.173
					c-0.492,0.099-1.108-0.288-0.962-0.538C37.164,37.815,38.957,35.829,38.957,35.829z"/>
			</g>
			<g>
				<g>
					<g>
						<path style="fill:#424A58;" d="M38.435,40.19c-0.076,0.019-0.158,0.018-0.237-0.008c-0.225-0.073-0.347-0.315-0.274-0.54
							l0.403-1.233c-1.23-0.117-2.794-0.26-3.394-0.3c-0.091,0.293-0.227,0.852-0.326,1.327c-0.048,0.231-0.275,0.38-0.506,0.332
							c-0.231-0.048-0.38-0.275-0.332-0.506c0.004-0.017,0.088-0.423,0.192-0.841c0.207-0.836,0.311-1.09,0.603-1.163
							c0.089-0.022,0.21-0.053,4.377,0.35c0.129,0.012,0.246,0.083,0.317,0.192c0.071,0.109,0.089,0.244,0.049,0.367l-0.569,1.741
							C38.69,40.052,38.572,40.155,38.435,40.19z M34.703,38.098L34.703,38.098L34.703,38.098z"/>
					</g>
				</g>
			</g>
			<g>
				<g>
					<polygon style="fill:#7E625C;" points="21.99,52.244 41.066,56.228 45.843,40.918 26.688,38.393 					"/>
				</g>
			</g>
			<g>
				<g>
					<polygon style="fill:#634A45;" points="44.103,55.356 45.843,40.918 41.066,56.228 					"/>
				</g>
			</g>
			<g>
				<g>
					<polygon style="fill:#634A45;" points="23.355,48.221 42.691,51.02 42.852,50.503 23.529,47.706 					"/>
				</g>
			</g>
			<g>
				<path style="fill:#EE8277;" d="M38.786,34.416c0,0,0.442,0.673,0.279,1.487c-0.163,0.813-1.163,2.165-1.163,2.165
					s-0.448,1.339-0.85,1.131c-0.402-0.209-0.751-0.319-0.92-0.51c-0.169-0.191-0.353-0.352-0.447-0.545
					c-0.094-0.193-0.161-0.522-0.239-0.67c-0.078-0.148,0.978-1.986,1.848-3.002C38.166,33.454,38.786,34.416,38.786,34.416z"/>
			</g>
			<g>
				<g>
					<path style="fill:#424A58;" d="M102.626,71.945c-0.807-0.796-0.867-2.14-0.911-2.212c-0.191-0.314-1.424-0.411-1.376,0.596
						c0.094,1.984-1.934,0.845-1.573,1.349c1.073,1.498,2.104,4.561,2.692,4.249c1.253-0.666,6.858-3.248,6.578-3.969
						C107.867,71.525,103.162,72.475,102.626,71.945z"/>
				</g>
			</g>
			<g>
				<path style="fill:#424A58;" d="M44.386,94.323c0,0-1.92,2.554-1.521,4.905c0.537,3.17,0.968,4.25,0.249,4.407
					c-0.974,0.213-3.025-3.723-3.757-5.602c-0.733-1.879,1.089-4.145,2.188-4.95C42.645,92.277,44.386,94.323,44.386,94.323z"/>
			</g>
			<g>
				<path style="fill:#DDDDDD;" d="M90.032,41.449c-5.91-4.281-19.829-7.232-19.829-7.232s-2.312-1.358-5.814-0.509
					c-5.197,1.26-11.994,3.42-14.277,4.915c-0.105,8.847,1.915,25.118,0.701,28.631c-0.911,2.638-9.944,24.344-9.944,24.344
					s0.609,1.633,3.487,3.881c1.42,1.109,2.42,0.045,2.42,0.045s11.137-18.622,13.168-24.312c2.936-8.229,6.45-24.433,6.45-24.433
					s15.17,0.215,17.274,2.395c1.559,1.615,14.442,23.93,14.442,23.93l5.533-3.227C103.642,69.877,96.635,46.232,90.032,41.449z"/>
			</g>
			<g>
				<path style="fill:#424A58;" d="M63.957,35.23c0.411-0.17,0.868,2.183,1.278,2.018c3.888-1.567,6.675-2.899,6.675-2.899
					s-0.515-2.852,2.452-6.342c4.078-4.798,8.318-8.799,6.876-12.197C79.721,12.239,70.963,8.225,67.37,9.69
					c-6.864,2.798-16.957,16.915-18.793,23.603c-0.274,0.999-1.043,4.721-1.057,5.898c2.65-0.03,10.025,0.793,14.039-0.127
					C62.133,38.932,63.548,35.399,63.957,35.23z"/>
			</g>
			<g>
				<path style="fill:#FFFFFF;" d="M73.41,10.409c0,0-0.329-0.251-0.872,0.021c-0.543,0.272-2.52,7.774-3.518,10.604
					c-0.998,2.83-3.724,8.024-2.949,7.75c0.775-0.275,7.595-10.292,8.5-12.238c0.967-2.079,1.416-5.283,0.877-5.431
					C74.908,10.969,73.41,10.409,73.41,10.409z"/>
			</g>
			<g>
				<path style="fill:#424A58;" d="M68.377,9.501c0,0-19.003-1.548-25.504,5.005s-6.695,19.432-6.695,19.432
					s2.098,1.207,4.641,0.649c0,0,4.806-13.883,7.767-16.388c1.912-1.618,17.012-2.792,17.012-2.792L68.377,9.501z"/>
			</g>
			<g>
				<g>
					<path style="fill:#D3D3D3;" d="M78.056,5.657c0,0,0.715-1.625-0.565-2.149C77.249,1.7,75.48,2.877,74.717,3.923
						c-0.764,0.503-1.156,0.454-1.066,1.995c0.038,0.654,0.832,1.805,0.832,1.805S77.449,7.253,78.056,5.657z"/>
				</g>
			</g>
			<g>
				<g>
					<path style="fill:#EE8277;" d="M74.673,6.345l-2.023,3.995c-0.104,0.535,1.748,2.019,2.719,1.498
						c0.284-0.153,1.002-3.907,1.002-3.907L74.673,6.345z"/>
				</g>
			</g>
			<g>
				<path style="fill:#BF6A65;" d="M74.781,8.653c0,0,0.14,1.598,1.022,1.915c0.123-0.499,0.247-1.063,0.348-1.543L74.781,8.653z"/>
			</g>
			<g>
				<g>
					<path style="fill:#EE8277;" d="M74.858,5.795c0,0-0.101,2.896,0.655,3.111c0.604,0.171,0.997,0.177,1.773,0.092
						c0.647-0.07,0.986-0.686,0.996-1.533c0.013-1.098-0.287-2.114-0.478-2.648c-0.204-0.57-0.567-0.953-1.017-0.994
						C76.642,4.293,75.906,5.427,74.858,5.795z"/>
				</g>
			</g>
			<g>
				<g>
					<path style="fill:#D3D3D3;" d="M77.486,6.352c0,0,0.745-0.349,0.864,0.319c0.032,0.181,0.024,1.296,0.124,2.073
						c0.079,0.617-0.711,0.891-1.236,0.961c-0.525,0.07-1.783-0.139-2.09-0.485c-0.527-0.593-0.635-1.348-0.532-1.831
						c0.103-0.483,0.37-0.919,0.418-1.104s0.152-0.326,0.382-0.308c0.23,0.019,0.37,0.56,0.767,0.49
						C76.579,6.397,76.642,6.25,77.486,6.352z"/>
				</g>
			</g>
			<g>
				<g>
					<path style="fill:#FFFFFF;" d="M76.612,6.849c0,0,0.65,0.115,1.48-0.03c0,0-0.089,0.593-0.685,0.73
						C77.017,7.639,76.734,7.257,76.612,6.849z"/>
				</g>
			</g>
			<g>
				<g>
					<path style="fill:#EE8277;" d="M75.069,6.369c-0.057-0.126-0.174-0.554-0.202-0.692c-0.054-0.262-0.103-0.646-0.459-0.345
						c-0.516,0.437-0.102,1.508,0.296,1.535C74.899,6.88,75.212,6.687,75.069,6.369z"/>
				</g>
			</g>
			<g>
				<g>
					<path style="fill:#BF6A65;" d="M77.326,6.422c-0.041,0.009-0.084-0.011-0.103-0.051c-0.021-0.046-0.002-0.1,0.044-0.122
						c0.269-0.126,0.377-0.32,0.378-0.322c0.024-0.044,0.08-0.061,0.124-0.037s0.061,0.08,0.037,0.124
						c-0.006,0.01-0.139,0.25-0.461,0.401C77.339,6.419,77.332,6.421,77.326,6.422z"/>
				</g>
			</g>
			<g>
				<g>
					<path style="fill:#D3D3D3;" d="M76.22,5.086c-0.039,0.008-0.08-0.009-0.1-0.045c-0.024-0.044-0.008-0.1,0.036-0.125
						c0.012-0.007,0.308-0.169,0.539-0.163c0.051,0.001,0.091,0.043,0.089,0.094c-0.001,0.051-0.043,0.091-0.094,0.089
						c-0.152-0.004-0.374,0.1-0.446,0.14C76.237,5.081,76.229,5.084,76.22,5.086z"/>
				</g>
			</g>
			<g>
				<path style="fill:#E55B5A;" d="M74.011,12.17c0,0,0.143,0.733,0.178,0.813c0.035,0.079-1.472,1.942-2.901,3.283
					c-1.43,1.341-5.209,4.032-7.338,4.725c-2.129,0.693-6.194,0.888-6.194,0.888l-1.501,2.523l2.992,1.259
					c0,0,4.592-1.129,7.755-2.902c3.163-1.773,5.986-5.89,6.632-6.991c0.786-1.339,1.141-2.736,1.141-2.736s0.528-0.502,0.414-0.756
					c-0.113-0.254-0.443-0.408-0.659-0.36C74.314,11.963,74.011,12.17,74.011,12.17z"/>
			</g>
			<g>
				<g>
					<path style="fill:#D3D3D3;" d="M77.907,4.959c-0.022,0.005-0.045,0.002-0.066-0.011c-0.054-0.032-0.216-0.111-0.323-0.095
						c-0.05,0.007-0.096-0.028-0.104-0.078c-0.007-0.05,0.027-0.097,0.078-0.104c0.189-0.027,0.417,0.104,0.442,0.119
						c0.043,0.026,0.058,0.082,0.032,0.125C77.952,4.939,77.931,4.954,77.907,4.959z"/>
				</g>
			</g>
			<g>
				<path style="fill:#FFFFFF;" d="M74.628,11.539c0,0-1.311-0.979-1.487-1.332c-0.175-0.353-0.228-0.405-0.353-0.327
					c-0.125,0.077-0.315,0.618-0.41,0.9c-0.095,0.282,0.912,1.928,1.17,1.852c0.258-0.076,1.057-0.599,1.065-0.593
					c0.008,0.006,0.627,1.045,0.835,0.83c0.207-0.215,0.332-0.66,0.344-1.283c0.002-0.117-0.116-0.529-0.116-0.529L74.628,11.539z"
					/>
			</g>
			<g>
				<path style="fill:#C3C1C1;" d="M66.428,46.986c-0.02,0.005-0.04,0.006-0.061,0.004c-0.105-0.009-0.183-0.103-0.174-0.208
					c0.025-0.272,0.624-6.669,2.461-8.27c0.08-0.07,0.201-0.061,0.27,0.018c0.07,0.08,0.061,0.201-0.018,0.27
					c-1.722,1.501-2.325,7.951-2.331,8.016C66.567,46.901,66.506,46.968,66.428,46.986z"/>
			</g>
			<g>
				<path style="fill:#C3C1C1;" d="M67.275,42.106c-0.054,0.013-0.113,0.002-0.16-0.034c-0.084-0.064-0.101-0.184-0.037-0.268
					c0.039-0.051,0.955-1.254,1.917-2.005c0.084-0.065,0.204-0.05,0.269,0.033c0.065,0.083,0.05,0.204-0.033,0.269
					c-0.924,0.721-1.838,1.923-1.847,1.935C67.356,42.072,67.317,42.096,67.275,42.106z"/>
			</g>
			<g>
				<path style="fill:#272B30;" d="M79.093,22.691c-0.055,0.013-0.115,0.002-0.163-0.036c-0.083-0.066-0.097-0.186-0.031-0.269
					c0.021-0.027,2.122-2.685,2.562-3.668c0.043-0.097,0.157-0.14,0.253-0.097c0.097,0.043,0.14,0.157,0.097,0.253
					c-0.459,1.026-2.523,3.639-2.611,3.749C79.171,22.658,79.134,22.681,79.093,22.691z"/>
			</g>
			<g>
				<path style="fill:#272B30;" d="M80.413,20.948c-0.071,0.017-0.148-0.008-0.196-0.069c-0.065-0.084-0.05-0.204,0.034-0.269
					l1.629-1.265c0.083-0.065,0.204-0.05,0.269,0.034c0.065,0.084,0.05,0.204-0.034,0.269l-1.629,1.265
					C80.464,20.93,80.439,20.942,80.413,20.948z"/>
			</g>
			<g>
				<path style="fill:#272B30;" d="M64.905,15.407c-1.8,0.425-5.277,0.77-5.434,0.786c-0.105,0.01-0.199-0.067-0.209-0.172
					c-0.01-0.105,0.067-0.199,0.172-0.209c0.041-0.004,4.116-0.408,5.727-0.866c1.562-0.444,2.447-1.539,2.456-1.55
					c0.066-0.083,0.186-0.097,0.269-0.031c0.083,0.066,0.097,0.186,0.031,0.269c-0.039,0.049-0.966,1.201-2.652,1.68
					C65.155,15.345,65.034,15.376,64.905,15.407z"/>
			</g>
			<g>
				<path style="fill:#272B30;" d="M64.001,35.417c-0.029,0.007-0.059,0.007-0.09,0c-0.103-0.025-0.165-0.129-0.14-0.232
					c0.051-0.207,1.261-5.077,2.103-6.208c0.063-0.085,0.183-0.102,0.268-0.039c0.085,0.063,0.102,0.183,0.039,0.268
					c-0.796,1.069-2.026,6.021-2.039,6.07C64.125,35.348,64.068,35.401,64.001,35.417z"/>
			</g>
			<g>
				<path style="fill:#272B30;" d="M54.086,31.734c-0.543,0.128-1.062,0.225-1.527,0.272c-0.105,0.011-0.199-0.066-0.21-0.171
					c-0.011-0.105,0.067-0.199,0.171-0.21c2.704-0.274,7.481-2.341,7.529-2.362c0.096-0.043,0.21,0.002,0.252,0.099
					c0.042,0.097-0.002,0.21-0.099,0.252C60.037,29.686,56.77,31.099,54.086,31.734z"/>
			</g>
			<g>
				<path style="fill:#272B30;" d="M70.552,32.098c-0.05,0.012-0.105,0.004-0.151-0.028c-0.972-0.658-2.41-2.535-2.47-2.614
					c-0.064-0.084-0.048-0.204,0.036-0.269c0.084-0.065,0.204-0.048,0.269,0.036c0.015,0.019,1.461,1.907,2.381,2.529
					c0.088,0.059,0.111,0.178,0.051,0.266C70.639,32.06,70.598,32.087,70.552,32.098z"/>
			</g>
			<g>
				<path style="fill:#272B30;" d="M95.577,26.154c-0.023,0.005-0.047,0.007-0.072,0.003c-0.055-0.008-1.368-0.212-3.143-1.459
					c-0.087-0.061-0.107-0.18-0.047-0.267c0.061-0.087,0.18-0.107,0.267-0.047c1.693,1.19,2.966,1.392,2.978,1.393
					c0.105,0.016,0.177,0.113,0.161,0.218C95.711,26.076,95.651,26.137,95.577,26.154z"/>
			</g>
			<g>
				<path style="fill:#C3C1C1;" d="M84.681,50.704c-0.085,0.02-0.176-0.02-0.216-0.102c-0.99-2.022-2.761-3.48-2.779-3.495
					c-0.082-0.067-0.094-0.188-0.028-0.27c0.067-0.082,0.188-0.094,0.27-0.028c0.075,0.061,1.854,1.526,2.881,3.623
					c0.047,0.095,0.007,0.21-0.088,0.256C84.709,50.696,84.695,50.701,84.681,50.704z"/>
			</g>
			<g>
				<path style="fill:#C3C1C1;" d="M51.37,69.66c-0.013,0.003-0.026,0.005-0.04,0.005c-0.106,0.002-0.193-0.082-0.196-0.187
					l-0.127-5.904c-0.002-0.106,0.082-0.194,0.187-0.196c0.106-0.002,0.193,0.082,0.196,0.187l0.127,5.904
					C51.519,69.561,51.456,69.639,51.37,69.66z"/>
			</g>
		</g>
	</g>
</g>
</svg>
