<?xml version="1.0" encoding="iso-8859-1"?>
<!-- Generator: Adobe Illustrator 29.6.1, SVG Export Plug-In . SVG Version: 9.03 Build 0)  -->
<svg version="1.1" id="&#xB808;&#xC774;&#xC5B4;_2" xmlns="http://www.w3.org/2000/svg" xmlns:xlink="http://www.w3.org/1999/xlink"
	 x="0px" y="0px" viewBox="0 0 156.533 148.191" style="enable-background:new 0 0 156.533 148.191;" xml:space="preserve">
<g>
	<g>
		<g>
			<g>
				<path style="fill:#5CB5BC;" d="M1.08,137.869l40.629-1.036c0,0,17.938,1.009,36.219-1.026
					c5.367-0.598,14.226-0.861,24.087-0.931c6.523-0.046,9.771,2.368,16.45,2.452c17.617,0.221,37.223-0.596,37.68-0.495
					c0.893,0.197,0.654,1.143-5.301,1.943c-5.955,0.801-32.915-0.801-40.5,0c-7.585,0.801-71.452-0.338-78.746,0.231
					C24.305,139.576-6.066,140.925,1.08,137.869z"/>
			</g>
			<g>
				<g>
					<path style="fill:#E6756F;" d="M130.781,68.295l-12.505-1.676c0,0-12.698-7.178-13.088-6.492
						c-1.266,2.227,7.423,9.39,11.669,11.541c3.547,1.797,12.254,3.102,14.038,1.701C132.68,71.968,133.427,69.097,130.781,68.295z"
						/>
				</g>
			</g>
			<g>
				<g>
					<g>
						<path style="fill:#424A58;" d="M110.331,134.544c0.612-1.171,1.746-2.97,1.793-3.05c0.205-0.346,1.118-0.24,1.118,0.71
							c-0.001,1.872,2.299,0.234,1.906,0.805c-1.168,1.699-1.706,4.313-2.416,4.377c-1.512,0.137-7.315,1.079-7.233,0.28
							C105.549,137.185,109.924,135.322,110.331,134.544z"/>
					</g>
				</g>
			</g>
			<g>
				<g>
					<path style="fill:#CA9B83;" d="M122.458,73.617c0,0-0.474-4.393,0.397-6.458c0,0,4.94,0.634,5.994,0.7
						c1.836,0.115,3.68,0.275,4.283,0.559c0.603,0.283,0.595,0.988,0.595,2.175c0.001,1.188-0.621,2.576-2.296,3.448
						C129.756,74.912,122.458,73.617,122.458,73.617z"/>
				</g>
			</g>
			<g>
				<g>
					<g>
						<polygon style="fill:#5492CE;" points="104.423,57.832 101.818,56.879 89.641,67.011 96.42,66.858 						"/>
					</g>
					<g>
						<path style="fill:#5492CE;" d="M113.532,101.23c0-16.486-11.206-30.352-26.415-34.403v-1.199h-9.188
							c-19.663,0-35.603,15.94-35.603,35.603c0,19.663,15.94,35.603,35.603,35.603h9.188v-1.199
							C102.326,131.582,113.532,117.715,113.532,101.23z"/>
					</g>
					<g>
						<g>
							<path style="fill:#526488;" d="M85.732,97.811L56.285,72.959c-0.346,0.265-0.687,0.537-1.023,0.814L84.905,98.79
								L85.732,97.811z"/>
						</g>
						<g>
							<path style="fill:#526488;" d="M85.311,101.006l-0.021,0.022l0.16-0.762l-41.772-8.788c-0.117,0.411-0.226,0.824-0.328,1.241
								l40.447,8.509l-39.501,11.708c0.141,0.405,0.289,0.807,0.444,1.205l39.111-11.593L57.513,130.4
								c0.354,0.249,0.714,0.491,1.077,0.726l27.652-29.241L85.311,101.006z"/>
						</g>
					</g>
					<g>
						<path style="fill:#526488;" d="M107.466,72.014l1.566-12.034l-4.609-2.149l-8.003,9.026c-2.966-0.801-6.084-1.231-9.303-1.231
							c-19.663,0-35.603,15.94-35.603,35.603c0,19.663,15.94,35.603,35.603,35.603c19.663,0,35.603-15.94,35.603-35.603
							C122.72,89.134,116.686,78.449,107.466,72.014z"/>
					</g>
					<g>
						<path style="fill:#FFFFFF;" d="M67.468,109.238V94.243h5.337c4.49,0.021,7.265,2.816,7.243,7.497
							c0.021,4.681-2.753,7.498-7.328,7.498H67.468z M72.593,106.57c2.859,0,4.363-1.482,4.363-4.829
							c0-3.346-1.504-4.808-4.321-4.829H70.56v9.658H72.593z"/>
						<path style="fill:#FFFFFF;" d="M87.775,96.658c-1.588,0-2.457,0.72-2.457,1.694c-0.042,1.123,1.08,1.61,2.372,1.906
							l1.355,0.339c2.563,0.551,4.469,1.864,4.49,4.363c-0.021,2.732-2.16,4.49-5.803,4.49c-3.622,0-5.931-1.673-6.015-4.872h3.007
							c0.127,1.504,1.313,2.245,2.965,2.245c1.631,0,2.69-0.741,2.711-1.864c-0.021-1.017-0.932-1.503-2.583-1.906l-1.61-0.381
							c-2.541-0.635-4.087-1.885-4.108-4.109c0-2.69,2.414-4.511,5.676-4.49c3.325-0.021,5.507,1.822,5.549,4.49h-3.007
							C90.232,97.357,89.279,96.658,87.775,96.658z"/>
						<path style="fill:#FFFFFF;" d="M95.899,94.243h5.846c3.431,0.021,5.379,1.927,5.379,4.913c0,2.033-0.932,3.516-2.647,4.257
							l3.198,5.824h-3.473l-2.859-5.337h-2.352v5.337h-3.092V94.243z M101.194,101.402c1.843,0,2.732-0.762,2.711-2.245
							c0.021-1.524-0.868-2.351-2.711-2.33h-2.203v4.575H101.194z"/>
					</g>
				</g>
				<g>
					<g>
						<path style="fill:#FFFFFF;" d="M70.134,79.307c-0.356,0-0.708-0.159-0.943-0.462c-0.403-0.52-0.308-1.268,0.213-1.671
							c4.278-3.313,9.4-5.394,14.813-6.021c5.254-0.608,10.719,0.154,15.804,2.202c0.61,0.246,0.905,0.94,0.66,1.55
							c-0.246,0.61-0.94,0.905-1.55,0.66c-9.786-3.942-20.354-2.636-28.269,3.492C70.645,79.226,70.389,79.307,70.134,79.307z"/>
					</g>
				</g>
				<g>
					<g>
						<path style="fill:#FFFFFF;" d="M62.114,89.136c-0.178,0-0.358-0.04-0.528-0.124c-0.589-0.292-0.83-1.007-0.538-1.596
							c0.983-1.984,2.186-3.856,3.573-5.564c0.415-0.511,1.165-0.588,1.675-0.174c0.511,0.415,0.588,1.165,0.174,1.675
							c-1.277,1.571-2.383,3.294-3.288,5.12C62.974,88.893,62.552,89.136,62.114,89.136z"/>
					</g>
				</g>
			</g>
			<g>
				<g>
					<path style="fill:#424A58;" d="M131.221,89.736c0,0-3.341,3.745-3.34,9.024c0,4.345-0.247,11.639,2.053,18.023
						c1.867,5.182,17.887,17.7,17.887,17.7l3.701-3.906l-14.518-17.212c0,0,0.894-10.44-0.124-14.668
						C135.86,94.468,133.84,88.895,131.221,89.736z"/>
				</g>
			</g>
			<g>
				<g>
					<path style="fill:#424A58;" d="M110.096,132.565c0,0,5.048-20.337,8.377-26.52c2.101-3.903,10.939-13.952,10.939-13.952
						s1.324-2.53,2.761-5.362c2.804,1.628,9.199,3.579,11.232,4.179c-2.391,9.564-17.892,18.477-17.892,18.477l-9.628,24.76
						c0,0-1.45,0.129-3.358-0.313C110.626,133.391,110.096,132.565,110.096,132.565z"/>
				</g>
			</g>
			<g>
				<g>
					<path style="fill:#EDC0A5;" d="M129.725,70.463c0.156-1.399,2.704-2.668,7.302-2.176c5.18,0.555,6.602,5.98,7.169,11.046
						c0.72,6.424-0.589,16.048-0.79,17.999c-2.045,0.559-9.386-8.453-13.163-7.348c-0.101-1.195,0.921-6.166,0.514-8.172
						C130.295,79.537,129.417,73.228,129.725,70.463z"/>
				</g>
			</g>
			<g>
				<g>
					<g>
						<g>
							<path style="fill:#424A58;" d="M134.291,63.511c0,0-0.071-0.37,0.114-0.696c0.185-0.326,1.514-0.449,1.739-0.51
								c0.726-0.197,0.864,0.498,0.864,0.498s0.442,0.027,0.517,0.475c0.075,0.447,0.087,0.982-0.061,1.29
								c-0.148,0.308-0.59,0.752-0.679,0.921c-0.089,0.169-0.369,0.722-0.523,0.715C136.108,66.196,134.291,63.511,134.291,63.511z"
								/>
						</g>
					</g>
				</g>
				<g>
					<g>
						<g>
							<g>
								<path style="fill:#EE8277;" d="M136.37,64.305l-0.345,1.081c0.103,0.498,0.181,1.073-0.315,1.189
									c-0.396,0.093-0.65,0.085-1.15,0.007c-0.416-0.065-0.617-0.473-0.599-1.021c0.024-0.711,0.248-1.359,0.388-1.699
									c0.149-0.363,0.395-0.6,0.687-0.613C135.117,63.557,135.703,64.036,136.37,64.305z"/>
							</g>
						</g>
					</g>
					<g>
						<g>
							<g>
								<path style="fill:#EE8277;" d="M136.455,64.986l0.501,3.492c-0.031,0.352-1.45,0.944-1.96,0.445
									c-0.15-0.146,0.118-3.254,0.118-3.254L136.455,64.986z"/>
							</g>
						</g>
					</g>
					<g>
						<g>
							<g>
								<path style="fill:#424A58;" d="M134.51,64.864c-0.148,0.023-0.501-0.373-0.598,0.055c-0.026,0.116-0.102,0.974,0.022,1.451
									c0.102,0.39,0.347,0.667,0.685,0.728c0.337,0.061,1.109-0.095,1.318-0.309c0.359-0.368,0.451-0.854,0.399-1.169
									c-0.053-0.315-0.072-0.434-0.097-0.555c-0.025-0.121,0.511-0.909,0.14-0.941c-0.149-0.013-0.295,1-0.878,0.866
									C135.246,64.93,135.052,64.781,134.51,64.864z"/>
							</g>
						</g>
					</g>
					<g>
						<g>
							<g>
								<path style="fill:#FFFFFF;" d="M135.069,65.138c0,0-0.424,0.056-0.957-0.06c0,0-0.009,0.476,0.373,0.581
									C134.735,65.728,134.979,65.399,135.069,65.138z"/>
							</g>
						</g>
					</g>
					<g>
						<g>
							<g>
								<path style="fill:#EE8277;" d="M136.096,64.878c0.056-0.07,0.197-0.321,0.236-0.403c0.075-0.156,0.167-0.389,0.343-0.144
									c0.255,0.356-0.174,0.963-0.429,0.917C136.122,65.226,135.955,65.055,136.096,64.878z"/>
							</g>
						</g>
					</g>
				</g>
				<g>
					<g>
						<g>
							<g>
								<path style="fill:#BF6A65;" d="M134.594,64.713c-0.084-0.032-0.154-0.085-0.214-0.161c-0.045-0.058-0.116,0.043-0.071,0.1
									c0.065,0.082,0.145,0.143,0.236,0.178C134.609,64.854,134.658,64.737,134.594,64.713z"/>
							</g>
						</g>
						<g>
							<g>
								<path style="fill:#424A58;" d="M135.205,64.128c-0.013-0.005-0.053-0.021-0.086,0.024c-0.025,0.034-0.044,0.079-0.046,0.122
									c-0.003,0.05,0.042,0.086,0.09,0.075C135.23,64.333,135.293,64.158,135.205,64.128z"/>
							</g>
						</g>
						<g>
							<g>
								<path style="fill:#424A58;" d="M134.38,64.018c-0.013-0.004-0.053-0.021-0.086,0.024c-0.025,0.034-0.044,0.079-0.046,0.122
									c-0.003,0.05,0.042,0.086,0.09,0.075C134.405,64.223,134.469,64.048,134.38,64.018z"/>
							</g>
						</g>
					</g>
					<g>
						<g>
							<path style="fill:#424A58;" d="M134.609,63.803c-0.081-0.007-0.159,0.003-0.236,0.022c-0.071,0.018-0.111-0.168-0.04-0.186
								c0.087-0.022,0.175-0.029,0.267-0.022C134.675,63.624,134.684,63.809,134.609,63.803z"/>
						</g>
					</g>
					<g>
						<g>
							<path style="fill:#424A58;" d="M135.22,63.694c0.097,0.065,0.197,0.124,0.291,0.193c0.099,0.073-0.012,0.227-0.111,0.155
								c-0.094-0.069-0.194-0.128-0.291-0.193C135.008,63.781,135.119,63.626,135.22,63.694z"/>
						</g>
					</g>
				</g>
			</g>
			<g>
				<path style="fill:#CA9B83;" d="M139.697,74.927l-9.789,0.973c0.095,0.931,0.209,1.861,0.328,2.72
					c0.679-0.098,1.412-0.206,2.186-0.305C138.338,77.563,139.697,74.927,139.697,74.927z"/>
			</g>
			<g>
				<g>
					<path style="fill:#EE8277;" d="M138.25,70.054l-15.433,0.405c0,0-15.57-5.531-16.998-3.945
						c-0.116,0.129-0.363,1.094,0.379,1.734c2.723,2.349,10.262,5.479,14.158,6.679c4.142,1.276,16.884,1.787,18.672,0.143
						C140.816,73.426,141.271,70.471,138.25,70.054z"/>
				</g>
			</g>
			<g>
				<g>
					<path style="fill:#FAD4C1;" d="M135.274,68.95c0,0,1.09-0.612,1.258-0.763c0.168-0.151,0.422-0.365,0.422-0.365l0.49,0.37
						c0,0-0.676,0.873-0.992,1.172c-0.315,0.299-0.734,0.491-0.734,0.491l-0.433-0.379l-0.728,0.155c0,0,0.105-0.694,0.143-0.856
						c0.038-0.162,0.18-0.422,0.18-0.422L135.274,68.95z"/>
				</g>
			</g>
			<g>
				<g>
					<path style="fill:#2C3038;" d="M128.104,107.905c0.027,0,0.053-0.007,0.078-0.022c3.994-2.481,9.04-7.237,9.091-7.285
						c0.059-0.056,0.062-0.149,0.006-0.209c-0.056-0.059-0.149-0.062-0.209-0.006c-0.05,0.048-5.075,4.784-9.044,7.248
						c-0.069,0.043-0.091,0.134-0.048,0.203C128.006,107.881,128.054,107.905,128.104,107.905z"/>
				</g>
			</g>
			<g>
				<g>
					<path style="fill:#2C3038;" d="M122.328,110.594c0.015,0,0.031-0.002,0.047-0.008l3.186-1.061
						c0.077-0.026,0.119-0.109,0.093-0.187c-0.026-0.077-0.109-0.119-0.187-0.093l-3.187,1.061
						c-0.077,0.026-0.119,0.109-0.093,0.187C122.209,110.555,122.266,110.594,122.328,110.594z"/>
				</g>
			</g>
			<g>
				<g>
					<path style="fill:#2C3038;" d="M136.205,115.306c0.064,0,0.123-0.042,0.142-0.107l0.895-3.092
						c0.023-0.078-0.022-0.16-0.101-0.183c-0.078-0.023-0.16,0.022-0.183,0.101l-0.895,3.092c-0.023,0.078,0.022,0.16,0.101,0.183
						C136.178,115.305,136.191,115.306,136.205,115.306z"/>
				</g>
			</g>
			<g>
				<g>
					<path style="fill:#BF6A65;" d="M121.906,70.273c0.005,0.003,0.011,0.007,0.017,0.009c1.116,0.487,2.212,0.691,2.223,0.693
						c0.057,0.01,0.112-0.027,0.123-0.085c0.011-0.057-0.027-0.112-0.085-0.123c-0.011-0.002-1.084-0.202-2.177-0.678
						c-0.053-0.023-0.115,0.001-0.139,0.055C121.847,70.191,121.864,70.245,121.906,70.273z"/>
				</g>
			</g>
			<g>
				<path style="fill:#EE8277;" d="M106.461,64.916c-0.172-0.734,0.038-1.721-0.44-1.364c-0.478,0.357-0.248,1.105-0.557,1.388
					c-0.309,0.283-2.253-1.38-2.452-0.957c-0.133,0.281,1.123,0.952,1.052,1.013c-0.071,0.06-1.24-0.727-1.39-0.369
					c-0.184,0.439-0.073,0.998,0.336,1.434c-0.18-0.051-0.337-0.062-0.385,0.031c-0.128,0.251,3.783,2.777,4.158,0.552
					C106.865,66.163,106.726,66.047,106.461,64.916z"/>
			</g>
			<g>
				<g>
					<path style="fill:#EDC0A5;" d="M129.008,76.377c0,0-1.356-3.838-0.713-6.027c0,0,5.535-0.133,6.693-0.322
						c1.158-0.189,3.038-0.255,3.744-0.077c0.706,0.178,1.851,0.781,2.032,1.954c0.181,1.174-0.291,2.652-1.999,3.796
						C137.058,76.846,129.008,76.377,129.008,76.377z"/>
				</g>
			</g>
			<g>
				<g>
					<path style="fill:#CA9B83;" d="M128.224,70.455c0.021,0.014,0.046,0.022,0.074,0.021c0,0,0.295-0.007,1.078-0.029
						c0.776-0.022,6.975-0.435,7.239-0.452c0.07-0.005,0.122-0.065,0.118-0.135c-0.005-0.07-0.065-0.122-0.135-0.118
						c-0.064,0.004-6.458,0.43-7.229,0.452c-0.782,0.022-1.078,0.029-1.078,0.029c-0.07,0.002-0.125,0.06-0.123,0.13
						C128.169,70.396,128.192,70.433,128.224,70.455z"/>
				</g>
			</g>
			<g>
				<g>
					<g>
						<path style="fill:#E99E5B;" d="M38.844,68.609c0,0-0.733-1.112-2.271-1.065c-1.538,0.047-1.768,3.195-2.966,3.983
							c-1.199,0.788-2.272,0.102-3.321,1.023c-1.409,1.237-0.443,3.106,0.889,3.397c1.332,0.29,3.398-0.588,4.241-1.382
							c1.743-1.642,2.222-4.696,2.903-5.066C39.001,69.13,39.06,68.864,38.844,68.609z"/>
					</g>
				</g>
				<g>
					<g>
						<path style="fill:#A5334B;" d="M37.047,74.078c3.091-1.229,10.069-0.017,14.08-0.328c4.326-0.336,10.744-4.516,10.744-4.516
							c0.292-0.064,1.424,1.356,1.439,1.886c0.032,1.118-4.898,6.47-11.28,7.358c-6.382,0.889-14.208,0.578-15.931-0.601
							C34.201,76.578,35.943,74.517,37.047,74.078z"/>
					</g>
				</g>
				<g>
					<g>
						<g>
							<path style="fill:#424A58;" d="M37.687,136.358c-0.191-0.829,0.309-1.704,0.311-1.768c0.005-0.275-0.738-0.832-1.111-0.175
								c-0.737,1.295-1.565-0.24-1.538,0.223c0.079,1.38-0.498,3.735,0.001,3.773c1.061,0.081,5.65,0.694,5.762,0.125
								C41.177,138.194,37.814,136.908,37.687,136.358z"/>
						</g>
					</g>
				</g>
				<g>
					<g>
						<path style="fill:#424A58;" d="M6.169,133.044c0,0-1.842,1.533-1.957,3.318c-0.155,2.407,1.632,1.776,0.739,2.414
							c-0.376,0.269-2.27-0.398-2.626-1.696c-0.22-0.801-0.388-1.624-0.469-2.196c-0.21-1.498,1.51-2.838,2.452-3.236
							C5.251,131.25,6.169,133.044,6.169,133.044z"/>
					</g>
				</g>
				<g>
					<g>
						<path style="fill:#DDDDDD;" d="M41.048,109.752c-0.875-3.684-3.053-9.299-4.496-12.42c-1.319-2.856-2.408-4.853-2.408-4.853
							s-1.454-1.39-4.157-1.375c-4.011,0.023-9.346,0.427-11.272,1.124c-1.604,6.44-2.938,18.668-4.43,21.023
							c-1.121,1.769-11.198,18.035-11.198,18.035s0,0,1.713,2.138c0.845,1.054,1.737,0.684,1.737,0.684s11.266-12.588,13.73-16.391
							c3.564-5.501,8.927-16.724,8.927-16.724s3.743,8.335,4.637,11.801c0.42,1.631,1.285,23.013,1.285,23.013l4.571-0.249
							C39.688,135.557,42.461,115.703,41.048,109.752z"/>
					</g>
				</g>
				<g>
					<path style="fill:#B5B5B5;" d="M34.757,93.645c-1.728,0.656-4.397,1.524-7.004,1.791c-4.367,0.447-9.503,2.342-9.503,2.342
						s3.846,1.057,10.247,0.412c3.597-0.363,6.137-1.101,7.671-1.679C35.613,95.336,35.118,94.348,34.757,93.645z"/>
				</g>
				<g>
					<g>
						<path style="fill:#EA576E;" d="M28.82,96.652c5.459-1.36,7.245-2.481,7.245-2.481s-0.207-5.202,1.29-8.296
							c0.909-1.877,1.95-3.536,2.746-4.706c1.47-2.161,1.609-10.945-7.199-7.171c-5.111,2.19-8.794,6.176-12.691,13.473
							c-2.332,4.367-3.583,9.365-3.796,10.223C18.354,98.13,28.498,96.732,28.82,96.652z"/>
					</g>
				</g>
				<g>
					<g>
						<path style="fill:#C3C1C1;" d="M14.279,115.103c-0.01,0-0.02-0.001-0.03-0.003c-0.078-0.017-0.127-0.093-0.111-0.171
							l0.926-4.332c0.017-0.078,0.093-0.127,0.171-0.111c0.078,0.017,0.127,0.093,0.111,0.171l-0.926,4.332
							C14.404,115.057,14.345,115.103,14.279,115.103z"/>
					</g>
				</g>
				<g>
					<g>
						<path style="fill:#E99E5B;" d="M40.544,68.349c0.464,0.04,0.73-0.179,1.075,0.233c0.345,0.412-0.376,2.19-0.789,2.369
							c-0.413,0.179-2.225,1.349-2.753,1.335c-0.528-0.014-0.775-1.318-0.798-1.746c-0.023-0.428,0.478-2.079,1.207-2.376
							C39.215,67.868,40.08,68.309,40.544,68.349z"/>
					</g>
				</g>
				<g>
					<g>
						<g>
							<g>
								<path style="fill:#EE8277;" d="M38.667,71.095l-1.664,2.149c-0.273,0.355-0.086,1.936,0.819,1.909
									c0.265-0.008,0.419-0.662,0.543-1.15l0.982-2.184L38.667,71.095z"/>
							</g>
						</g>
					</g>
				</g>
				<g>
					<g>
						<g>
							<path style="fill:#BF6A65;" d="M38.399,71.73l0.626,0.801l-0.338,0.752c-0.026-0.028-0.054-0.058-0.084-0.091
								C38.115,72.665,38.399,71.73,38.399,71.73z"/>
						</g>
					</g>
				</g>
				<g>
					<g>
						<g>
							<g>
								<path style="fill:#EE8277;" d="M38.898,69.595l-0.51,0.924c-0.404,0.733-0.22,1.712,0.713,2.068
									c0.722,0.275,1.562,0.121,1.785-0.878c0.188-0.84,0.05-1.394-0.024-1.832C40.693,68.879,39.562,68.575,38.898,69.595z"/>
							</g>
						</g>
					</g>
				</g>
				<g>
					<g>
						<g>
							<g>
								<path style="fill:#EE8277;" d="M38.663,70.283c-0.033-0.092-0.051-0.188-0.064-0.285c-0.024-0.185-0.103-0.453-0.359-0.283
									c-0.373,0.248-0.191,1.224,0.275,1.24C38.862,70.965,38.746,70.515,38.663,70.283z"/>
							</g>
						</g>
					</g>
				</g>
				<g>
					<g>
						<g>
							<path style="fill:#FFFFFF;" d="M40.725,71.411c0,0-0.803-0.22-1.248-0.241c0,0,0.118,0.698,0.528,0.757
								C40.415,71.985,40.725,71.411,40.725,71.411z"/>
						</g>
					</g>
				</g>
				<g>
					<g>
						<path style="fill:#BF6A65;" d="M40.249,71.028c0.094-0.037,0.172-0.091,0.239-0.167c0.05-0.057,0.13,0.031,0.08,0.088
							c-0.072,0.082-0.162,0.145-0.264,0.185C40.233,71.161,40.178,71.056,40.249,71.028z"/>
					</g>
				</g>
				<g>
					<g>
						<path style="fill:#424A58;" d="M40.063,69.902c-0.162-0.002-0.34,0.022-0.494,0.08c-0.073,0.028-0.03,0.135,0.044,0.107
							c0.132-0.05,0.294-0.072,0.433-0.071C40.122,70.019,40.141,69.903,40.063,69.902z"/>
					</g>
				</g>
				<g>
					<path style="fill:#E67875;" d="M61.884,70.187c0,0,0.403,0.45,1.036,0.375c0.632-0.076,1.797,0.06,1.844-0.218
						s-0.862-0.239-0.978-0.361c-0.115-0.122,1.723-1.05,1.637-1.292c-0.086-0.242-0.899,0.186-0.899,0.186s0.618-0.406,0.635-0.593
						c0.017-0.188-0.386-0.082-0.386-0.082s-0.032-0.296-0.194-0.296c-0.162,0-0.688,0.328-0.688,0.328s0.101-0.437-0.21-0.321
						c-0.312,0.116-2.186,1.422-2.14,1.751C61.587,69.993,61.884,70.187,61.884,70.187z"/>
				</g>
				<g>
					<g>
						<path style="fill:#424A58;" d="M41.014,70.254c-0.082-0.059-0.168-0.11-0.255-0.162c-0.066-0.039-0.132,0.058-0.065,0.097
							c0.087,0.051,0.173,0.103,0.255,0.161C41.011,70.397,41.076,70.299,41.014,70.254z"/>
					</g>
				</g>
				<g>
					<g>
						<path style="fill:#424A58;" d="M40.69,70.539c-0.008,0.068,0.02,0.126,0.063,0.131c0.042,0.005,0.083-0.046,0.091-0.114
							c0.008-0.068-0.02-0.126-0.063-0.131C40.739,70.42,40.698,70.471,40.69,70.539z"/>
					</g>
				</g>
				<g>
					<path style="fill:#EE8277;" d="M62.884,70.321c0,0,0.609-0.926,0.833-1.099c0.224-0.173,1.861-0.581,1.894-0.482
						c0.087,0.262-1.076,0.624-1.076,0.624s1.156-0.204,1.231-0.061c0.075,0.143,0.015,0.214,0.015,0.214s0.125,0.085,0.075,0.259
						c-0.031,0.11-0.923,0.514-0.923,0.514s0.403-0.125,0.667-0.117c0.265,0.009-0.454,0.317-0.749,0.499
						c-0.295,0.182-0.64,0.816-1.188,1.176c-0.548,0.36-0.967,0.365-1.081,0.205C62.466,71.893,62.604,70.732,62.884,70.321z"/>
				</g>
				<g>
					<g>
						<path style="fill:#424A58;" d="M39.724,70.364c-0.008,0.068,0.02,0.126,0.063,0.131c0.042,0.005,0.083-0.046,0.091-0.113
							c0.008-0.068-0.02-0.126-0.063-0.131C39.773,70.246,39.732,70.297,39.724,70.364z"/>
					</g>
				</g>
				<g>
					<g>
						<path style="fill:#EA576E;" d="M35.084,73.935c3.18-0.976,10.804,1.241,14.827,1.255c4.339,0.015,12.481-5.074,12.481-5.074
							c0.297-0.04,2.075,1.369,2.047,1.898c-0.059,1.117-8.343,7.148-14.776,7.518s-14.209-0.572-15.83-1.886
							C32.046,76.198,33.948,74.283,35.084,73.935z"/>
					</g>
				</g>
				<g>
					<path style="fill:#A5334B;" d="M40.749,79.471c-0.001,0-0.003,0-0.005,0c-5.291-0.147-7.096-1.768-7.17-1.836
						c-0.065-0.061-0.069-0.163-0.009-0.228c0.06-0.065,0.162-0.069,0.228-0.009c0.019,0.017,1.812,1.608,6.96,1.751
						c0.089,0.002,0.159,0.077,0.157,0.166C40.908,79.402,40.836,79.471,40.749,79.471z"/>
				</g>
				<g>
					<path style="fill:#B5B5B5;" d="M29.196,101.121c-0.021,0-0.043-0.005-0.062-0.016c-0.062-0.035-0.085-0.113-0.05-0.175
						l1.113-2.008c0.035-0.062,0.113-0.085,0.175-0.05c0.062,0.035,0.085,0.113,0.05,0.175l-1.113,2.008
						C29.285,101.097,29.241,101.121,29.196,101.121z"/>
				</g>
				<g>
					<path style="fill:#B5B5B5;" d="M34.75,115.266c-0.053,0-0.102-0.032-0.121-0.084l-1.08-2.921
						c-0.025-0.067,0.009-0.141,0.076-0.166c0.067-0.025,0.141,0.009,0.166,0.076l1.08,2.921c0.025,0.067-0.009,0.141-0.076,0.166
						C34.78,115.263,34.765,115.266,34.75,115.266z"/>
				</g>
			</g>
			<g>
				<g>
					<polygon style="fill:#64BB77;" points="85.828,32.77 103.363,44.277 87.872,56.29 87.332,49.638 					"/>
				</g>
				<g>
					<g>
						<path style="fill:#64BB77;" d="M87.764,38.78l-0.067,0.002l-0.042,0.002l-0.077,0.004l-0.133,0.01L87.2,38.819
							c-0.156,0.015-0.309,0.03-0.456,0.047c-0.298,0.033-0.583,0.07-0.866,0.108c-0.566,0.078-1.117,0.166-1.664,0.261
							c-0.545,0.096-1.086,0.198-1.621,0.31c-0.536,0.11-1.066,0.229-1.595,0.351L82.71,50.95c0.445-0.025,0.888-0.047,1.329-0.061
							c0.441-0.015,0.879-0.021,1.313-0.023c0.433,0,0.863,0.006,1.279,0.022c0.207,0.008,0.414,0.017,0.608,0.03
							c0.099,0.006,0.192,0.014,0.282,0.021l0.064,0.006l0.032,0.003l0.027,0.004c0.017,0.002,0.039,0.005,0.052,0.007l0.016,0.004
							c0.001,0.001,0.009,0.001,0.004,0.002l-0.021,0.002L87.764,38.78z"/>
					</g>
					<g>
						<path style="fill:#5CB5BC;" d="M78.05,40.664c-4.123,1.183-8.087,2.748-11.853,4.66l3.327,8.056
							c1.751-0.541,3.522-0.998,5.304-1.368c1.781-0.37,3.573-0.653,5.361-0.849L78.05,40.664z"/>
					</g>
				</g>
			</g>
			<g>
				<g>
					<path style="fill:#5492CE;" d="M50.663,58.229c-1.638,2.754-2.705,6.163-2.705,6.163s2.644-1.763,5.117-3.337
						c0.856-0.545,1.692-1.067,2.391-1.485l-3.479-3.396C51.55,56.795,51.111,57.475,50.663,58.229z"/>
				</g>
				<g>
					<path style="fill:#5492CE;" d="M67.062,54.205l-3.491-7.469c-0.915,0.52-1.817,1.061-2.703,1.624
						c-0.885,0.561-1.76,1.15-2.608,1.747c-0.017,0.012-0.034,0.024-0.051,0.036c-1.997,1.407-3.598,2.726-5.134,4.596l4.01,3.914
						C63.558,55.147,66.225,54.508,67.062,54.205z"/>
				</g>
			</g>
			<g>
				<g>
					<path style="fill:#424A58;" d="M149.601,136.701c0,0-0.088-0.649-0.132-0.977c0,0-0.158-1.267-0.517-1.959
						c-0.359-0.692-2.021-1.659-2.021-1.659s1.981-2.361,2.263-2.104c0.16,0.146,0.712,0.585,1.617,1.354
						c0.689,0.587,1.749,1.019,1.73,1.284c-0.027,0.384-0.643,2.017-1.201,3.662c-0.335,0.987-0.822,1.598-2.672,1.213
						C148.053,137.387,149.601,136.701,149.601,136.701z"/>
				</g>
			</g>
		</g>
		<g>
			
				<ellipse transform="matrix(0.6896 -0.7241 0.7241 0.6896 -13.3696 40.3587)" style="fill:#F6DB66;" cx="40.4" cy="35.777" rx="12.117" ry="12.117"/>
			<path style="fill:#FEF8F8;" d="M46.392,32.871c1.476,3.366-0.057,7.292-3.424,8.767c-3.366,1.475-7.292-0.057-8.767-3.424
				L46.392,32.871z"/>
			<path style="fill:#FCF1C6;" d="M35.253,25.341c0,0-4.53,2.545-5.927,7.45c-1.396,4.905,2.525,10.978,4.19,12.115
				C35.181,46.043,29.277,34.913,35.253,25.341z"/>
			<path style="fill:#424A58;" d="M43.642,30.077c0.383,0.967,0.279,1.947-0.232,2.191c-0.512,0.243-1.238-0.343-1.621-1.309
				c-0.383-0.967-0.279-1.947,0.232-2.191C42.533,28.525,43.259,29.111,43.642,30.077z"/>
			<path style="fill:#424A58;" d="M34.354,34.138c0.383,0.967,1.109,1.553,1.621,1.309c0.512-0.243,0.616-1.224,0.232-2.191
				c-0.383-0.967-1.109-1.553-1.621-1.309C34.075,32.191,33.971,33.172,34.354,34.138z"/>
		</g>
	</g>
	<g>
		<g>
			<g>
				<path style="fill:#E55B5A;" d="M133.415,48.702l-31.489-12.331c-5.044-1.975-7.841-7.15-6.02-11.427l5.175-12.157
					c1.828-4.294,7.423-5.656,12.247-3.121l30.1,15.819c3.52,1.85,5.079,6.165,3.576,9.645l-4.259,9.855
					C141.246,48.453,137.099,50.145,133.415,48.702z"/>
			</g>
		</g>
		<g>
			<g>
				<polygon style="fill:#E55B5A;" points="123.466,43.034 130.219,57.145 131.604,46.285 				"/>
			</g>
		</g>
	</g>
	<path style="fill:#FFFFFF;" d="M109.952,33.7c-4.195-1.913-5.999-6.348-3.659-11.48c2.341-5.132,6.863-6.654,11.047-4.719
		c4.205,1.891,6.041,6.314,3.678,11.435C118.69,34.101,114.146,35.613,109.952,33.7z M111.275,30.799
		c2.464,1.097,4.905,0,6.442-3.369c1.537-3.369,0.765-5.932-1.699-7.029c-2.422-1.132-4.863-0.035-6.377,3.345
		C108.081,27.105,108.853,29.667,111.275,30.799z"/>
	<path style="fill:#FFFFFF;" d="M127.36,23.597l2.814,1.283l-2.76,6.051l0.193,0.088l7.693-3.801l3.43,1.565l-7.883,3.807
		l1.698,9.854l-3.392-1.547l-1.21-7.35l-2.217,1.084l-1.776,3.893l-2.814-1.283L127.36,23.597z"/>
</g>
</svg>
