<?xml version="1.0" encoding="iso-8859-1"?>
<!-- Generator: Adobe Illustrator 16.0.3, SVG Export Plug-In . SVG Version: 6.00 Build 0)  -->
<!DOCTYPE svg PUBLIC "-//W3C//DTD SVG 1.1//EN" "http://www.w3.org/Graphics/SVG/1.1/DTD/svg11.dtd">
<svg version="1.1" id="Layer_1" xmlns="http://www.w3.org/2000/svg" xmlns:xlink="http://www.w3.org/1999/xlink" x="0px" y="0px"
	 width="20.562px" height="19.515px" viewBox="0 0 20.562 19.515" style="enable-background:new 0 0 20.562 19.515;"
	 xml:space="preserve">
<path style="fill:#F5A100;" d="M9.642,2.427v1.912h1.274V2.427H9.642z M5.322,4.217L4.419,5.119L5.773,6.47l0.9-0.901L5.322,4.217z
	 M15.239,4.217l-1.354,1.352l0.9,0.901l1.352-1.351L15.239,4.217z M10.282,5.616c-2.458,0-4.466,2.003-4.466,4.462
	c0,1.765,1.057,3.254,2.551,3.974v1.765c0,0.695,0.578,1.271,1.275,1.271h1.274c0.701,0,1.277-0.575,1.277-1.271v-1.765
	c1.494-0.72,2.549-2.209,2.549-3.974C14.743,7.619,12.737,5.616,10.282,5.616z M10.282,6.887c1.768,0,3.186,1.423,3.186,3.191
	c0,1.391-0.887,2.563-2.123,3.002l-0.428,0.148v2.588H9.642v-2.588L9.22,13.08c-1.24-0.438-2.129-1.611-2.129-3.002
	C7.091,8.31,8.511,6.887,10.282,6.887z M2.63,9.442v1.271h1.912V9.442H2.63z M16.02,9.442v1.271h1.912V9.442H16.02z M5.773,13.686
	l-1.354,1.352l0.902,0.902l1.352-1.354L5.773,13.686z M14.786,13.686l-0.9,0.899l1.354,1.354l0.898-0.902L14.786,13.686z"/>
</svg>
