<?xml version="1.0" encoding="iso-8859-1"?>
<!-- Generator: Adobe Illustrator 16.0.3, SVG Export Plug-In . SVG Version: 6.00 Build 0)  -->
<!DOCTYPE svg PUBLIC "-//W3C//DTD SVG 1.1//EN" "http://www.w3.org/Graphics/SVG/1.1/DTD/svg11.dtd">
<svg version="1.1" id="Layer_1" xmlns="http://www.w3.org/2000/svg" xmlns:xlink="http://www.w3.org/1999/xlink" x="0px" y="0px"
	 width="45.624px" height="43.779px" viewBox="0 0 45.624 43.779" style="enable-background:new 0 0 45.624 43.779;"
	 xml:space="preserve">
<g>
	<g>
		<path style="fill:none;" d="M29.195,16.453l-1.291,1.96v0.019h1.656v-1.904c0-0.466,0.076-0.956,0.076-0.956h-0.025
			C29.611,15.571,29.432,16.099,29.195,16.453z"/>
		<path style="fill:#FFFFFF;" d="M16.08,10.131c2.066-2.283,4.914-3.839,8.123-4.229l1.576,2.666l1.576-2.666
			c5.965,0.717,10.703,5.463,11.424,11.425l-2.668,1.576l2.668,1.575c-0.385,3.201-1.936,6.043-4.205,8.103
			c0.506,0.311,1.055,0.707,1.66,1.197c0.07,0.049,0.139,0.104,0.199,0.161c2.895-2.793,4.697-6.706,4.697-11.036
			c0-8.461-6.887-15.348-15.352-15.348c-4.332,0-8.25,1.807-11.045,4.703c0.031,0.037,0.057,0.066,0.088,0.104
			C15.346,9.015,15.758,9.598,16.08,10.131z"/>
		<path style="fill:#FFFFFF;" d="M31.627,13.704h-2.551l-3.291,5.193v1.265h3.775v2.06h2.066v-2.06h1.01v-1.73h-1.01V13.704z
			 M29.561,16.527v1.904h-1.656v-0.019l1.291-1.96c0.236-0.354,0.416-0.882,0.416-0.882h0.025
			C29.637,15.571,29.561,16.062,29.561,16.527z"/>
		<path style="fill:#FFFFFF;" d="M24.783,16.167c0-1.811-1.514-2.606-2.91-2.606c-2.213,0-3,1.836-3,1.836l1.551,1.036
			c0,0,0.453-0.905,1.262-0.905c0.441,0,0.918,0.248,0.918,0.845c0,1.227-3.682,1.785-3.682,4.931c0,0.285,0.033,0.583,0.094,0.917
			h5.898v-1.787h-3.623C21.35,19.337,24.783,18.828,24.783,16.167z"/>
	</g>
	<path style="fill:#FFFFFF;" d="M35.203,30.932c-4.725-3.797-6.041-1.928-8.186,0.212c-1.496,1.494-5.28-1.633-8.549-4.896
		c-3.266-3.27-6.389-7.054-4.895-8.549c2.141-2.146,4.008-3.467,0.211-8.188C9.988,4.79,7.461,8.42,5.387,10.491
		c-2.396,2.395-0.125,11.32,8.695,20.143c8.822,8.822,17.75,11.092,20.141,8.697C36.299,37.261,39.924,34.728,35.203,30.932"/>
</g>
</svg>
