<?xml version="1.0" encoding="utf-8"?>
<!-- Generator: Adobe Illustrator 16.0.3, SVG Export Plug-In . SVG Version: 6.00 Build 0)  -->
<!DOCTYPE svg PUBLIC "-//W3C//DTD SVG 1.1//EN" "http://www.w3.org/Graphics/SVG/1.1/DTD/svg11.dtd">
<svg version="1.1" id="Layer_1" xmlns="http://www.w3.org/2000/svg" xmlns:xlink="http://www.w3.org/1999/xlink" x="0px" y="0px"
	 width="42.753px" height="39.386px" viewBox="0 0 42.753 39.386" enable-background="new 0 0 42.753 39.386" xml:space="preserve">
<g>
	<path fill="#FFFFFF" d="M25.235,7.372c-2.376-2.461-5.611-3.833-9.031-3.833c-6.933,0-12.552,5.62-12.552,12.552
		c0,2.807,0.928,5.521,2.659,7.731c0.234,0.3,0.262,0.695,0.104,1.015l-1.384,2.966l2.981-1.505
		c0.327-0.165,0.704-0.125,0.984,0.071c0.792,0.556,1.657,1.028,2.555,1.387c1.171,0.464,0.464,2.245-0.706,1.78
		c-0.865-0.346-1.688-0.768-2.471-1.272l-4.95,2.498c-0.807,0.406-1.684-0.441-1.3-1.262l2.321-4.973
		c-1.774-2.467-2.716-5.397-2.716-8.437c0-7.994,6.481-14.475,14.475-14.475c3.938,0,7.679,1.593,10.414,4.425
		C27.491,6.951,26.11,8.281,25.235,7.372L25.235,7.372z"/>
	<path fill="#FFFFFF" d="M38.307,31.43c1.775-2.467,2.717-5.396,2.717-8.437c0-7.994-6.482-14.475-14.475-14.475h-0.002
		c-7.993,0-14.474,6.481-14.474,14.475c0,7.994,6.48,14.475,14.474,14.475c2.787,0,5.49-0.792,7.83-2.301l4.951,2.498
		c0.807,0.405,1.684-0.442,1.299-1.263L38.307,31.43z M31.551,22.994c0-0.475,0.188-0.931,0.523-1.268
		c0.336-0.335,0.793-0.523,1.268-0.522l0,0c0.99,0,1.791,0.801,1.791,1.79c0,0.994-0.797,1.791-1.791,1.791
		C32.346,24.785,31.551,23.992,31.551,22.994z M25.28,21.726c0.336-0.335,0.793-0.523,1.27-0.522c0.988,0,1.789,0.801,1.789,1.79
		c0,0.994-0.797,1.791-1.789,1.791c-0.998,0-1.791-0.793-1.791-1.791C24.756,22.519,24.944,22.063,25.28,21.726z M21.545,22.994
		c0,0.998-0.793,1.791-1.791,1.791c-0.994,0-1.791-0.799-1.791-1.791c0-0.989,0.802-1.79,1.791-1.79
		C20.748,21.204,21.545,22,21.545,22.994z"/>
</g>
</svg>
