<?xml version="1.0" encoding="iso-8859-1"?>
<!-- Generator: Adobe Illustrator 16.0.3, SVG Export Plug-In . SVG Version: 6.00 Build 0)  -->
<!DOCTYPE svg PUBLIC "-//W3C//DTD SVG 1.1//EN" "http://www.w3.org/Graphics/SVG/1.1/DTD/svg11.dtd">
<svg version="1.1" id="Layer_1" xmlns="http://www.w3.org/2000/svg" xmlns:xlink="http://www.w3.org/1999/xlink" x="0px" y="0px"
	 width="42.753px" height="39.386px" viewBox="0 0 42.753 39.386" style="enable-background:new 0 0 42.753 39.386;"
	 xml:space="preserve">
<g>
	<defs>
		<rect id="SVGID_1_" x="1.73" y="1.549" width="39.293" height="36.287"/>
	</defs>
	<clipPath id="SVGID_2_">
		<use xlink:href="#SVGID_1_"  style="overflow:visible;"/>
	</clipPath>
	<path style="clip-path:url(#SVGID_2_);fill:#191600;" d="M17.239,14.281l-1.414,4.281h2.872l-1.42-4.281
		C17.271,14.266,17.245,14.266,17.239,14.281"/>
	<path style="clip-path:url(#SVGID_2_);fill:#191600;" d="M21.377,1.549C10.527,1.549,1.73,8.5,1.73,17.066
		c0,5.512,3.635,10.354,9.12,13.107l-1.855,6.918c-0.068,0.204-0.013,0.429,0.136,0.581c0.112,0.106,0.255,0.163,0.397,0.163
		c0.124,0,0.248-0.039,0.354-0.117l7.965-5.379c1.146,0.163,2.327,0.248,3.53,0.248c10.851,0,19.646-6.947,19.646-15.521
		C41.023,8.5,32.228,1.549,21.377,1.549 M11.458,21.182c0,0.606-0.359,0.979-0.937,0.979c-0.583,0-0.939-0.373-0.939-0.979v-6.827
		H7.605c-0.621,0-0.844-0.456-0.844-0.855c0-0.415,0.294-0.855,0.844-0.855h5.831c0.546,0,0.84,0.44,0.84,0.855
		c0,0.399-0.221,0.855-0.84,0.855h-1.979V21.182z M20.552,22.161c-0.47,0-0.769-0.212-0.918-0.652l-0.41-1.284h-3.926l-0.422,1.271
		c-0.146,0.453-0.434,0.665-0.902,0.665c-0.518,0-0.925-0.38-0.925-0.87c0-0.191,0.059-0.337,0.084-0.408l2.729-7.229
		c0.193-0.527,0.664-1.096,1.396-1.096c0.644,0,1.156,0.4,1.401,1.096l2.643,7.213c0.084,0.227,0.108,0.411,0.108,0.482
		C21.411,21.805,21.033,22.161,20.552,22.161 M26.874,22.057h-3.503c-0.616,0-0.983-0.387-0.983-1.041v-7.473
		c0-0.607,0.36-0.984,0.943-0.984c0.577,0,0.938,0.377,0.938,0.984v6.806h2.605c0.281,0,0.514,0.09,0.676,0.26
		c0.155,0.161,0.236,0.392,0.224,0.626C27.761,21.636,27.445,22.057,26.874,22.057 M35.597,21.424
		c-0.072,0.686-0.736,0.737-0.938,0.737c-0.05,0-0.099,0-0.146-0.008c-0.347-0.036-0.543-0.255-0.905-0.744l-2.47-3.363l-0.676,0.69
		v2.529c0,0.509-0.399,0.896-0.936,0.896c-0.565,0-0.943-0.36-0.943-0.896v-7.781c0-0.538,0.395-0.926,0.943-0.926
		c0.562,0,0.936,0.373,0.936,0.926v3.012l3.311-3.449c0.148-0.148,0.39-0.342,0.751-0.342c0.453,0.011,0.907,0.311,0.898,0.861
		c0,0.262-0.154,0.429-0.465,0.771c-0.069,0.081-0.146,0.161-0.229,0.257l-2.261,2.283l2.677,3.504
		C35.419,20.743,35.648,21.043,35.597,21.424"/>
</g>
</svg>
