<?xml version="1.0" encoding="UTF-8"?><svg id="_레이어_1" xmlns="http://www.w3.org/2000/svg" width="196.67" height="34" viewBox="0 0 196.67 34"><defs><style>.cls-1{fill:#fc1b95;}.cls-2{fill:#67e8fe;}.cls-3{fill:#671993;}.cls-4{fill:#fff;}.cls-5{fill:#341797;}.cls-6{fill:none;stroke:#671993;stroke-linecap:round;stroke-linejoin:round;stroke-width:1.5px;}</style></defs><path class="cls-5" d="M160.11,20.6c-.18-.28-.49-.55-.91-.57-.42.02-.73.28-.91.57l-5.78,8.82h1.71l3.48-5.36,1.49-2.33v.02s.03-.02.03-.02l1.49,2.33,3.48,5.36h1.71l-5.78-8.82Z"/><polygon class="cls-5" points="157.11 24.96 156.23 26.22 162.18 26.22 161.3 24.96 157.11 24.96"/><path class="cls-5" d="M147.48,24.72c0,.64-.13,1.24-.38,1.81-.25.57-.6,1.07-1.02,1.5-.43.43-.93.77-1.51,1.01-.58.25-1.19.37-1.83.37s-1.27-.12-1.85-.37c-.58-.25-1.08-.58-1.52-1.01-.43-.42-.78-.92-1.02-1.49-.25-.57-.37-1.18-.37-1.82s.12-1.25.37-1.82.59-1.07,1.02-1.49c.43-.42.94-.76,1.52-1.01s1.19-.38,1.85-.38,1.25.13,1.83.38c.58.25,1.08.59,1.51,1.01.43.42.77.92,1.02,1.5.25.57.38,1.18.38,1.82Z"/><path class="cls-5" d="M124.07,29.43v-9.27h1.44v8.01h7.44l-.95,1.26h-7.93Z"/><path class="cls-5" d="M172.23,22.12v7.31h-1.31v-8.45c0-.67.37-.94.8-.94.19,0,.4.06.63.29l7.16,7.12v-7.29h1.32v8.41c0,.67-.39.94-.81.94-.19,0-.39-.04-.61-.28l-7.17-7.12Z"/><path class="cls-5" d="M164.51,9.23c0,.64-.13,1.25-.38,1.82s-.6,1.08-1.03,1.51c-.43.43-.94.77-1.52,1.02-.58.25-1.2.37-1.85.37s-1.28-.12-1.86-.37c-.58-.25-1.09-.59-1.53-1.01-.44-.43-.78-.93-1.03-1.5-.25-.57-.38-1.19-.38-1.84s.13-1.27.38-1.84c.25-.57.6-1.08,1.03-1.5.44-.43.95-.77,1.53-1.02.58-.25,1.2-.38,1.86-.38s1.27.13,1.85.38c.58.25,1.09.59,1.52,1.02.43.43.78.93,1.03,1.51.26.58.38,1.19.38,1.83Z"/><path class="cls-5" d="M121.17,13.99l.95-1.27h7.06c1.38,0,2.06-.5,2.06-1.48,0-1.23-.98-1.38-2.66-1.38h-3.63c-2.27,0-3.33-.91-3.33-2.54s1.1-2.67,3.58-2.67h7.27l-.94,1.29h-6.44c-1.37,0-2.06.5-2.06,1.48,0,1.19.95,1.33,2.66,1.33h3.63c2.19,0,3.32.82,3.32,2.52,0,1.79-1.09,2.74-3.56,2.74h-7.9Z"/><path class="cls-5" d="M142.86,13.99V5.92h-4.77l.98-1.29h10.41l-.95,1.29h-4.19v8.06h-1.46Z"/><path class="cls-5" d="M175.14,13.99c-2.98,0-5.18-2.05-5.18-4.77s2.19-4.58,5.18-4.58h5.69l-.95,1.29h-4.73c-1.76,0-3.72,1.03-3.72,3.37s1.98,3.42,4.52,3.42h4.89l-.95,1.27h-4.73Z"/><path class="cls-5" d="M194.4,13.99l-6.67-4.49v4.49h-1.45V4.64h1.45v4.09l6.32-4.09h2.22l-7.15,4.43,7.56,4.92h-2.27Z"/><line class="cls-6" x1="100.25" y1="22.2" x2="100.25" y2="23.1"/><line class="cls-6" x1="100.25" y1="24.14" x2="100.25" y2="25.04"/><line class="cls-6" x1="98.83" y1="23.62" x2="99.73" y2="23.62"/><line class="cls-6" x1="100.78" y1="23.62" x2="101.67" y2="23.62"/><polygon class="cls-1" points="50.82 9.25 50.11 4.72 47.73 5.79 50.82 9.25"/><polygon class="cls-2" points="51.84 8.09 57.11 0 52.29 1.6 51.84 8.09"/><polygon class="cls-2" points="50.48 23.94 48.01 27.96 44.98 27.39 50.48 23.94"/><polygon class="cls-1" points="51.21 25.14 52.24 32.05 49.36 30.08 51.21 25.14"/><path class="cls-1" d="M115.55,15.45c0-8.5-6.95-15.45-15.45-15.45h-30.7c-6.7,0-12.43,4.32-14.56,10.31l-10.01,4.41,3.03,1.12,5.53-2.43c2.13-5.99,7.87-10.31,14.56-10.31h30.7c8.5,0,15.45,6.95,15.45,15.45h0c0,1.74-.3,3.41-.83,4.97,1.45-2.35,2.29-5.12,2.29-8.07h0Z"/><path class="cls-2" d="M100.1,30.91h-30.7c-7.57,0-13.9-5.51-15.2-12.72l-6.35-2.35-4.49,1.97,9.38,3.47c1.3,7.2,7.64,12.72,15.2,12.72h30.7c6.76,0,12.54-4.4,14.62-10.48-2.73,4.42-7.61,7.39-13.16,7.39Z"/><path class="cls-3" d="M114.09,18.55c0-8.5-6.95-15.45-15.45-15.45h-30.7c-6.7,0-12.43,4.32-14.56,10.31l-5.53,2.43,6.35,2.35c1.3,7.2,7.64,12.72,15.2,12.72h30.7c5.55,0,10.44-2.96,13.16-7.39.54-1.56.83-3.23.83-4.97h0Z"/><path class="cls-4" d="M72.28,22.25h-2.56v-8.39h-6.99v8.39h-2.54v-10.5h9.53c1.71,0,2.56.7,2.56,2.11v8.39Z"/><path class="cls-4" d="M76.75,18.04v2.12h9.47v2.09h-9.47c-.37,0-.7-.05-1.02-.16-.31-.11-.58-.25-.8-.44s-.4-.41-.52-.66c-.12-.25-.18-.53-.18-.83v-6.32c0-.61.22-1.11.65-1.5.43-.39,1.06-.59,1.87-.59h7.58c.37,0,.7.05,1.02.16.31.11.58.25.8.43.22.18.4.4.52.66.12.26.18.53.18.84v2.11c0,.64-.23,1.14-.69,1.52-.46.38-1.07.57-1.83.57,0,0-7.58,0-7.58,0ZM84.32,15.95v-2.11h-7.58v2.11s7.58,0,7.58,0Z"/><path class="cls-4" d="M107.82,11.75l-4.87,10.5h-2.64l-2.68-6.69-2.76,6.69h-2.76l-4.67-10.5h2.9l3.21,7.62,3.11-7.62h2.05l2.9,7.62,3.39-7.62s2.82,0,2.82,0Z"/><path class="cls-1" d="M30.37,19.32v-8.33h3.72v6.92c0,.43.04.86.13,1.31.09.45.22.84.39,1.19s.38.63.64.85c.25.22.55.33.9.33h5.97v1.42h-8.02c-.48,0-.94-.1-1.38-.29-.44-.2-.84-.46-1.18-.8-.35-.34-.62-.73-.84-1.18-.21-.44-.32-.92-.32-1.41Z"/><path class="cls-1" d="M16.28,19.32v-8.33h3.72v6.92c0,.43.04.86.13,1.31.09.45.22.84.39,1.19s.38.63.64.85c.25.22.55.33.9.33h5.97v1.42h-8.02c-.48,0-.94-.1-1.38-.29-.44-.2-.84-.46-1.18-.8-.35-.34-.62-.73-.84-1.18-.21-.44-.32-.92-.32-1.41Z"/><path class="cls-1" d="M12.42,13.26c-.21-.44-.49-.84-.84-1.17-.35-.34-.74-.61-1.18-.8-.44-.2-.91-.29-1.38-.29H3.74c-.48,0-.94.1-1.38.29-.44.2-.84.46-1.19.8-.35.34-.63.73-.85,1.17-.21.45-.32.92-.32,1.42v8.33h3.74s0-2.76,0-4.9h5.28c0,2.13,0,4.9,0,4.9h3.72v-8.33c0-.5-.11-.97-.32-1.42ZM3.74,16.83c0-.23,0-.44,0-.61,0-.32,0-.71.08-1.28.04-.34.16-.66.27-.96s.25-.57.41-.8.35-.42.56-.56c.21-.14.46-.21.74-.21h1.17c.33,0,.63.11.89.33.26.22.47.51.65.85.17.35.3.74.39,1.19.01.05.02.11.02.16.11.67.11.96.11,1.28,0,.17,0,.38,0,.61,0,0-5.28,0-5.28,0Z"/><polygon class="cls-1" points="116.1 28.34 112.74 30.12 114.32 31.97 116.1 28.34"/><polygon class="cls-2" points="114.18 28.18 119.41 25.39 116.77 22.52 114.18 28.18"/></svg>