<?xml version="1.0" encoding="iso-8859-1"?>
<!-- Generator: Adobe Illustrator 16.0.3, SVG Export Plug-In . SVG Version: 6.00 Build 0)  -->
<!DOCTYPE svg PUBLIC "-//W3C//DTD SVG 1.1//EN" "http://www.w3.org/Graphics/SVG/1.1/DTD/svg11.dtd">
<svg version="1.1" id="Layer_1" xmlns="http://www.w3.org/2000/svg" xmlns:xlink="http://www.w3.org/1999/xlink" x="0px" y="0px"
	 width="136.664px" height="25.811px" viewBox="0 0 136.664 25.811" style="enable-background:new 0 0 136.664 25.811;"
	 xml:space="preserve">
<g>
	<path style="fill-rule:evenodd;clip-rule:evenodd;fill:#1D1E25;" d="M53.359,23.077h7.14v1.17h-8.626
		c-2.732,0-4.973-1.77-4.973-3.949c0-2.17,2.24-3.947,4.973-3.947h8.626v1.178h-7.14c-1.924,0-3.491,1.252-3.491,2.77
		C49.868,21.825,51.436,23.077,53.359,23.077"/>
	<path style="fill-rule:evenodd;clip-rule:evenodd;fill:#1D1E25;" d="M40.029,23.079h-2.914c-1.919,0-3.487-1.254-3.487-2.781
		c0-1.518,1.568-2.77,3.487-2.77h2.914c1.922,0,3.491,1.252,3.491,2.77C43.521,21.825,41.952,23.079,40.029,23.079 M41.512,24.247
		c2.734,0,4.973-1.77,4.973-3.949c0-2.17-2.238-3.947-4.973-3.947h-5.88c-2.733,0-4.973,1.777-4.973,3.947
		c0,2.18,2.239,3.949,4.973,3.949H41.512z"/>
	<path style="fill-rule:evenodd;clip-rule:evenodd;fill:#1D1E25;" d="M6.518,17.528c-0.759,0-1.382,0.495-1.382,1.095
		c0,0.603,0.623,1.091,1.382,1.091h7.091c1.572,0,2.861,1.021,2.861,2.268c0,1.251-1.289,2.266-2.861,2.266H3.005v-1.168h9.129
		c0.757,0,1.373-0.498,1.373-1.098c0-0.602-0.616-1.09-1.373-1.09H5.032c-1.576,0-2.857-1.021-2.857-2.269
		c0-1.253,1.281-2.272,2.857-2.272h10.602v1.178H6.518z"/>
	<path style="fill-rule:evenodd;clip-rule:evenodd;fill:#1D1E25;" d="M61.528,24.247h2.957v-3.346h2.709l4.754,3.346h3.65
		l-5.491-3.936l5.452-3.941l-3.611-0.02l-4.754,3.377h-1.069h-1.64h-2.957V24.247z M64.485,16.351h-2.957v2.199h2.957V16.351z"/>
	<path style="fill-rule:evenodd;clip-rule:evenodd;fill:#1D1E25;" d="M22.359,24.247h2.976v-5.536h-2.976V24.247z M25.335,17.53
		h1.498h4.182v-1.18H16.677v1.18h4.502h1.181H25.335z"/>
	<polygon style="fill-rule:evenodd;clip-rule:evenodd;fill:#1D1E25;" points="79.259,24.247 91.538,24.247 91.538,23.079 
		82.226,23.079 82.226,16.351 79.259,16.351 	"/>
	<path style="fill-rule:evenodd;clip-rule:evenodd;fill:#1D1E25;" d="M100.005,23.079h-2.911c-1.924,0-3.493-1.254-3.493-2.781
		c0-1.518,1.569-2.77,3.493-2.77h2.911c1.919,0,3.488,1.252,3.488,2.77C103.493,21.825,101.924,23.079,100.005,23.079
		 M101.488,24.247c2.734,0,4.973-1.77,4.973-3.949c0-2.17-2.238-3.947-4.973-3.947h-5.88c-2.736,0-4.975,1.777-4.975,3.947
		c0,2.18,2.238,3.949,4.975,3.949H101.488z"/>
	<path style="fill-rule:evenodd;clip-rule:evenodd;fill:#1D1E25;" d="M116.235,17.53h0.847v3.963h-4.833l-1.053,1.18h5.886v1.578
		h2.968v-7.897h-3.814c-1.673,0-4.136,0-5.84,1.896l-5.437,6.001h3.138l4.686-5.059C113.873,18.013,114.853,17.53,116.235,17.53"/>
	<path style="fill-rule:evenodd;clip-rule:evenodd;fill:#1D1E25;" d="M124.05,24.247V20.18l-2.97-1.786v5.854H124.05z
		 M124.05,18.817l9.022,5.43h1.417v-7.896h-2.965v5.438l-9.024-5.438h-1.42v0.682L124.05,18.817z"/>
	<path style="fill-rule:evenodd;clip-rule:evenodd;fill:#F5A100;" d="M18.749,3.29h1.25v5.827h-7.117l-1.541,1.732h8.658v2.321h4.36
		V1.56h-5.61c-2.467,0-6.076,0-8.599,2.787L2.175,13.17h4.607l6.887-7.442C15.269,4.001,16.707,3.29,18.749,3.29"/>
	<polygon style="fill-rule:evenodd;clip-rule:evenodd;fill:#F5A100;" points="45.442,13.173 63.492,13.173 63.492,11.451 
		49.806,11.451 49.806,1.56 45.442,1.56 	"/>
	<polygon style="fill-rule:evenodd;clip-rule:evenodd;fill:#F5A100;" points="25.873,13.173 43.929,13.173 43.929,11.451 
		30.233,11.451 30.233,1.56 25.873,1.56 	"/>
	<path style="fill-rule:evenodd;clip-rule:evenodd;fill:#F5A100;" d="M112.005,11.451h-0.275V1.56h-4.36v11.61h5.61
		c2.47,0,4.497,0,6.172-2.776l0.508-0.938v3.714h3.896c2.459,0,4.486,0,6.177-2.776l4.758-8.834h-4.267l-4.018,7.451
		c-1.071,1.972-1.592,2.44-3.634,2.44h-0.277V1.56h-2.635l-4.035,7.451C114.568,10.982,114.035,11.451,112.005,11.451"/>
	<path style="fill-rule:evenodd;clip-rule:evenodd;fill:#F5A100;" d="M86.237,13.17h19.618v-1.719H90.599V8.236h13.926V6.507H91.819
		h-1.221h-4.361V13.17z M90.599,3.293h1.221h14.036V1.56H86.237v1.734H90.599z"/>
	<path style="fill-rule:evenodd;clip-rule:evenodd;fill:#F5A100;" d="M69.368,13.17V7.19l-4.359-2.627v8.606H69.368z M69.368,5.188
		l13.27,7.982h2.087V1.56h-4.363v7.995L67.096,1.56h-2.087v1.002L69.368,5.188z"/>
</g>
</svg>
