<?xml version="1.0" encoding="iso-8859-1"?>
<!-- Generator: Adobe Illustrator 16.0.3, SVG Export Plug-In . SVG Version: 6.00 Build 0)  -->
<!DOCTYPE svg PUBLIC "-//W3C//DTD SVG 1.1//EN" "http://www.w3.org/Graphics/SVG/1.1/DTD/svg11.dtd">
<svg version="1.1" id="Layer_1" xmlns="http://www.w3.org/2000/svg" xmlns:xlink="http://www.w3.org/1999/xlink" x="0px" y="0px"
	 width="36.167px" height="43.779px" viewBox="5.979 0 36.167 43.779" style="enable-background:new 5.979 0 36.167 43.779;"
	 xml:space="preserve">
<path style="fill:#F40407;" d="M39.728,22c-1.372-2.585-3.997-4.096-6.75-4.195l3.196-1.681c3.885-2.023,5.377-6.778,3.329-10.627
	c-2.043-3.841-6.855-5.319-10.738-3.292L11.73,11.152c-3.883,2.027-5.379,6.785-3.335,10.627c1.38,2.584,3.999,4.094,6.757,4.193
	l-3.197,1.68c-3.885,2.027-5.377,6.785-3.334,10.631c2.047,3.843,6.856,5.317,10.742,3.291L36.4,32.623
	C40.285,30.603,41.771,25.845,39.728,22z M21.312,28.252V15.553l10.309,6.363L21.312,28.252z"/>
</svg>
