<svg xmlns="http://www.w3.org/2000/svg" version="1.1" xmlns:xlink="http://www.w3.org/1999/xlink" id="레이어_1" x="0px" y="0px" viewBox="0 0 202 202" style="enable-background:new 0 0 202 202;" xml:space="preserve" width="202" height="202"><g id="레이어_8">
	<g>
		<path style="fill:#FC1B95;" d="M201,91.897C201,41.904,160.096,1,110.103,1H99.94C59.398,1,24.836,27.901,13.216,64.735
			c15.765-27.161,45.181-45.529,78.681-45.529h10.163c49.993,0,90.897,40.904,90.897,90.897l0,0c0,9.451-1.464,18.576-4.173,27.163
			C196.546,123.893,201,108.391,201,91.897L201,91.897z"></path>
		<path style="fill:#67E8FE;" d="M110.103,182.794H99.94c-49.993,0-90.897-40.904-90.897-90.897l0,0
			c0-9.451,1.464-18.576,4.173-27.162C5.454,78.107,1,93.609,1,110.103l0,0C1,160.096,41.904,201,91.897,201h10.163
			c40.542,0,75.105-26.901,86.724-63.734C173.019,164.426,143.603,182.794,110.103,182.794z"></path>
		<path style="fill:#671993;" d="M192.957,110.103c0-49.993-40.904-90.897-90.897-90.897H91.897
			c-33.5,0-62.916,18.368-78.681,45.529c-2.709,8.586-4.173,17.711-4.173,27.162l0,0c0,49.993,40.904,90.897,90.897,90.897h10.163
			c33.5,0,62.916-18.368,78.681-45.529C191.493,128.679,192.957,119.554,192.957,110.103L192.957,110.103z"></path>
		<path style="fill:#FFFFFF;" d="M147.886,58.301C143.614,54.783,137.519,53,129.771,53H59.295h-6.159v6.159v77.682V143h6.159
			h18.783h6.159v-6.159V80.905h39.375v55.937V143h6.159h18.933h6.159v-6.159V74.746C154.863,67.645,152.516,62.112,147.886,58.301z"></path>
		<rect x="99" y="98" style="fill:#FFFFFF;" width="10" height="10"></rect>
	</g>
</g></svg>