<?xml version="1.0" encoding="iso-8859-1"?>
<!-- Generator: Adobe Illustrator 29.6.1, SVG Export Plug-In . SVG Version: 9.03 Build 0)  -->
<svg version="1.1" id="&#xB808;&#xC774;&#xC5B4;_4" xmlns="http://www.w3.org/2000/svg" xmlns:xlink="http://www.w3.org/1999/xlink"
	 x="0px" y="0px" viewBox="0 0 156.533 148.191" style="enable-background:new 0 0 156.533 148.191;" xml:space="preserve">
<g>
	<g>
		<g>
			<g>
				<path style="fill:#5CB5BC;" d="M24.599,96.107c0,0,76.685-4.846,89.706-47.753L103.89,42.97l29.801-20.176l5.712,34.814
					l-12.658-3.982C126.744,53.627,106.154,114.983,24.599,96.107z"/>
			</g>
		</g>
		<g>
			<g>
				<g>
					<path style="fill:#5CB5BC;" d="M37.981,125.849c0,0-16.862-0.216-17.87,2.466c-1.008,2.682,23.973,6.397,23.973,6.397
						s-5.572,4.08,0.932,3.52c6.505-0.56,24.363,0,24.363,0s34.964,2.276,43.545,0c8.581-2.276,14.842-3.698,11.386-6.787
						C120.855,128.356,52.093,126.993,37.981,125.849z"/>
				</g>
				<g>
					<g>
						<g>
							<path style="fill:#424A58;" d="M63.635,55.227c-5.326-2.436-18.619,29.502-18.619,29.502S26.75,65.68,21.333,70.216
								c-4.938,4.135,15.408,31.733,23.837,31.616C59.851,101.627,70.209,58.234,63.635,55.227z"/>
						</g>
					</g>
					<g>
						<g>
							<path style="fill:#EE8277;" d="M21.939,66.694c-2.039-0.807-2.605,1.254-3.396,1.414c-0.791,0.16-0.303,1.347,0.816,1.086
								c0.505-0.118,1.003-0.933,1.393-0.412c0.39,0.52,1.161,2.811,2.963,2.754C25.516,71.479,23.978,67.501,21.939,66.694z"/>
						</g>
						<g>
							<path style="fill:#EE8277;" d="M22.073,68.653c-0.98,0.081-2.714,0.953-3.885,0.631c-1.171-0.322-2.021-0.883-2.323-0.517
								c-0.557,0.676,1.778,1.511,2.612,1.76c0,0-0.112,1.206-0.413,1.474c-0.3,0.268-1.249-0.466-1.455,0.133
								c-0.206,0.599,1.51,1.343,3.411,1.25c1.901-0.093,5.284-0.448,4.215-2.494C23.168,68.843,22.848,68.588,22.073,68.653z"/>
						</g>
						<g>
							<path style="fill:#EE8277;" d="M18.491,71.949c0,0-1.823-0.075-2.119-1.39c-0.296-1.314,1.188-2.222,1.785-2.057
								c0.597,0.165,0.023,1.259,0.067,1.479c0.044,0.221,0.254,0.545,0.254,0.545S19.205,71.584,18.491,71.949z"/>
						</g>
					</g>
					<g>
						<path style="fill:#526488;" d="M93.511,103.165c0,0,31.29,13.526,27.344,25.191c-3.454,10.212-17.806,6.718-24.25,4.527
							c-6.445-2.191-29.83-15.697-29.83-15.697S73.104,101.04,93.511,103.165z"/>
					</g>
					<g>
						<path style="fill:#424A58;" d="M90.897,113.122c0,0,7.259,0.616,8.869,1.378c1.61,0.763,5.924,7.28,5.967,8.594
							c0.042,1.314-3.128-1.094-5.755-1.857c-2.627-0.763-8.898-1.78-9.576-1.822C89.723,119.374,90.121,113.27,90.897,113.122z"/>
					</g>
					<g>
						<path style="fill:#526488;" d="M57.955,102.837c0,0-33.513,10.897-29.051,23.4c2.543,7.125,12.489,7.444,20.363,4.649
							c7.874-2.795,25.21-12.912,30.136-14.521c4.927-1.609,8.595-12.868,2.938-16.02C76.684,97.193,57.955,102.837,57.955,102.837z
							"/>
					</g>
					<g>
						<path style="fill:#424A58;" d="M93.511,103.165c-3.27-0.341-6.179-0.211-8.758,0.245c-0.061-0.175-0.128-0.346-0.202-0.513
							c-3.377,0.353-6.519,0.624-8.45,0.654c-6.023,0.095-19.253,1.239-19.253,1.239s1.027,2.084,5.508,4.188
							c4.481,2.104,20.684,3.779,24.532,3.306c3.271-0.403,13.748-1.739,17.909-3.305C98.825,105.462,93.511,103.165,93.511,103.165
							z"/>
					</g>
					<g>
						<path style="fill:#526488;" d="M94.046,56.12c-2.199-4.279-13.048-5.909-17.9-5.659c0,0.006,0,0.013,0,0.019
							c-7.018,0.051-10.805,2.316-13.654,4.481c-5.463,4.153-3.319,19.03-3.684,34.349c-0.122,5.106-2.628,10.515-2.98,15.254
							c-0.098,1.319,0.572,3.633,13.531,4.064c0.498,0.017,0.995,0.034,1.491,0.051c0.478,0.016,1.065-4.767,1.54-4.751
							c1.286,0.045,2.452,4.889,3.711,4.928c9.039,0.276,17.245,0.259,22.564-1.876c2.684-1.077-3.248-16.587-3.463-18.255
							C93.311,74.024,98.933,65.632,94.046,56.12z"/>
					</g>
					<g>
						<path style="fill:#526488;" d="M36.377,116.627c5.94-3.946,20.44-5.283,33.456-5.997c9.503-0.521,17.596-0.572,21.851,0.459
							c0.941,0.228,2.226,0.842,2.581,1.249c4.671,5.344,0.518,6.464-5.035,8.694c-3.56,1.43-38.425,12.51-47.806,11.095
							C32.042,130.712,31.05,120.166,36.377,116.627z"/>
					</g>
					<g>
						<path style="fill:#424A58;" d="M60.685,126.66c0,0-7.259,0.616-8.869,1.378c-1.61,0.763-11.186,6.356-11.229,7.669
							c-0.042,1.314,8.39-0.169,11.017-0.932c2.627-0.763,8.898-1.78,9.576-1.822C61.859,132.911,61.461,126.807,60.685,126.66z"/>
					</g>
					<g>
						<g>
							<path style="fill:#526488;" d="M90.774,54.423c5.326-2.436,19.835,30.306,19.835,30.306s16.423-18.574,21.84-14.038
								c4.938,4.135-14.781,30.454-23.21,30.336C94.559,100.823,84.201,57.43,90.774,54.423z"/>
						</g>
					</g>
					<g>
						<path style="fill:#FFFFFF;" d="M74.782,50.624c0,0-2.119-0.085-3.39,1.864c-1.271,1.949-2.966,27.584-1.356,32.457
							c0.128,0.202,12.242-26.747,12.754-30.169C83.26,51.636,78.553,49.014,74.782,50.624z"/>
					</g>
					<g>
						<g>
							<path style="fill:#F0BA87;" d="M132.013,66.716c1.853-1.172,2.792,0.748,3.6,0.759c0.807,0.01,0.548,1.267-0.6,1.219
								c-0.518-0.022-1.159-0.73-1.446-0.146c-0.286,0.584-0.619,2.978-2.4,3.256C129.387,72.082,130.16,67.888,132.013,66.716z"/>
						</g>
						<g>
							<path style="fill:#F0BA87;" d="M132.245,68.666c0.979-0.102,2.844,0.433,3.934-0.101c1.09-0.534,1.821-1.243,2.186-0.939
								c0.672,0.561-1.466,1.815-2.24,2.215c0,0,0.334,1.164,0.679,1.372c0.345,0.208,1.141-0.69,1.455-0.139
								c0.314,0.55-1.235,1.6-3.12,1.861c-1.885,0.261-5.275,0.542-4.605-1.668C131.205,69.056,131.472,68.747,132.245,68.666z"/>
						</g>
						<g>
							<path style="fill:#F0BA87;" d="M136.378,71.239c0,0,1.777-0.412,1.824-1.759c0.047-1.347-1.58-1.963-2.136-1.69
								c-0.556,0.273,0.211,1.241,0.209,1.466c-0.003,0.225-0.148,0.583-0.148,0.583S135.608,71.014,136.378,71.239z"/>
						</g>
					</g>
					<g>
						<path style="fill:#526488;" d="M110.566,119.87c-9.658-3.613-38.617,0.023-51.261,4.464
							c-2.657,0.933-0.572,10.945-0.572,10.945s27.183,2.518,38.386,2.922c11.202,0.404,20.264-3.221,20.926-8.257
							C118.707,124.909,113.941,121.133,110.566,119.87z"/>
					</g>
					<g>
						<path style="fill:#715252;" d="M73.379,35.094c0,0-1.282-1.989,0.962-2.852c6.564-2.522,8.695,2.262,7.873,6.584
							c-0.551,2.895-3.204,4.642-3.204,4.642S72.994,38.462,73.379,35.094z"/>
					</g>
					<g>
						<path style="fill:#F0BA87;" d="M78.905,40.598l0.996,10.162c0.059,1.725-4.111,4.261-5.939,2.83
							c-0.535-0.419-0.942-0.661-0.499-1.907l1.604-8.577L78.905,40.598z"/>
					</g>
					<g>
						<path style="fill:#715252;" d="M79.255,32.103c0,0,0.311-1.834-1.841-2.851c-2.152-1.017-2.197,2.098-2.197,2.098
							s-0.232-1.862-2.309-0.322c-2.077,1.541,0.52,3.367,0.52,3.367s-2.135,0.866,0.223,2.964
							C75.301,38.825,80.446,35.711,79.255,32.103z"/>
					</g>
					<g>
						<path style="fill:#F0BA87;" d="M79.125,36.7l0.397,4.18c0.018,1.85-1.044,3.563-2.836,4.024
							c-1.653,0.426-2.73,0.674-4.459,0.046c-1.441-0.523-1.872-2.121-1.422-4.064c0.584-2.521,1.838-4.676,2.574-5.792
							c0.788-1.194,1.972-1.71,3.068-1.546C77.686,33.733,76.882,35.303,79.125,36.7z"/>
					</g>
					<g>
						<path style="fill:#BF6A65;" d="M73.838,39.757c-0.355-0.143-0.648-0.353-0.897-0.644c-0.189-0.22-0.493,0.112-0.306,0.33
							c0.27,0.314,0.608,0.556,0.992,0.711C73.894,40.261,74.107,39.865,73.838,39.757z"/>
					</g>
					<g>
						<path style="fill:#F0BA87;" d="M78.817,40.093c0.187-0.259,0.333-0.543,0.462-0.836c0.245-0.556,0.738-1.326,1.384-0.557
							c0.94,1.119-0.527,4.01-2.001,3.63C77.568,42.049,78.344,40.745,78.817,40.093z"/>
					</g>
					<g>
						<path style="fill:#715252;" d="M75.802,36.567c0.225-0.076,0.575,0.009,0.763,0.142c0.194,0.137,0.404,0.367,0.464,0.609
							c0.014,0.026,0.018,0.054,0.015,0.08c0,0,0,0.001,0,0.001c0.005,0.053-0.024,0.088-0.062,0.103
							c-0.054,0.041-0.134,0.05-0.202-0.013c-0.273-0.255-0.645-0.472-0.987-0.609C75.627,36.814,75.662,36.573,75.802,36.567z"/>
					</g>
					<g>
						<path style="fill:#715252;" d="M72.554,36.278c0.013-0.004,0.026-0.007,0.041-0.007c0.107,0,0.245-0.021,0.38-0.027
							c0.011-0.002,0.02-0.002,0.028-0.002c0.003,0,0.007,0.001,0.01,0.001c0.197-0.003,0.382,0.037,0.445,0.24
							c0.008,0.026,0.006,0.051-0.002,0.072c-0.001,0.092-0.072,0.189-0.186,0.165c-0.253-0.053-0.506-0.104-0.764-0.132
							C72.317,36.568,72.376,36.284,72.554,36.278z"/>
					</g>
					<g>
						<path style="fill:#715252;" d="M72.736,38.026c-0.039,0-0.081-0.003-0.126-0.009c-0.297-0.04-0.445-0.258-0.461-0.283
							c-0.048-0.074-0.027-0.172,0.047-0.22c0.073-0.047,0.171-0.027,0.219,0.046c0.005,0.007,0.086,0.121,0.239,0.142
							c0.172,0.024,0.28-0.032,0.284-0.035c0.077-0.041,0.173-0.013,0.215,0.063c0.042,0.076,0.016,0.171-0.06,0.214
							C73.076,37.954,72.943,38.026,72.736,38.026z"/>
					</g>
					<g>
						<path style="fill:#715252;" d="M75.895,38.852c-0.082,0-0.188-0.013-0.306-0.056c-0.281-0.103-0.38-0.348-0.39-0.375
							c-0.031-0.082,0.011-0.174,0.093-0.205c0.082-0.031,0.173,0.01,0.204,0.092c0.003,0.008,0.058,0.137,0.202,0.19
							c0.163,0.06,0.28,0.028,0.285,0.027c0.084-0.023,0.172,0.025,0.196,0.108c0.024,0.083-0.021,0.17-0.104,0.196
							C76.064,38.833,75.997,38.852,75.895,38.852z"/>
					</g>
					<g>
						<path style="fill:#BF6A65;" d="M73.591,41.832c-1.16,0-1.799-0.595-1.829-0.623c-0.089-0.085-0.092-0.226-0.008-0.315
							c0.084-0.089,0.225-0.092,0.314-0.008c0.029,0.027,0.676,0.615,1.869,0.481c0.122-0.014,0.232,0.074,0.246,0.196
							c0.014,0.122-0.074,0.232-0.196,0.246C73.849,41.825,73.717,41.832,73.591,41.832z"/>
					</g>
					<g>
						<path style="fill:#424A58;" d="M75.354,55.164c0,0,1.017-0.181,0.996-1.153c-0.021-0.972-1.61-0.829-2.097,0
							c0,0-0.238,0.66,0,1.025c0.171,0.263-2.994,10.724-4.789,16.594c-0.19,5.882-0.084,11.327,0.573,13.316
							c0.058,0.092,2.605-5.452,5.409-11.839L75.354,55.164z"/>
					</g>
					<g>
						<path style="fill:#FFFFFF;" d="M75.45,52.205c0,0,4.576-3.16,4.693-2.948c0.117,0.212,0.53,2.691,0.54,2.722
							c0.011,0.032-2.32,3.072-2.458,3.178c-0.138,0.106-3.146-1.147-3.146-1.147s-2.489,0.787-2.849,0.744
							c-0.36-0.042,1.559-4.807,1.559-4.807L75.45,52.205z"/>
					</g>
					<g>
						<path style="fill:#EE8277;" d="M71.916,44.057c-0.472-0.147-0.817-0.313-1.066-0.485c0.244,0.647,0.698,1.132,1.377,1.378
							c0.935,0.339,1.68,0.422,2.428,0.36l-0.539,2.88c2.929-0.43,4.662-4.138,4.267-4.494
							C77.96,43.315,74.231,44.777,71.916,44.057z"/>
					</g>
					<g>
						<path style="fill:#424A58;" d="M105.732,90.459c-0.08,0-0.16-0.027-0.226-0.083c-0.147-0.125-0.166-0.345-0.041-0.493
							c0.017-0.02,1.757-2.072,4.89-5.394c0.133-0.14,0.354-0.147,0.494-0.014c0.14,0.132,0.147,0.354,0.014,0.494
							c-3.12,3.309-4.848,5.346-4.865,5.366C105.93,90.417,105.831,90.459,105.732,90.459z"/>
					</g>
					<g>
						<path style="fill:#424A58;" d="M94.963,86.788c-0.125,0-0.246-0.067-0.309-0.186c-0.037-0.07-3.759-7.111-5.56-13.398
							c-1.81-6.321-0.696-14.99-0.684-15.077c0.025-0.191,0.201-0.326,0.392-0.301c0.191,0.025,0.326,0.201,0.301,0.392
							c-0.011,0.085-1.107,8.613,0.663,14.793c1.781,6.217,5.468,13.193,5.505,13.263c0.091,0.17,0.026,0.382-0.145,0.473
							C95.074,86.775,95.018,86.788,94.963,86.788z"/>
					</g>
					<g>
						<path style="fill:#424A58;" d="M94.963,114.062c-0.107,0-0.213-0.049-0.282-0.142c-0.014-0.019-1.427-1.922-2.624-2.654
							c-1.058-0.647-15.133-1.001-26.807,0.05c-10.987,0.989-17.188,2.138-17.249,2.15c-0.19,0.035-0.372-0.09-0.408-0.279
							c-0.036-0.19,0.089-0.372,0.279-0.408c0.062-0.012,6.295-1.167,17.315-2.159c5.074-0.457,11.358-0.7,17.241-0.669
							c2.087,0.011,8.976,0.096,9.993,0.719c1.314,0.804,2.761,2.753,2.822,2.836c0.115,0.155,0.082,0.374-0.074,0.489
							C95.107,114.04,95.035,114.062,94.963,114.062z"/>
					</g>
					<g>
						<path style="fill:#424A58;" d="M57.955,127.283c-0.192,0-0.349-0.156-0.35-0.348c0-0.06,0.005-1.477,0.928-2.489
							c0.111-0.122,0.372-0.408,3.46-1.353c1.855-0.568,4.304-1.24,6.895-1.893c6.148-1.549,11.349-2.576,13.911-2.747l0.019-0.001
							c5.642-0.376,18.855-1.255,22.583-0.492c3.86,0.79,8.793,2.883,10.624,4.228c0.156,0.114,0.189,0.333,0.075,0.489
							c-0.114,0.156-0.333,0.189-0.489,0.075c-1.737-1.275-6.636-3.347-10.35-4.107c-3.636-0.744-16.783,0.131-22.397,0.505
							l-0.019,0.001c-2.951,0.196-9.01,1.526-13.696,2.705c-5.842,1.469-9.725,2.713-10.103,3.066c-0.738,0.809-0.742,2-0.742,2.012
							c0.001,0.193-0.155,0.35-0.348,0.351C57.956,127.283,57.956,127.283,57.955,127.283z"/>
					</g>
					<g>
						<path style="fill:#424A58;" d="M72.282,105.337c-0.154,0-0.295-0.102-0.337-0.258c-1.099-4.058-1.845-19.219-1.876-19.862
							c-0.009-0.193,0.139-0.357,0.332-0.366c0.193-0.011,0.357,0.139,0.366,0.332c0.008,0.157,0.773,15.728,1.853,19.713
							c0.05,0.186-0.06,0.378-0.246,0.429C72.343,105.333,72.312,105.337,72.282,105.337z"/>
					</g>
					<g>
						<path style="fill:#424A58;" d="M89.782,98.049c-0.025,0-0.051-0.003-0.076-0.008l-14.279-3.178
							c-0.188-0.042-0.307-0.229-0.265-0.417c0.042-0.188,0.229-0.307,0.417-0.265l14.279,3.178
							c0.188,0.042,0.307,0.229,0.265,0.417C90.087,97.938,89.942,98.049,89.782,98.049z"/>
					</g>
					<g>
						<path style="fill:#424A58;" d="M59.528,95.846c-0.16,0-0.305-0.111-0.341-0.274c-0.042-0.188,0.077-0.375,0.265-0.417
							l7.034-1.568c0.188-0.042,0.375,0.077,0.417,0.265c0.042,0.188-0.077,0.375-0.265,0.417l-7.034,1.568
							C59.579,95.843,59.553,95.846,59.528,95.846z"/>
					</g>
					<g>
						<path style="fill:#25272D;" d="M49.973,92.361c-0.135,0-0.26-0.087-0.303-0.223c-1.354-4.307-4.819-7.133-4.854-7.161
							c-0.137-0.11-0.158-0.31-0.048-0.447c0.11-0.137,0.31-0.158,0.447-0.048c0.148,0.119,3.651,2.977,5.061,7.466
							c0.053,0.167-0.04,0.346-0.208,0.398C50.037,92.356,50.005,92.361,49.973,92.361z"/>
					</g>
				</g>
			</g>
			<g>
				<g>
					<g>
						<path style="fill:#F7D168;" d="M66.449,19.738L63.357,0.131l5.687,0.258l1.293,11.783l0.081,0.004L72.88,0.562l5.469,0.248
							l1.487,11.718l0.136,0.006L82.104,0.98l5.633,0.255l-5.016,19.24l-6.34-0.287L75.161,9.808l-0.109-0.005l-1.8,10.242
							L66.449,19.738z"/>
					</g>
					<g>
						
							<rect x="60.667" y="7.39" transform="matrix(0.999 0.0452 -0.0452 0.999 0.5151 -2.9131)" style="fill:#F7D168;" width="7.876" height="5.062"/>
						
							<rect x="81.67" y="8.341" transform="matrix(0.999 0.0452 -0.0452 0.999 0.5796 -3.8624)" style="fill:#F7D168;" width="7.876" height="5.062"/>
					</g>
				</g>
				<path style="fill:#FFFFFF;" d="M65.507,7.893c-0.071-0.003-0.131-0.055-0.142-0.127l-0.808-5.245
					c-0.013-0.083,0.043-0.159,0.126-0.172c0.083-0.012,0.16,0.044,0.172,0.126l0.808,5.245c0.013,0.083-0.043,0.159-0.126,0.172
					C65.526,7.894,65.516,7.894,65.507,7.893z"/>
				<path style="fill:#FFFFFF;" d="M61.599,10.302c-0.083-0.004-0.147-0.074-0.144-0.157l0.099-2.18
					c0.004-0.083,0.074-0.147,0.157-0.144c0.083,0.004,0.147,0.074,0.144,0.157l-0.099,2.18
					C61.752,10.242,61.682,10.306,61.599,10.302z"/>
				<path style="fill:#FFFFFF;" d="M64.313,0.896c0.004-0.083,0.074-0.147,0.157-0.144l3.735,0.169
					c0.083,0.004,0.147,0.074,0.144,0.157s-0.074,0.147-0.157,0.144l-3.735-0.169C64.373,1.05,64.309,0.979,64.313,0.896z"/>
			</g>
			<g>
				<g>
					<g>
						<path style="fill:#F7D168;" d="M53.798,35.649l-6.982-4.8l1.75-1.686l4.03,3.06l0.025-0.024l-2.874-4.173l1.683-1.621
							l4.066,2.981l0.042-0.04l-2.953-4.054l1.733-1.67l4.487,7.204l-1.951,1.88l-3.574-2.67l-0.034,0.032l2.644,3.565
							L53.798,35.649z"/>
					</g>
					<g>
						
							<rect x="48.534" y="32.257" transform="matrix(0.7202 -0.6938 0.6938 0.7202 -9.0771 44.169)" style="fill:#F7D168;" width="3.362" height="2.161"/>
						
							<rect x="54.997" y="26.03" transform="matrix(0.7202 -0.6938 0.6938 0.7202 -2.9486 46.9106)" style="fill:#F7D168;" width="3.362" height="2.161"/>
					</g>
				</g>
				<path style="fill:#FFFFFF;" d="M49.852,32.462c-0.022,0.021-0.056,0.024-0.081,0.007l-1.862-1.29
					c-0.029-0.02-0.037-0.06-0.016-0.089c0.021-0.029,0.061-0.037,0.089-0.016l1.862,1.29c0.029,0.02,0.037,0.06,0.016,0.089
					C49.858,32.456,49.855,32.46,49.852,32.462z"/>
				<path style="fill:#FFFFFF;" d="M49.451,34.38c-0.026,0.025-0.066,0.024-0.091-0.002l-0.646-0.671
					c-0.025-0.026-0.024-0.066,0.002-0.091c0.026-0.025,0.066-0.024,0.091,0.002l0.646,0.671
					C49.477,34.315,49.476,34.356,49.451,34.38z"/>
				<path style="fill:#FFFFFF;" d="M47.334,30.777c-0.025-0.026-0.024-0.066,0.002-0.091l1.149-1.107
					c0.026-0.025,0.066-0.024,0.091,0.002s0.024,0.066-0.002,0.091l-1.149,1.107C47.399,30.804,47.359,30.803,47.334,30.777z"/>
			</g>
			<g>
				<g>
					<g>
						<path style="fill:#F7D168;" d="M93.471,26.068l5.072-11.076l2.821,2.061l-3.337,6.464l0.04,0.029l5.2-5.103l2.713,1.983
							l-3.216,6.497l0.068,0.049l5.011-5.185l2.794,2.042l-9.094,8.137l-3.145-2.298l2.898-5.722l-0.054-0.04l-4.396,4.627
							L93.471,26.068z"/>
					</g>
					<g>
						
							<rect x="93.442" y="18.869" transform="matrix(0.8074 0.59 -0.59 0.8074 30.5138 -52.6261)" style="fill:#F7D168;" width="4.834" height="3.106"/>
						
							<rect x="103.86" y="26.482" transform="matrix(0.8074 0.59 -0.59 0.8074 37.0125 -57.3064)" style="fill:#F7D168;" width="4.834" height="3.106"/>
					</g>
				</g>
				<path style="fill:#FFFFFF;" d="M97.008,19.691c-0.035-0.026-0.048-0.073-0.029-0.113l1.367-2.956
					c0.022-0.047,0.076-0.067,0.123-0.045c0.047,0.022,0.067,0.077,0.045,0.123l-1.367,2.956c-0.022,0.047-0.076,0.067-0.123,0.045
					C97.018,19.698,97.013,19.695,97.008,19.691z"/>
				<path style="fill:#FFFFFF;" d="M94.192,19.597c-0.041-0.03-0.05-0.088-0.02-0.129l0.79-1.081c0.03-0.041,0.088-0.05,0.129-0.02
					s0.05,0.088,0.02,0.129l-0.79,1.081C94.291,19.618,94.233,19.627,94.192,19.597z"/>
				<path style="fill:#FFFFFF;" d="M98.772,15.707c0.03-0.041,0.088-0.05,0.129-0.02l1.853,1.354c0.041,0.03,0.05,0.088,0.02,0.129
					c-0.03,0.041-0.088,0.05-0.129,0.02l-1.853-1.354C98.751,15.806,98.742,15.749,98.772,15.707z"/>
			</g>
		</g>
	</g>
	<g>
		<g>
			<g>
				<polygon style="fill:#398A7B;" points="57.599,102.493 52.379,107.722 53.606,109.983 53.005,110.5 53.155,112.693 
					53.155,133.84 109.404,133.84 110.948,133.209 111.075,113.909 110.801,113.909 111.1,113.076 111.158,108.671 110.759,108.198 
					111.196,105.977 111.623,99.968 				"/>
				<path style="fill:#265F64;" d="M111.157,108.669v0.097c-1.518,0.045-3.032,0.121-4.547,0.218
					c-1.899,0.125-3.798,0.284-5.7,0.378c-1.864,0.09-3.843-0.038-5.676,0.34c-0.437,0.09-0.624-0.575-0.187-0.669
					c1.691-0.347,3.465-0.256,5.184-0.333c1.909-0.087,3.812-0.236,5.718-0.364c1.608-0.107,3.219-0.198,4.831-0.25l-0.021,0.111
					L111.157,108.669z"/>
				<path style="fill:#265F64;" d="M111.074,113.982l-0.01,0.693c-5.233,0.069-10.462,0.1-15.691,0.038
					c-0.447-0.003-0.447-0.697,0-0.693C100.605,114.082,105.838,114.051,111.074,113.982z"/>
				<path style="fill:#265F64;" d="M111.01,116.839l-0.016,0.715c-1.927-0.052-3.818-0.142-5.741-0.284
					c-0.44-0.031-0.444-0.724,0-0.693C107.179,116.719,109.079,116.787,111.01,116.839z"/>
			</g>
			<g>
				<polygon style="fill:#70BEAD;" points="111.623,99.968 57.599,102.493 52.379,107.722 111.217,105.688 				"/>
			</g>
			<g>
				<path style="fill:#398A7B;" d="M57.599,102.493l-5.22,5.229l58.838-2.034l0.406-5.72L57.599,102.493z M110.655,105.105
					l-56.771,1.962l3.977-3.983l53.114-2.483L110.655,105.105z"/>
			</g>
			<g>
				<path style="fill:#265F64;" d="M57.6,102.494l-2.817,2.821c0.308,0.021,0.603,0.045,0.87,0.104
					c2.526,0.555,41.824-0.523,44.066-0.703c2.27-0.184,4.536-0.191,6.775-0.655c1.268-0.263,2.533-0.53,3.795-0.821
					c0.353-0.083,0.735-0.146,1.116-0.215l0.218-3.057L57.6,102.494z"/>
				<g>
					<g>
						<path style="fill:#70BEAD;" d="M49.661,99.185c3.447-1.366,6.817-2.844,10.153-4.46c16.8,3.701,33.728,4.124,50.689,1.252
							c-0.669,2.689-1.382,5.359-2.142,8.023C88.519,106.62,68.811,105.001,49.661,99.185z"/>
					</g>
					<g>
						<path style="fill:#FFFFFF;" d="M96.889,100.931c-0.048,1.373-8.187,3.058-11.333,2.854
							c-2.878-0.187-10.942-3.227-10.829-4.292c0.152-1.433,8.207-0.108,11.111,0.08C89.011,99.779,96.919,100.086,96.889,100.931z"
							/>
					</g>
				</g>
			</g>
			<g>
				<path style="fill:#F7BFAC;" d="M82.071,97.612l-6.745,8.714l13.883-0.48l4.188-8.088C87.632,98.032,82.071,97.612,82.071,97.612
					z"/>
				<polygon style="fill:#EBAFA4;" points="75.326,106.326 75.326,133.84 88.277,133.84 89.209,105.846 75.326,106.326 				"/>
			</g>
		</g>
		<g>
			<path style="fill:#5CB5BC;" d="M80.696,134.751c0,0-2.596,1.356-2.355,3.141c0.241,1.785,5.448,1.699,13.399,1.943
				c8.773,0.269,39.486,0.312,45.961-0.568c2.098-0.285,5.324-3.054,0.65-4.141C128.572,132.851,80.696,134.751,80.696,134.751z"/>
			<g>
				<g>
					<g>
						<g>
							<g>
								<polygon style="fill:#398A7B;" points="79.12,120.963 79.345,125.129 80.021,125.977 79.426,126.626 79.574,129.37 
									79.574,138.293 135.233,138.293 136.911,135.736 136.968,124.335 136.574,123.743 137.007,120.963 137.119,111.132 								
									"/>
							</g>
						</g>
						<g>
							<g>
								<polygon style="fill:#70BEAD;" points="79.12,120.963 87.208,112.125 137.119,111.132 133.976,120.665 								"/>
							</g>
						</g>
						<g>
							<g>
								<path style="fill:#FFFFFF;" d="M122.898,116.048c0,1.145-6.36,2.073-14.206,2.073c-7.846,0-14.206-0.928-14.206-2.073
									c0-1.145,6.36-2.073,14.206-2.073C116.537,113.974,122.898,114.903,122.898,116.048z"/>
							</g>
						</g>
					</g>
					<g>
						<path style="fill:#265F64;" d="M133.933,128.441c-0.112,0-0.203-0.091-0.203-0.203v-6.621c0-0.112,0.091-0.203,0.203-0.203
							s0.203,0.091,0.203,0.203v6.621C134.136,128.35,134.045,128.441,133.933,128.441z"/>
					</g>
					<g>
						<path style="fill:#265F64;" d="M134.839,137.892c-0.077,0-0.15-0.044-0.184-0.118c-0.688-1.49-0.915-6.159-0.924-6.357
							c-0.005-0.112,0.081-0.207,0.193-0.212c0.111-0.005,0.207,0.081,0.212,0.193c0.002,0.048,0.232,4.788,0.887,6.206
							c0.047,0.102,0.003,0.222-0.099,0.269C134.896,137.886,134.867,137.892,134.839,137.892z"/>
					</g>
					<g>
						<path style="fill:#265F64;" d="M134.191,134.751H123.86c-0.112,0-0.203-0.091-0.203-0.203c0-0.112,0.091-0.203,0.203-0.203
							h10.332c0.112,0,0.203,0.091,0.203,0.203C134.394,134.66,134.303,134.751,134.191,134.751z"/>
					</g>
					<g>
						<path style="fill:#265F64;" d="M120.577,134.751h-4.244c-0.112,0-0.203-0.091-0.203-0.203c0-0.112,0.091-0.203,0.203-0.203
							h4.244c0.112,0,0.203,0.091,0.203,0.203C120.78,134.66,120.689,134.751,120.577,134.751z"/>
					</g>
					<g>
						<path style="fill:#265F64;" d="M98.563,134.496H83.169c-0.112,0-0.203-0.091-0.203-0.203c0-0.112,0.091-0.203,0.203-0.203
							h15.393c0.112,0,0.203,0.091,0.203,0.203C98.766,134.405,98.675,134.496,98.563,134.496z"/>
					</g>
					<g>
						<path style="fill:#265F64;" d="M97.487,126.181H80.021c-0.112,0-0.203-0.091-0.203-0.203c0-0.112,0.091-0.203,0.203-0.203
							h17.467c0.112,0,0.203,0.091,0.203,0.203C97.69,126.09,97.6,126.181,97.487,126.181z"/>
					</g>
					<g>
						<path style="fill:#265F64;" d="M133.933,126.969c-0.043,0-0.086-0.014-0.123-0.042c-0.089-0.068-0.106-0.195-0.038-0.285
							l2.726-3.573c0.068-0.089,0.195-0.106,0.285-0.038c0.089,0.068,0.106,0.195,0.038,0.285l-2.726,3.573
							C134.055,126.942,133.994,126.969,133.933,126.969z"/>
					</g>
				</g>
				<g>
					<g>
						<polygon style="fill:#EBAFA4;" points="100.115,138.293 112.429,138.293 112.429,120.782 100.115,120.849 						"/>
					</g>
					<g>
						<polygon style="fill:#F7BFAC;" points="105.861,111.754 100.115,120.849 112.429,120.782 117.032,111.532 						"/>
					</g>
				</g>
			</g>
		</g>
		<g>
			<g>
				<g>
					<path style="fill:#5CB5BC;" d="M48.193,139.65c-0.838,1.078,0.099,3.281,6.491,4.736c6.391,1.455,14.831,1.499,22.826,0.3
						c7.996-1.199,8.688-3.769,7.761-5.197C83.684,137.046,50.414,136.795,48.193,139.65z"/>
				</g>
			</g>
			<g>
				<g>
					<g>
						<g>
							<g>
								<g>
									<path style="fill:#EEA844;" d="M83.493,136.649l-0.068,3.85c-0.043,0.56-0.499,1.093-1.294,1.58
										c-0.423,0.26-0.945,0.507-1.55,0.738c-0.667,0.254-1.437,0.489-2.295,0.7c-0.478,0.118-0.983,0.228-1.512,0.332
										c-2.922,0.567-6.588,0.894-10.545,0.868c-9.315-0.058-16.717-2.042-16.534-4.43l0.068-3.85c0,0,11.05,1.035,17.017,1.073
										c4.065,0.025,10.346-0.384,13.938-0.647c0.402-0.03,0.77-0.057,1.098-0.081C82.861,136.702,83.493,136.649,83.493,136.649z
										"/>
								</g>
							</g>
						</g>
						<g>
							<g>
								<g>
									<path style="fill:#F7D168;" d="M83.495,136.607c-0.183,2.388-7.882,4.276-17.197,4.218
										c-0.591-0.003-1.176-0.015-1.75-0.035c-1.857-0.06-3.618-0.198-5.235-0.401c-5.76-0.718-9.683-2.248-9.549-3.995
										c0.183-2.388,7.882-4.276,17.197-4.218c2.806,0.017,5.441,0.209,7.745,0.536c0.122,0.017,0.244,0.035,0.365,0.053
										c0.747,0.111,1.458,0.237,2.126,0.376c0.63,0.131,1.224,0.273,1.774,0.426C81.854,134.364,83.584,135.436,83.495,136.607z"
										/>
								</g>
							</g>
						</g>
						<g>
							<g>
								<g>
									<g>
										<path style="fill:#F6B64E;" d="M81.483,136.594c-0.158,2.067-6.951,3.706-15.141,3.654
											c-8.19-0.051-14.725-1.775-14.567-3.841c0.158-2.067,6.95-3.706,15.141-3.654
											C75.106,132.804,81.641,134.527,81.483,136.594z M52.703,136.413c-0.147,1.92,5.981,3.521,13.659,3.569
											c7.679,0.048,14.046-1.474,14.193-3.394c0.147-1.92-5.981-3.521-13.66-3.569C59.217,132.97,52.85,134.493,52.703,136.413z
											"/>
									</g>
								</g>
							</g>
						</g>
					</g>
					<g>
						<g>
							<g>
								<path style="fill:#FFFFFF;" d="M64.965,141.075c-5.762,0-9.766-0.878-9.809-0.887c-0.188-0.042-0.299-0.204-0.249-0.361
									c0.05-0.157,0.243-0.251,0.43-0.209c0.046,0.01,4.687,1.026,11.16,0.846c0.192-0.007,0.357,0.122,0.363,0.285
									c0.006,0.163-0.146,0.299-0.34,0.305C65.989,141.068,65.47,141.075,64.965,141.075z"/>
							</g>
						</g>
					</g>
				</g>
				<g>
					<g>
						<g>
							<g>
								<g>
									<path style="fill:#EEA844;" d="M82.296,131.21l-0.068,3.85c-0.043,0.56-0.499,1.093-1.294,1.58
										c-0.423,0.26-0.945,0.507-1.55,0.738c-0.667,0.254-1.437,0.489-2.295,0.7c-0.478,0.118-0.983,0.228-1.512,0.332
										c-2.922,0.567-6.588,0.894-10.545,0.868c-9.315-0.058-16.717-2.042-16.534-4.43l0.068-3.85c0,0,11.05,1.035,17.017,1.073
										c4.065,0.025,10.346-0.384,13.938-0.647c0.402-0.03,0.77-0.057,1.098-0.081C81.663,131.262,82.296,131.21,82.296,131.21z"
										/>
								</g>
							</g>
						</g>
						<g>
							<g>
								<g>
									<path style="fill:#F7D168;" d="M82.297,131.167c-0.183,2.388-7.882,4.276-17.197,4.218
										c-0.591-0.003-1.176-0.015-1.75-0.035c-1.857-0.06-3.618-0.198-5.235-0.401c-5.76-0.718-9.683-2.248-9.549-3.995
										c0.183-2.388,7.882-4.276,17.197-4.218c2.806,0.017,5.441,0.209,7.745,0.536c0.122,0.017,0.244,0.035,0.365,0.053
										c0.747,0.111,1.458,0.237,2.126,0.376c0.63,0.131,1.224,0.273,1.774,0.426C80.656,128.924,82.386,129.997,82.297,131.167z"
										/>
								</g>
							</g>
						</g>
						<g>
							<g>
								<g>
									<g>
										<path style="fill:#F6B64E;" d="M80.286,131.154c-0.158,2.067-6.95,3.706-15.141,3.654
											c-8.19-0.051-14.725-1.775-14.567-3.841c0.158-2.067,6.95-3.706,15.141-3.654
											C73.909,127.365,80.444,129.088,80.286,131.154z M51.505,130.973c-0.147,1.92,5.981,3.521,13.659,3.569
											c7.679,0.048,14.046-1.474,14.193-3.394c0.147-1.92-5.981-3.521-13.66-3.569
											C58.019,127.531,51.652,129.054,51.505,130.973z"/>
									</g>
								</g>
							</g>
						</g>
					</g>
					<g>
						<g>
							<g>
								<path style="fill:#FFFFFF;" d="M64.368,135.553c-5.819,0-9.868-0.896-9.911-0.906c-0.188-0.042-0.299-0.204-0.249-0.362
									c0.05-0.157,0.243-0.251,0.431-0.209c0.046,0.01,4.682,1.035,11.158,0.867c0.195-0.004,0.356,0.123,0.362,0.286
									c0.006,0.163-0.147,0.299-0.341,0.304C65.325,135.547,64.84,135.553,64.368,135.553z"/>
							</g>
						</g>
					</g>
				</g>
				<g>
					<g>
						<g>
							<g>
								<g>
									<path style="fill:#EEA844;" d="M84.071,125.717l-0.068,3.85c-0.043,0.56-0.499,1.093-1.294,1.58
										c-0.423,0.26-0.945,0.507-1.55,0.738c-0.667,0.254-1.437,0.489-2.295,0.7c-0.478,0.118-0.983,0.228-1.512,0.332
										c-2.922,0.567-6.588,0.894-10.545,0.868c-9.315-0.058-16.717-2.042-16.534-4.43l0.068-3.85c0,0,11.05,1.035,17.017,1.073
										c4.065,0.025,10.346-0.384,13.938-0.647c0.402-0.03,0.77-0.057,1.098-0.081C83.439,125.77,84.071,125.717,84.071,125.717z"
										/>
								</g>
							</g>
						</g>
						<g>
							<g>
								<g>
									<path style="fill:#F7D168;" d="M84.073,125.675c-0.183,2.388-7.882,4.276-17.197,4.218
										c-0.591-0.003-1.176-0.015-1.75-0.035c-1.857-0.06-3.618-0.198-5.235-0.401c-5.76-0.718-9.683-2.248-9.549-3.995
										c0.183-2.388,7.882-4.276,17.197-4.218c2.806,0.017,5.441,0.209,7.745,0.536c0.122,0.017,0.244,0.035,0.365,0.053
										c0.747,0.111,1.458,0.237,2.126,0.377c0.63,0.131,1.224,0.273,1.774,0.426C82.432,123.432,84.162,124.504,84.073,125.675z"
										/>
								</g>
							</g>
						</g>
						<g>
							<g>
								<g>
									<g>
										<path style="fill:#F6B64E;" d="M82.061,125.662c-0.158,2.067-6.95,3.706-15.141,3.655
											c-8.19-0.052-14.725-1.775-14.567-3.841c0.158-2.067,6.95-3.706,15.141-3.655
											C75.684,121.872,82.219,123.595,82.061,125.662z M53.281,125.481c-0.147,1.92,5.981,3.521,13.659,3.569
											c7.679,0.048,14.046-1.474,14.193-3.394c0.147-1.92-5.981-3.521-13.66-3.569
											C59.795,122.038,53.428,123.561,53.281,125.481z"/>
									</g>
								</g>
							</g>
						</g>
					</g>
					<g>
						<g>
							<g>
								<path style="fill:#FFFFFF;" d="M66.871,130.2c-5.819,0-9.869-0.896-9.912-0.906c-0.188-0.042-0.299-0.204-0.249-0.361
									c0.05-0.157,0.243-0.251,0.431-0.209c0.046,0.01,4.683,1.034,11.158,0.867c0.196-0.003,0.356,0.123,0.362,0.286
									c0.006,0.163-0.147,0.299-0.341,0.304C67.827,130.194,67.343,130.2,66.871,130.2z"/>
							</g>
						</g>
					</g>
				</g>
				<g>
					<g>
						<g>
							<g>
								<path style="fill:#EEA844;" d="M87.977,120.351l-0.068,3.85c-0.043,0.56-0.499,1.093-1.294,1.58
									c-0.423,0.26-0.945,0.507-1.55,0.738c-0.667,0.254-1.437,0.489-2.295,0.7c-0.478,0.118-0.983,0.228-1.512,0.332
									c-2.922,0.567-6.588,0.894-10.545,0.868c-9.315-0.058-16.717-2.042-16.534-4.43l0.068-3.85c0,0,11.05,1.035,17.017,1.073
									c4.065,0.025,10.346-0.384,13.938-0.647c0.402-0.03,0.77-0.057,1.098-0.081C87.345,120.404,87.977,120.351,87.977,120.351z"
									/>
							</g>
						</g>
					</g>
					<g>
						<g>
							<g>
								<path style="fill:#F7D168;" d="M87.979,120.309c-0.183,2.388-7.882,4.276-17.197,4.218c-0.591-0.003-1.176-0.015-1.75-0.035
									c-1.857-0.06-3.618-0.198-5.235-0.401c-5.76-0.718-9.683-2.248-9.549-3.995c0.183-2.388,7.882-4.276,17.197-4.218
									c2.806,0.017,5.441,0.209,7.745,0.536c0.122,0.017,0.245,0.035,0.365,0.053c0.747,0.111,1.458,0.237,2.126,0.376
									c0.63,0.131,1.224,0.273,1.774,0.426C86.338,118.066,88.068,119.139,87.979,120.309z"/>
							</g>
						</g>
					</g>
					<g>
						<g>
							<g>
								<path style="fill:#FFFFFF;" d="M83.455,117.27c-4.786,2.439-9.607,4.83-14.424,7.222c-1.857-0.06-3.618-0.198-5.235-0.401
									c5.13-2.552,10.276-5.093,15.392-7.677c0.122,0.017,0.245,0.035,0.365,0.053c0.747,0.111,1.458,0.237,2.126,0.376
									C82.311,116.975,82.904,117.117,83.455,117.27z"/>
							</g>
						</g>
					</g>
					<g>
						<g>
							<g>
								<g>
									<path style="fill:#F6B64E;" d="M85.967,120.296c-0.158,2.067-6.95,3.706-15.141,3.655
										c-8.19-0.052-14.725-1.775-14.567-3.841c0.158-2.067,6.95-3.706,15.141-3.655C79.59,116.506,86.125,118.23,85.967,120.296z
										 M57.187,120.115c-0.147,1.92,5.981,3.521,13.659,3.569c7.679,0.048,14.046-1.474,14.193-3.394
										c0.147-1.92-5.981-3.521-13.66-3.569C63.701,116.673,57.334,118.195,57.187,120.115z"/>
								</g>
							</g>
						</g>
					</g>
				</g>
			</g>
		</g>
		<g>
			<g>
				<g>
					<path style="fill:#5CB5BC;" d="M17.326,144.262c-0.826,0.696,0.098,2.118,6.394,3.057c6.296,0.939,14.609,0.968,22.485,0.194
						c7.876-0.774,8.558-2.433,7.645-3.354C52.287,142.581,19.514,142.419,17.326,144.262z"/>
				</g>
			</g>
			<g>
				<g>
					<g>
						<g>
							<g>
								<g>
									<path style="fill:#EEA844;" d="M52.283,140.113l-0.067,3.793c-0.042,0.552-0.492,1.077-1.275,1.556
										c-0.417,0.256-0.931,0.499-1.527,0.727c-0.657,0.25-1.415,0.481-2.26,0.69c-0.47,0.117-0.968,0.225-1.49,0.327
										c-2.879,0.558-6.49,0.88-10.387,0.855c-9.176-0.057-16.467-2.011-16.287-4.364l0.067-3.793c0,0,10.885,1.02,16.763,1.057
										c4.004,0.025,10.191-0.378,13.73-0.637c0.396-0.029,0.758-0.056,1.081-0.08C51.66,140.165,52.283,140.113,52.283,140.113z"
										/>
								</g>
							</g>
						</g>
						<g>
							<g>
								<g>
									<path style="fill:#F7D168;" d="M52.284,140.071c-0.18,2.352-7.764,4.212-16.94,4.155c-0.582-0.003-1.158-0.015-1.724-0.034
										c-1.83-0.059-3.564-0.195-5.156-0.395c-5.674-0.707-9.538-2.215-9.407-3.935c0.18-2.352,7.764-4.213,16.94-4.155
										c2.764,0.017,5.36,0.206,7.629,0.528c0.12,0.017,0.241,0.034,0.36,0.052c0.736,0.109,1.436,0.233,2.094,0.371
										c0.621,0.129,1.205,0.269,1.748,0.42C50.668,137.862,52.372,138.918,52.284,140.071z"/>
								</g>
							</g>
						</g>
						<g>
							<g>
								<g>
									<g>
										<path style="fill:#F6B64E;" d="M50.303,140.059c-0.156,2.036-6.847,3.651-14.915,3.6
											c-8.068-0.051-14.505-1.748-14.35-3.784s6.846-3.651,14.915-3.6C44.021,136.325,50.459,138.023,50.303,140.059z
											 M21.953,139.88c-0.145,1.891,5.891,3.468,13.455,3.516c7.564,0.048,13.836-1.452,13.98-3.344
											c0.145-1.891-5.891-3.468-13.456-3.516C28.369,136.489,22.097,137.989,21.953,139.88z"/>
									</g>
								</g>
							</g>
						</g>
					</g>
					<g>
						<g>
							<g>
								<path style="fill:#FFFFFF;" d="M34.623,144.391c-5.732,0-9.72-0.882-9.763-0.892c-0.185-0.042-0.294-0.201-0.245-0.356
									c0.05-0.155,0.239-0.247,0.424-0.205c0.045,0.01,4.612,1.02,10.991,0.854c0.192-0.004,0.351,0.121,0.357,0.282
									c0.006,0.16-0.145,0.294-0.336,0.3C35.566,144.385,35.088,144.391,34.623,144.391z"/>
							</g>
						</g>
					</g>
				</g>
				<g>
					<g>
						<g>
							<g>
								<g>
									<path style="fill:#EEA844;" d="M54.482,135.114l-0.067,3.793c-0.042,0.552-0.492,1.077-1.275,1.556
										c-0.417,0.256-0.931,0.499-1.527,0.727c-0.657,0.25-1.415,0.481-2.26,0.69c-0.47,0.117-0.968,0.225-1.49,0.327
										c-2.879,0.558-6.49,0.88-10.387,0.855c-9.176-0.057-16.467-2.011-16.287-4.364l0.067-3.793c0,0,10.885,1.02,16.763,1.057
										c4.004,0.025,10.191-0.378,13.73-0.637c0.396-0.029,0.758-0.056,1.081-0.08C53.858,135.166,54.482,135.114,54.482,135.114z
										"/>
								</g>
							</g>
						</g>
						<g>
							<g>
								<g>
									<path style="fill:#F7D168;" d="M54.483,135.072c-0.18,2.352-7.764,4.212-16.94,4.155c-0.582-0.003-1.158-0.015-1.724-0.034
										c-1.83-0.059-3.564-0.195-5.156-0.395c-5.674-0.707-9.538-2.215-9.407-3.935c0.18-2.352,7.764-4.212,16.94-4.155
										c2.764,0.017,5.36,0.206,7.629,0.528c0.12,0.017,0.241,0.034,0.36,0.052c0.736,0.109,1.436,0.233,2.094,0.371
										c0.621,0.129,1.205,0.269,1.748,0.42C52.867,132.863,54.571,133.919,54.483,135.072z"/>
								</g>
							</g>
						</g>
						<g>
							<g>
								<g>
									<g>
										<path style="fill:#F6B64E;" d="M52.502,135.059c-0.156,2.036-6.847,3.651-14.915,3.6
											c-8.068-0.051-14.505-1.748-14.35-3.784c0.156-2.036,6.846-3.651,14.915-3.6C46.22,131.326,52.657,133.024,52.502,135.059
											z M24.151,134.881c-0.145,1.891,5.891,3.468,13.455,3.516c7.564,0.048,13.836-1.452,13.981-3.344
											c0.145-1.891-5.891-3.468-13.456-3.516C30.568,131.49,24.296,132.99,24.151,134.881z"/>
									</g>
								</g>
							</g>
						</g>
					</g>
					<g>
						<g>
							<g>
								<path style="fill:#FFFFFF;" d="M36.23,139.473c-5.676,0-9.62-0.865-9.663-0.874c-0.185-0.041-0.295-0.2-0.246-0.356
									c0.049-0.155,0.239-0.247,0.424-0.206c0.045,0.01,4.617,1.01,10.994,0.834c0.189-0.007,0.351,0.12,0.358,0.281
									c0.006,0.16-0.144,0.295-0.335,0.3C37.239,139.466,36.728,139.473,36.23,139.473z"/>
							</g>
						</g>
					</g>
				</g>
				<g>
					<g>
						<g>
							<g>
								<g>
									<path style="fill:#EEA844;" d="M50.851,129.892l-0.067,3.793c-0.042,0.552-0.492,1.077-1.275,1.556
										c-0.417,0.256-0.931,0.499-1.527,0.727c-0.657,0.25-1.415,0.481-2.26,0.69c-0.47,0.117-0.968,0.225-1.49,0.327
										c-2.879,0.558-6.49,0.88-10.387,0.855c-9.176-0.057-16.467-2.011-16.287-4.363l0.067-3.793c0,0,10.885,1.02,16.763,1.057
										c4.004,0.025,10.191-0.378,13.73-0.637c0.396-0.029,0.758-0.056,1.081-0.08C50.228,129.944,50.851,129.892,50.851,129.892z
										"/>
								</g>
							</g>
						</g>
						<g>
							<g>
								<g>
									<path style="fill:#F7D168;" d="M50.852,129.851c-0.18,2.352-7.764,4.212-16.94,4.155c-0.582-0.003-1.158-0.015-1.724-0.034
										c-1.83-0.059-3.564-0.195-5.156-0.395c-5.674-0.707-9.538-2.215-9.407-3.935c0.18-2.352,7.764-4.212,16.94-4.155
										c2.764,0.017,5.36,0.206,7.629,0.528c0.12,0.017,0.241,0.034,0.36,0.052c0.736,0.109,1.436,0.233,2.094,0.371
										c0.621,0.129,1.205,0.269,1.748,0.42C49.236,127.641,50.94,128.698,50.852,129.851z"/>
								</g>
							</g>
						</g>
						<g>
							<g>
								<g>
									<g>
										<path style="fill:#F6B64E;" d="M48.871,129.838c-0.156,2.036-6.847,3.651-14.915,3.6
											c-8.068-0.051-14.505-1.748-14.35-3.784c0.156-2.036,6.846-3.651,14.915-3.6
											C42.589,126.105,49.027,127.802,48.871,129.838z M20.521,129.66c-0.145,1.891,5.891,3.468,13.455,3.516
											c7.564,0.048,13.836-1.452,13.98-3.343c0.145-1.891-5.891-3.468-13.456-3.516
											C26.937,126.269,20.666,127.768,20.521,129.66z"/>
									</g>
								</g>
							</g>
						</g>
					</g>
					<g>
						<g>
							<g>
								<path style="fill:#FFFFFF;" d="M33.191,134.171c-5.732,0-9.721-0.882-9.763-0.892c-0.185-0.042-0.294-0.201-0.245-0.356
									c0.05-0.155,0.239-0.247,0.424-0.205c0.045,0.01,4.612,1.02,10.991,0.854c0.192-0.004,0.351,0.121,0.357,0.282
									c0.006,0.16-0.144,0.295-0.336,0.3C34.134,134.165,33.656,134.171,33.191,134.171z"/>
							</g>
						</g>
					</g>
				</g>
				<g>
					<g>
						<g>
							<g>
								<g>
									<path style="fill:#EEA844;" d="M50.817,124.269l-0.067,3.793c-0.042,0.552-0.492,1.077-1.275,1.556
										c-0.417,0.256-0.931,0.499-1.527,0.727c-0.657,0.25-1.415,0.481-2.26,0.69c-0.47,0.117-0.968,0.225-1.49,0.327
										c-2.879,0.558-6.49,0.88-10.387,0.855c-9.176-0.057-16.467-2.011-16.287-4.364l0.067-3.793c0,0,10.885,1.02,16.763,1.057
										c4.004,0.025,10.191-0.378,13.73-0.637c0.396-0.029,0.758-0.056,1.081-0.08C50.194,124.321,50.817,124.269,50.817,124.269z
										"/>
								</g>
							</g>
						</g>
						<g>
							<g>
								<g>
									<path style="fill:#F7D168;" d="M50.819,124.228c-0.18,2.352-7.764,4.212-16.94,4.155c-0.582-0.003-1.158-0.015-1.724-0.034
										c-1.83-0.059-3.564-0.195-5.156-0.395c-5.674-0.707-9.538-2.215-9.407-3.935c0.18-2.352,7.764-4.212,16.94-4.155
										c2.764,0.017,5.36,0.206,7.629,0.528c0.12,0.017,0.241,0.034,0.36,0.052c0.736,0.109,1.436,0.233,2.094,0.371
										c0.621,0.129,1.205,0.269,1.748,0.42C49.203,122.018,50.907,123.074,50.819,124.228z"/>
								</g>
							</g>
						</g>
						<g>
							<g>
								<g>
									<g>
										<path style="fill:#F6B64E;" d="M48.837,124.215c-0.156,2.036-6.847,3.651-14.915,3.6
											c-8.068-0.051-14.505-1.748-14.35-3.784c0.156-2.036,6.846-3.651,14.915-3.6
											C42.556,120.482,48.993,122.179,48.837,124.215z M20.487,124.037c-0.145,1.891,5.891,3.468,13.455,3.516
											c7.564,0.048,13.836-1.452,13.98-3.344c0.145-1.891-5.891-3.468-13.456-3.516
											C26.903,120.645,20.632,122.145,20.487,124.037z"/>
									</g>
								</g>
							</g>
						</g>
					</g>
					<g>
						<g>
							<g>
								<path style="fill:#FFFFFF;" d="M32.566,128.629c-5.676,0-9.62-0.865-9.663-0.874c-0.185-0.041-0.295-0.201-0.246-0.356
									c0.049-0.155,0.239-0.248,0.424-0.206c0.045,0.01,4.617,1.01,10.994,0.834c0.189-0.007,0.351,0.121,0.358,0.281
									c0.006,0.16-0.144,0.295-0.335,0.3C33.575,128.622,33.064,128.629,32.566,128.629z"/>
							</g>
						</g>
					</g>
				</g>
				<g>
					<g>
						<g>
							<g>
								<g>
									<path style="fill:#EEA844;" d="M49.638,118.911l-0.067,3.793c-0.042,0.552-0.492,1.077-1.275,1.556
										c-0.417,0.256-0.931,0.499-1.527,0.727c-0.657,0.25-1.415,0.481-2.26,0.69c-0.47,0.117-0.968,0.225-1.49,0.327
										c-2.879,0.558-6.49,0.88-10.387,0.855c-9.176-0.057-16.467-2.011-16.287-4.363l0.067-3.793c0,0,10.885,1.02,16.763,1.057
										c4.004,0.025,10.191-0.378,13.73-0.637c0.396-0.029,0.758-0.056,1.081-0.08C49.015,118.963,49.638,118.911,49.638,118.911z
										"/>
								</g>
							</g>
						</g>
						<g>
							<g>
								<g>
									<path style="fill:#F7D168;" d="M49.639,118.869c-0.18,2.352-7.764,4.212-16.94,4.155c-0.582-0.003-1.158-0.015-1.724-0.034
										c-1.83-0.059-3.564-0.195-5.156-0.395c-5.674-0.707-9.538-2.215-9.407-3.935c0.18-2.352,7.764-4.212,16.94-4.155
										c2.764,0.017,5.36,0.206,7.629,0.528c0.12,0.017,0.241,0.034,0.36,0.052c0.736,0.109,1.436,0.233,2.094,0.371
										c0.621,0.129,1.205,0.269,1.748,0.42C48.023,116.66,49.727,117.716,49.639,118.869z"/>
								</g>
							</g>
						</g>
						<g>
							<g>
								<g>
									<g>
										<path style="fill:#F6B64E;" d="M47.658,118.857c-0.156,2.036-6.847,3.651-14.915,3.6
											c-8.068-0.051-14.505-1.748-14.35-3.784c0.156-2.036,6.846-3.651,14.915-3.6
											C41.376,115.123,47.813,116.821,47.658,118.857z M19.308,118.678c-0.145,1.891,5.891,3.468,13.455,3.516
											c7.564,0.048,13.836-1.452,13.98-3.344c0.145-1.891-5.891-3.468-13.456-3.516
											C25.724,115.287,19.452,116.787,19.308,118.678z"/>
									</g>
								</g>
							</g>
						</g>
					</g>
					<g>
						<g>
							<g>
								<path style="fill:#FFFFFF;" d="M31.978,123.189c-5.732,0-9.721-0.882-9.763-0.892c-0.185-0.042-0.294-0.201-0.245-0.356
									c0.05-0.155,0.239-0.247,0.424-0.205c0.045,0.01,4.612,1.02,10.991,0.854c0.192-0.004,0.351,0.121,0.357,0.282
									c0.006,0.16-0.144,0.295-0.336,0.3C32.92,123.183,32.443,123.189,31.978,123.189z"/>
							</g>
						</g>
					</g>
				</g>
				<g>
					<g>
						<g>
							<g>
								<g>
									<path style="fill:#EEA844;" d="M51.387,113.5l-0.067,3.793c-0.042,0.552-0.492,1.077-1.275,1.556
										c-0.417,0.256-0.931,0.499-1.527,0.727c-0.657,0.25-1.415,0.481-2.26,0.69c-0.47,0.117-0.968,0.225-1.49,0.327
										c-2.879,0.558-6.49,0.88-10.387,0.855c-9.176-0.057-16.467-2.011-16.287-4.364l0.067-3.793c0,0,10.885,1.02,16.763,1.057
										c4.004,0.025,10.191-0.378,13.73-0.637c0.396-0.029,0.758-0.056,1.081-0.08C50.764,113.553,51.387,113.5,51.387,113.5z"/>
								</g>
							</g>
						</g>
						<g>
							<g>
								<g>
									<path style="fill:#F7D168;" d="M51.388,113.459c-0.18,2.352-7.764,4.212-16.94,4.155c-0.582-0.003-1.158-0.015-1.724-0.034
										c-1.83-0.059-3.564-0.195-5.156-0.395c-5.674-0.707-9.538-2.215-9.407-3.935c0.18-2.352,7.764-4.212,16.94-4.155
										c2.764,0.017,5.36,0.206,7.629,0.528c0.12,0.017,0.241,0.034,0.36,0.052c0.736,0.109,1.436,0.233,2.094,0.371
										c0.621,0.129,1.205,0.269,1.748,0.42C49.772,111.249,51.476,112.306,51.388,113.459z"/>
								</g>
							</g>
						</g>
						<g>
							<g>
								<g>
									<g>
										<path style="fill:#F6B64E;" d="M49.407,113.446c-0.156,2.036-6.847,3.651-14.915,3.6
											c-8.068-0.051-14.505-1.748-14.35-3.784c0.156-2.036,6.846-3.651,14.915-3.6C43.125,109.713,49.563,111.41,49.407,113.446
											z M21.057,113.268c-0.145,1.891,5.891,3.468,13.455,3.516c7.564,0.048,13.836-1.452,13.981-3.344
											c0.145-1.891-5.891-3.468-13.456-3.516C27.473,109.877,21.201,111.377,21.057,113.268z"/>
									</g>
								</g>
							</g>
						</g>
					</g>
					<g>
						<g>
							<g>
								<path style="fill:#FFFFFF;" d="M34.444,117.916c-5.732,0-9.721-0.882-9.764-0.892c-0.185-0.042-0.294-0.201-0.245-0.356
									c0.05-0.155,0.239-0.247,0.424-0.205c0.045,0.01,4.613,1.019,10.991,0.854c0.193-0.003,0.351,0.121,0.357,0.282
									c0.006,0.16-0.144,0.294-0.336,0.3C35.385,117.911,34.908,117.916,34.444,117.916z"/>
							</g>
						</g>
					</g>
				</g>
				<g>
					<g>
						<g>
							<g>
								<g>
									<path style="fill:#EEA844;" d="M53.735,107.945l-0.067,3.793c-0.042,0.552-0.492,1.077-1.275,1.556
										c-0.417,0.256-0.931,0.499-1.527,0.727c-0.657,0.25-1.415,0.481-2.26,0.69c-0.47,0.117-0.968,0.225-1.49,0.327
										c-2.879,0.558-6.49,0.88-10.387,0.855c-9.176-0.057-16.467-2.011-16.287-4.364l0.067-3.793c0,0,10.885,1.02,16.763,1.057
										c4.004,0.025,10.191-0.378,13.73-0.637c0.396-0.029,0.758-0.056,1.081-0.08C53.112,107.997,53.735,107.945,53.735,107.945z
										"/>
								</g>
							</g>
						</g>
						<g>
							<g>
								<g>
									<path style="fill:#F7D168;" d="M53.736,107.904c-0.18,2.352-7.764,4.212-16.94,4.155c-0.582-0.003-1.158-0.015-1.724-0.034
										c-1.83-0.059-3.564-0.195-5.156-0.395c-5.674-0.707-9.538-2.215-9.407-3.935c0.18-2.352,7.764-4.212,16.94-4.155
										c2.764,0.017,5.36,0.206,7.629,0.528c0.12,0.017,0.241,0.034,0.36,0.052c0.736,0.109,1.436,0.233,2.094,0.371
										c0.621,0.129,1.205,0.269,1.748,0.42C52.12,105.694,53.824,106.75,53.736,107.904z"/>
								</g>
							</g>
						</g>
						<g>
							<g>
								<g>
									<g>
										<path style="fill:#F6B64E;" d="M51.755,107.891c-0.156,2.036-6.847,3.651-14.915,3.6
											c-8.068-0.051-14.505-1.748-14.35-3.784c0.156-2.036,6.846-3.651,14.915-3.6
											C45.473,104.158,51.911,105.855,51.755,107.891z M23.405,107.713c-0.145,1.891,5.891,3.468,13.455,3.516
											c7.564,0.048,13.836-1.452,13.981-3.344c0.145-1.891-5.891-3.468-13.456-3.516
											C29.821,104.322,23.55,105.821,23.405,107.713z"/>
									</g>
								</g>
							</g>
						</g>
					</g>
					<g>
						<g>
							<g>
								<path style="fill:#FFFFFF;" d="M36.872,112.548c-5.732,0-9.721-0.883-9.764-0.892c-0.185-0.042-0.294-0.201-0.245-0.356
									c0.05-0.155,0.239-0.247,0.424-0.205c0.045,0.01,4.613,1.019,10.991,0.854c0.193-0.003,0.351,0.121,0.357,0.282
									c0.006,0.16-0.144,0.295-0.336,0.3C37.814,112.542,37.337,112.548,36.872,112.548z"/>
							</g>
						</g>
					</g>
				</g>
				<g>
					<g>
						<g>
							<g>
								<path style="fill:#EEA844;" d="M51.534,102.672l-0.067,3.793c-0.042,0.552-0.492,1.077-1.275,1.556
									c-0.417,0.256-0.931,0.499-1.527,0.727c-0.657,0.25-1.415,0.481-2.26,0.69c-0.47,0.117-0.968,0.225-1.49,0.327
									c-2.879,0.558-6.49,0.88-10.387,0.855c-9.176-0.057-16.467-2.011-16.287-4.364l0.067-3.793c0,0,10.885,1.02,16.763,1.057
									c4.004,0.025,10.191-0.378,13.73-0.637c0.396-0.029,0.758-0.056,1.081-0.08C50.911,102.724,51.534,102.672,51.534,102.672z"
									/>
							</g>
						</g>
					</g>
					<g>
						<g>
							<g>
								<path style="fill:#F7D168;" d="M51.535,102.63c-0.18,2.352-7.764,4.213-16.94,4.155c-0.582-0.003-1.158-0.015-1.724-0.034
									c-1.83-0.059-3.564-0.195-5.156-0.395c-5.674-0.707-9.538-2.215-9.407-3.935c0.18-2.352,7.764-4.212,16.94-4.155
									c2.764,0.017,5.36,0.206,7.629,0.528c0.12,0.017,0.241,0.034,0.36,0.052c0.736,0.109,1.436,0.233,2.094,0.371
									c0.621,0.129,1.205,0.269,1.748,0.42C49.919,100.421,51.624,101.477,51.535,102.63z"/>
							</g>
						</g>
					</g>
					<g>
						<g>
							<g>
								<path style="fill:#FFFFFF;" d="M47.079,99.636c-4.715,2.402-9.464,4.758-14.208,7.115c-1.83-0.059-3.564-0.195-5.156-0.395
									c5.053-2.514,10.123-5.017,15.163-7.562c0.12,0.017,0.241,0.034,0.36,0.052c0.736,0.109,1.436,0.233,2.094,0.371
									C45.952,99.346,46.537,99.485,47.079,99.636z"/>
							</g>
						</g>
					</g>
					<g>
						<g>
							<g>
								<g>
									<path style="fill:#F6B64E;" d="M49.554,102.617c-0.156,2.036-6.847,3.651-14.915,3.6
										c-8.068-0.051-14.505-1.748-14.35-3.784c0.156-2.036,6.847-3.651,14.915-3.6C43.273,98.884,49.71,100.582,49.554,102.617z
										 M21.204,102.439c-0.145,1.891,5.891,3.468,13.455,3.516c7.564,0.048,13.836-1.452,13.98-3.343
										c0.145-1.891-5.891-3.469-13.456-3.516C27.62,99.048,21.349,100.548,21.204,102.439z"/>
								</g>
							</g>
						</g>
					</g>
				</g>
				<g>
					<g>
						<g>
							<g>
								<path style="fill:#EEA844;" d="M51.534,96.756l-0.067,3.793c-0.042,0.552-0.492,1.077-1.275,1.556
									c-0.417,0.256-0.931,0.499-1.527,0.727c-0.657,0.25-1.415,0.481-2.26,0.69c-0.47,0.117-0.968,0.225-1.49,0.327
									c-2.879,0.558-6.49,0.88-10.387,0.855c-9.176-0.057-16.467-2.011-16.287-4.363l0.067-3.793c0,0,10.885,1.02,16.763,1.057
									c4.004,0.025,10.191-0.378,13.73-0.637c0.396-0.029,0.758-0.056,1.081-0.08C50.911,96.808,51.534,96.756,51.534,96.756z"/>
							</g>
						</g>
					</g>
					<g>
						<g>
							<g>
								<path style="fill:#F7D168;" d="M51.535,96.714c-0.18,2.352-7.764,4.212-16.94,4.155c-0.582-0.003-1.158-0.015-1.724-0.034
									c-1.83-0.059-3.564-0.195-5.156-0.395c-5.674-0.707-9.538-2.215-9.407-3.935c0.18-2.352,7.764-4.212,16.94-4.155
									c2.764,0.017,5.36,0.206,7.629,0.528c0.12,0.017,0.241,0.034,0.36,0.052c0.736,0.109,1.436,0.233,2.094,0.371
									c0.621,0.129,1.205,0.269,1.748,0.42C49.919,94.505,51.624,95.561,51.535,96.714z"/>
							</g>
						</g>
					</g>
					<g>
						<g>
							<g>
								<path style="fill:#FFFFFF;" d="M47.079,93.72c-4.715,2.402-9.464,4.758-14.208,7.115c-1.83-0.059-3.564-0.195-5.156-0.395
									c5.053-2.514,10.123-5.017,15.163-7.562c0.12,0.017,0.241,0.034,0.36,0.052c0.736,0.109,1.436,0.233,2.094,0.371
									C45.952,93.43,46.537,93.569,47.079,93.72z"/>
							</g>
						</g>
					</g>
					<g>
						<g>
							<g>
								<g>
									<path style="fill:#F6B64E;" d="M49.554,96.701c-0.156,2.036-6.847,3.651-14.915,3.6c-8.068-0.051-14.505-1.748-14.35-3.784
										c0.156-2.036,6.847-3.651,14.915-3.6C43.273,92.968,49.71,94.665,49.554,96.701z M21.204,96.523
										c-0.145,1.891,5.891,3.468,13.455,3.516c7.564,0.048,13.836-1.452,13.98-3.344c0.145-1.891-5.891-3.468-13.456-3.516
										C27.62,93.132,21.349,94.632,21.204,96.523z"/>
								</g>
							</g>
						</g>
					</g>
				</g>
			</g>
		</g>
	</g>
</g>
</svg>
